<svg xmlns="http://www.w3.org/2000/svg" xmlns:xlink="http://www.w3.org/1999/xlink" version="1.1" id="Layer_1" x="0px" y="0px" viewBox="0 0 112.3 76.8" enable-background="new 0 0 112.3 76.8" xml:space="preserve">
	<style>
	.style0{
		fill:	#353534;
	}
</style><g>
<path class="style0" d="M3.2 43.5C3.2 43.5 3.2 43.5 3.2 43.5c-0.8 2.1-1.3 4.5-1.3 7.1c0 11.1 9 20 20 20c7.9 0 14.7-4.6 18-11.2 l6.9-2c0 0 0 0 0 0l2.1 0.2c0 0 0.1 0 0.1 0c0 0 0.1 0 0.1 0c0.4 0.1 0.9 0.1 1.3 0.1c3.5 0 6.3-2.7 6.5-6.2 c0.9-0.5 1.9-1.2 2.8-1.9c3.1-2.3 6.2-5.4 9.1-8.9c3.9-4.8 7.3-11 9.2-15c0.3 1.3 0.6 2.7 1 4.1c0.2 0.7 0.3 1.3 0.5 2 c-6.2 3.8-10.4 10.8-10.4 18.8c0 0 0 0 0 0.1c0 0.4-0.1 1.8-0.3 2.2c-0.2 0.5 0 1.1 0.5 1.4c0.1 0.1 0.3 0.1 0.4 0.1 c0.2 0 0.4-0.1 0.6-0.2c1.7 9.3 9.8 16.4 19.7 16.4c11.1 0 20-9 20-20c0-10.2-7.6-18.5-17.4-19.8c0.2-0.2 0.3-0.4 0.4-0.7 c0-0.6-0.4-1.1-0.9-1.1c-0.7 0-1.4-0.1-2.1-0.1c0 0 0 0-0.1 0c0 0 0-0.1 0-0.1V28c0.4 0 0.8 0 1.2 0c0 0 0.7 0 0.7-2.4 c0-2.4-0.7-2.4-0.7-2.4c-2.5 0-4.5 1.1-4.5 2.4c0 1.4 0.5 2 1.2 2.3v0.9c0 0.1 0 0.1 0 0.2c-1.9 0.2-3.8 0.7-5.5 1.4 c-1.7-6.8-3-13-3.3-14.5l1.5-5.8c0.2-0.6-0.1-1.3-0.6-1.6l-2-1.4c-0.2-0.3-0.5-0.6-0.8-0.7c-0.5-0.3-0.9-0.3-1.3-0.3 c-1.2 0-2.6 0.4-4.2 0.8c-1.5 0.4-3.1 0.7-4.2 0.7c-0.3 0-0.5 0-0.7 0h0c-0.8-0.1-1.7 0.4-1.8 1.3c-0.1 0.8 0.4 1.7 1.3 1.8 c0.4 0.1 0.8 0.1 1.2 0.1c0.9 0 1.7-0.1 2.6-0.3c-0.4 0.3-1.1 0.5-2.5 0.6c-0.4 0-0.9 0-1.5-0.1c-0.4-0.1-0.8 0.3-0.9 0.7 c0 0.4 0.3 0.8 0.7 0.9c0.6 0.1 1.2 0.1 1.7 0.1c0 0 0 0 0 0c1.8 0 3-0.5 3.8-1.2c0.6-0.5 0.8-1.1 1-1.5c0 0 0 0 0 0 c1.3-0.3 2.5-0.6 3.1-0.7c0 0 0.1 0.1 0.2 0.1l1.5 1.1L76 15.5C76 15.7 76 16 76 16.2c0 0 0.4 1.8 1 4.6c-0.1 0.3-0.4 0.8-0.7 1.5 c-0.5 1.2-1.3 2.8-2.3 4.6c-1.9 3.7-4.6 8.3-7.6 11.9c-2.7 3.3-5.7 6.3-8.5 8.4c-0.5 0.4-1.1 0.8-1.6 1.1c-1.1-2.1-3.3-3.6-5.8-3.6 c-0.3 0-0.6 0-0.8 0.1c-0.1 0-0.2-0.1-0.4 0l-0.7 0L37.3 24.5c-0.2-0.4-0.5-0.6-0.9-0.7l-3.5-6.3c0.7-0.1 1.2-0.2 1.3-0.4 c0.2-0.8 5.7-1 6.2-2.5c0.6-1.6-8.6-1-10.7-1c-2.1 0-6.5-0.8-7-0.1c-0.5 0.8 0 4 1.4 4.2c0.3 0 1 0.1 1.8 0.1l-0.2 0.7 c0 0 3.5 1.5 4.8 1.1c0.3-0.1 0.5-0.3 0.6-0.6l3.2 5.7c-0.2 0.1-0.3 0.3-0.4 0.5l-3.3 6.1C28 30 25 29.3 21.9 29.3 c-5.2 0-10 1.9-13.7 5H4.9l-0.7 4.5c-0.3 0.5-0.6 1-0.9 1.4c-0.5 0.8-1 1.5-1.3 1.6c-0.5 0.3-0.5 1-0.2 1.4 C2.1 43.8 2.7 43.9 3.2 43.5z M74 50.6c0-5.5 2.8-10.4 7-13.3c1.4 4.9 2.9 9.6 4.5 12.4c0.5 0.8 0.9 1.5 1.5 2.1 c0.5 1.2 1.7 2.1 3.1 2.1c1.9 0 3.4-1.5 3.4-3.4c0-1.9-1.5-3.4-3.4-3.4c-0.2 0-0.3 0-0.5 0.1c-0.2-0.1-0.4-0.2-0.6-0.4 c-1.2-0.8-2.4-2.1-2.6-3.1c0-0.2-0.1-0.4-0.2-0.5c-0.8-2.2-1.6-4.9-2.3-7.6c0.2-0.1 0.4-0.2 0.7-0.2c0 0.3 0.1 0.6 0.3 0.9 c0.2 0.2 0.5 0.3 0.7 0.3c0.3 0 0.6-0.1 0.8-0.4c0.4-0.5 1.4-0.6 1.9-0.6c0.2 0 0.2 0 0.2 0c0.6 0.1 1.2-0.4 1.2-1 c0-0.1 0-0.1 0-0.2c0.1 0 0.3 0 0.4 0c8.9 0 16.1 7.2 16.1 16.1c0 8.9-7.2 16.1-16.1 16.1C81.3 66.7 74.1 59.5 74 50.6z M44 51.2 c0 1.4 0.4 2.7 1.2 3.7l-3.7-0.4c0.3-1.3 0.4-2.6 0.4-4c0-0.8-0.1-1.6-0.1-2.3c0.7-0.2 1.4-0.4 1.8-0.7c0.1 0 0.1-0.1 0.2-0.1 l1.6-0.1C44.5 48.4 44 49.7 44 51.2z M25.4 48.7l4.3-0.3c-1.5 0.2-2.9 0.5-4.1 0.7C25.6 48.9 25.5 48.8 25.4 48.7z M37.6 54.1 l-12.3-1.4c0.3-0.5 0.5-1 0.6-1.5c3.4-0.5 8.3-1.3 12.1-2.1c0 0.5 0.1 1 0.1 1.4C38 51.8 37.9 53 37.6 54.1z M25.9 46.4l1.6-3l1 0.5 c0.3 0.2 0.7 0 0.9-0.3l1.5-2.9c0.2-0.4 0.1-0.8-0.2-0.9l-1-0.5l1.1-2.1c3 2 5.2 4.9 6.3 8.4L25.9 46.4z M45.2 45.1l-1.9 0.1 c-0.1 0-0.2 0-0.3 0l-0.5 0c-1.4-5.3-4.7-9.8-9.2-12.6l2.4-4.5L45.2 45.1z M50.5 54.6c-1.9 0-3.4-1.5-3.4-3.4c0-1.9 1.5-3.4 3.4-3.4 c1.9 0 3.4 1.5 3.4 3.4C53.9 53.1 52.4 54.6 50.5 54.6z M40.9 57c0-0.1 0.1-0.2 0.1-0.3l0.5 0L40.9 57z M5.8 50.6 c0-8.9 7.2-16.1 16.1-16.1c1.2 0 2.4 0.1 3.5 0.4c0 0.1-0.1 0.2-0.1 0.3c0 0.6 0.4 1.1 1.1 1.2c0 0 0.1 0 0.2 0 c0.2 0 0.4 0.1 0.6 0.1c0.1 0 0.3 0.1 0.4 0.2l-5.3 9.9c-0.1 0-0.2 0-0.4 0c-2.2 0-4 1.8-4 4c0 2.1 1.7 3.9 3.8 4c0 0 0 0 0.1 0 L37 56.3c-0.4 1-0.8 1.9-1.3 2.7l-2.7 1c-0.3 0.1-0.5 0.5-0.4 0.8c0.1 0.3 0.3 0.4 0.6 0.4c0.1 0 0.1 0 0.2 0l0.8-0.2 c-2.9 3.5-7.3 5.7-12.2 5.7C13 66.7 5.8 59.5 5.8 50.6z"/>
</g></svg>
