<?xml version="1.0" encoding="utf-8"?>
<!-- Generator: Adobe Illustrator 18.0.0, SVG Export Plug-In . SVG Version: 6.00 Build 0)  -->
<!DOCTYPE svg PUBLIC "-//W3C//DTD SVG 1.1//EN" "http://www.w3.org/Graphics/SVG/1.1/DTD/svg11.dtd">
<svg version="1.1" id="Layer_1" xmlns="http://www.w3.org/2000/svg" xmlns:xlink="http://www.w3.org/1999/xlink" x="0px" y="0px"
	 viewBox="0 0 75 75" enable-background="new 0 0 75 75" xml:space="preserve">
<g>
	<path fill="#FFFFFF" d="M72,41.1C72,41,71.9,41,72,41.1C71.9,41,71.9,41,72,41.1C71.9,41,72,41,72,41.1z"/>
	<path fill="#FFFFFF" d="M14.9,33.5l0.6-2.7c0,0-0.6,0-1,0.1c-1.3,0.4-1.6,1.6-1.7,1.7c-0.4,1.6,0.8,1.7,1.3,1.7
		C14.7,34.3,14.9,33.5,14.9,33.5z"/>
	<path fill="#FFFFFF" d="M21.2,30.8c0.2-1.6,0.4-3.3,0.5-3.8c0.1-0.8,0.2-1.5-0.2-1.4c-1.1,0-2.2,1.3-3,3c-0.1,0.3-0.3,0.5-0.4,0.8
		c0.2,0.1,0.5,0.2,0.7,0.3C19.6,29.9,20.4,30.3,21.2,30.8z"/>
	<path fill="#FFFFFF" d="M24.6,41.6"/>
	<path fill="#FFFFFF" d="M24.6,41.5c-0.2-0.5-1-0.1-0.8,0.9C23.8,42.4,24.8,42,24.6,41.5z"/>
	<path fill="#FFFFFF" d="M59,42.7c-0.1-0.9-1.7-0.6-1.2,1.4C57.8,44.1,59.1,43.3,59,42.7z"/>
	<path fill="#FFFFFF" d="M58.6,29.6c-0.3-0.1-0.9,0.2-0.9,0.2c-0.3,0.2-0.6,0.6-0.8,1c-0.5,1-0.3,1.9,0,2.1c0.3,0.2,0.6,0,1-0.2
		c0.3-0.2,0.6-0.6,0.8-1C59.2,30.7,59,29.8,58.6,29.6z"/>
	<path fill="#FFFFFF" d="M41.8,49c0.4,0.3,0.4-0.9,0.4-0.9C42,48.3,41.7,48.9,41.8,49z"/>
	<path fill="#FFFFFF" d="M35.2,30c0,0,0-0.1,0-0.1c-0.2-0.1-0.3-0.2-0.6-0.2c-0.4,0-0.7,0.2-0.8,0.4c-0.3,0.3-0.4,0.7-0.4,1.1
		c0,0.4,0.2,0.9,0.4,1.2c0.1,0.1,0.4,0.4,0.8,0.4c0.4,0,0.7-0.2,0.8-0.4c0.3-0.3,0.4-0.7,0.4-1.2c0-0.1,0-0.1,0-0.2
		C35.5,30.9,35.1,30.6,35.2,30z"/>
	<path fill="#FFFFFF" d="M73.6,35c0-0.2-0.1-0.3-0.3-0.3c-2.7-0.2-3.2-4.1-0.7-5.1c0.1-0.1,0.2-0.2,0.2-0.3
		c-0.1-0.4-0.2-0.9-0.3-1.3c0-0.1-0.2-0.2-0.3-0.2c-2.7,0.3-4-3.4-1.7-4.8c0.1-0.1,0.2-0.2,0.1-0.4c-0.2-0.4-0.4-0.8-0.6-1.2
		c-0.1-0.1-0.2-0.2-0.4-0.2c-2.5,0.9-4.6-2.5-2.6-4.4c0.1-0.1,0.1-0.3,0-0.4c-0.3-0.4-0.5-0.7-0.8-1.1c-0.1-0.1-0.3-0.2-0.4-0.1
		c-2.3,1.3-5-1.6-3.4-3.8c0.1-0.1,0.1-0.3,0-0.4c-0.3-0.3-0.7-0.6-1-0.9c-0.1-0.1-0.3-0.1-0.4,0c-2,1.7-5.2-0.6-4.1-3
		c0.1-0.1,0-0.3-0.1-0.4c-0.4-0.2-0.8-0.5-1.2-0.7c-0.1-0.1-0.3,0-0.4,0.1c-1.6,2.1-5.2,0.4-4.6-2.2c0-0.1-0.1-0.3-0.2-0.3
		c-0.4-0.2-0.8-0.3-1.3-0.5c-0.1-0.1-0.3,0-0.4,0.2c-1.2,2.4-5,1.4-5-1.2c0-0.2-0.1-0.3-0.2-0.3c-0.4-0.1-0.9-0.1-1.3-0.2
		c-0.2,0-0.3,0.1-0.3,0.2c-0.7,2.6-4.7,2.4-5.1-0.2c0-0.1-0.2-0.3-0.3-0.2c-0.4,0-0.9,0-1.4,0.1c-0.2,0-0.3,0.1-0.3,0.3
		c-0.2,2.7-4.1,3.2-5.1,0.7c-0.1-0.1-0.2-0.2-0.3-0.2c-0.4,0.1-0.9,0.2-1.3,0.3c-0.1,0-0.2,0.2-0.2,0.3c0.3,2.7-3.4,4-4.8,1.7
		c-0.1-0.1-0.2-0.2-0.4-0.1c-0.4,0.2-0.9,0.4-1.3,0.6c-0.1,0.1-0.2,0.2-0.2,0.4C22,8,18.6,10,16.8,8.1c-0.1-0.1-0.3-0.1-0.4,0
		c-0.4,0.3-0.7,0.5-1.1,0.8c-0.1,0.1-0.2,0.3-0.1,0.4c1.3,2.3-1.6,5-3.8,3.4c-0.1-0.1-0.3-0.1-0.4,0c-0.3,0.3-0.6,0.7-0.9,1
		c-0.1,0.1-0.1,0.3,0,0.4c1.7,2-0.6,5.2-3,4.1c-0.1-0.1-0.3,0-0.4,0.1c-0.2,0.4-0.5,0.8-0.7,1.2c-0.1,0.1,0,0.3,0.1,0.4
		c2.1,1.6,0.4,5.2-2.2,4.6c-0.1,0-0.3,0.1-0.3,0.2c-0.2,0.4-0.3,0.8-0.5,1.3c-0.1,0.1,0,0.3,0.2,0.4c2.4,1.2,1.4,5-1.2,5
		c-0.2,0-0.3,0.1-0.3,0.2c-0.1,0.4-0.1,0.9-0.2,1.3c0,0.2,0.1,0.3,0.2,0.3c2.6,0.7,2.4,4.6-0.2,5.1c-0.1,0-0.3,0.2-0.2,0.3
		c0,0.4,0,0.9,0.1,1.4c0,0.2,0.1,0.3,0.3,0.3c2.7,0.2,3.2,4.1,0.8,5.1c-0.1,0.1-0.2,0.2-0.2,0.3c0.1,0.4,0.2,0.9,0.3,1.3
		c0,0.1,0.2,0.2,0.3,0.2c2.7-0.3,4,3.4,1.7,4.8c-0.1,0.1-0.2,0.2-0.1,0.4c0.2,0.4,0.4,0.8,0.6,1.2c0.1,0.1,0.2,0.2,0.4,0.2
		c2.5-0.9,4.6,2.5,2.6,4.4C8,58.3,8,58.4,8,58.6c0.3,0.4,0.5,0.7,0.8,1.1c0.1,0.1,0.3,0.2,0.4,0.1c2.3-1.3,5,1.6,3.4,3.8
		c-0.1,0.1-0.1,0.3,0,0.4c0.3,0.3,0.7,0.6,1,0.9c0.1,0.1,0.3,0.1,0.4,0c2-1.7,5.2,0.6,4.1,3c-0.1,0.1,0,0.3,0.1,0.4
		c0.4,0.2,0.8,0.5,1.2,0.7c0.1,0.1,0.3,0,0.4-0.1c1.6-2.1,5.2-0.4,4.6,2.2c0,0.1,0.1,0.3,0.2,0.3c0.4,0.2,0.8,0.3,1.3,0.5
		c0.1,0.1,0.3,0,0.4-0.2c1.2-2.4,5-1.4,5,1.2c0,0.2,0.1,0.3,0.2,0.3c0.4,0.1,0.9,0.1,1.3,0.2c0.2,0,0.3-0.1,0.3-0.2
		c0.7-2.6,4.6-2.4,5.1,0.2c0,0.1,0.2,0.3,0.3,0.2c0.4,0,0.9,0,1.4-0.1c0.2,0,0.3-0.1,0.3-0.3c0.2-2.7,4.1-3.2,5.1-0.7
		c0.1,0.1,0.2,0.2,0.3,0.2c0.4-0.1,0.9-0.2,1.3-0.3c0.1,0,0.2-0.2,0.2-0.3c-0.3-2.7,3.4-4,4.8-1.7c0.1,0.1,0.2,0.2,0.4,0.1
		c0.4-0.2,0.8-0.4,1.2-0.6c0.1-0.1,0.2-0.2,0.2-0.4c-0.9-2.5,2.5-4.6,4.4-2.6c0.1,0.1,0.3,0.1,0.4,0c0.4-0.3,0.7-0.5,1.1-0.8
		c0.1-0.1,0.2-0.3,0.1-0.4c-1.3-2.3,1.6-5,3.8-3.4c0.1,0.1,0.3,0.1,0.4,0c0.3-0.3,0.6-0.7,0.9-1c0.1-0.1,0.1-0.3,0-0.4
		c-1.7-2,0.6-5.2,3-4.1c0.1,0.1,0.3,0,0.4-0.1c0.2-0.4,0.5-0.8,0.7-1.2c0.1-0.1,0-0.3-0.1-0.4c-2.1-1.6-0.4-5.2,2.2-4.6
		c0.1,0,0.3-0.1,0.3-0.2c0.2-0.4,0.3-0.8,0.5-1.3c0.1-0.1,0-0.3-0.2-0.4c-2.4-1.2-1.4-5,1.2-5c0.2,0,0.3-0.1,0.3-0.2
		c0.1-0.4,0.1-0.9,0.2-1.3c0-0.1-0.1-0.3-0.2-0.3c-0.5-0.1-0.9-0.4-1.2-0.7c0.1,0.1,0.1,0.1,0,0c-0.1-0.1-0.1-0.1,0,0
		c-1.3-1.5-0.5-4,1.5-4.3c0.1,0,0.2-0.2,0.2-0.3C73.7,35.9,73.6,35.5,73.6,35z M37.5,11.3c7.6,0,14.4,3.2,19.2,8.4l-0.5,3.6l-28.3,0
		c-0.3-0.8-0.7-1.5-1.3-2.1c-0.6-0.7-1.3-1.2-2.1-1.5C23.7,19.2,22.9,19,22,19c-1.4,0-2.7,0.3-3.9,0.8
		C22.9,14.6,29.8,11.3,37.5,11.3z M13,36.2c-1.1-0.5-1.8-1.4-2-2.5c-0.1-0.8,0-1.4,0-1.5c0.1-0.3,0.7-2.4,2.9-3.1
		c0.7-0.2,1.4-0.3,2.2-0.2c0.2-0.4,0.4-0.9,0.6-1.3c0.6-1.1,1.3-2.3,2.1-2.9c0.9-0.8,2-1.2,3.2-1.2c0.5,0,0.9,0.2,1.2,0.5
		c0.6,0.7,0.6,1.7,0.5,3.1c-0.1,0.6-0.4,2.9-0.6,4.8c1,0.7,2,1.5,3.1,2.4l0.4-0.5l0.9,2.9l-3-0.5l0.4-0.4c-0.9-0.7-2-1.7-2-1.7
		s-0.2,2.6-0.2,2.6l-2,0c0,0,0.3-3.8,0.3-3.9c-1-0.7-2-1.2-2.9-1.5c-0.2-0.1-0.4-0.2-0.7-0.3c-0.3,1-0.5,1.9-0.7,2.8v0
		c0,0.2-0.4,1.7-1.6,2.3C14.7,36.4,14,36.6,13,36.2z M14.1,43.3c0.1-0.8,0.3-2.9,0.3-2.9h-0.8l0.2-1.4h0.9l0.1-1.2h1.3L15.8,39h0.8
		l-0.2,1.4h-0.8c0,0-0.2,2.3-0.2,2.4c-0.1,0.6,0.6,0.5,0.8,0.4c0.2-0.1,1-0.4,1.1-1.6l0.5-4.7h1.3l-0.4,3.7c0,0,1-1,2-0.9
		c0.7,0.1,1,0.7,1,1.3c0,0.7-0.8,3,0.6,2.3c0.1,0,0.1-0.1,0.1-0.1c-0.2-0.6-0.2-1.3,0.2-2c0.7-1.5,2.2-1.8,3.1-0.8
		c1.3,1.5-1.4,3.1-1.4,3.1c0.4,0.6,1.8-0.1,2.4-0.7c0,0,0.3,0.9-0.4,1.5C25.7,45,24.7,45,24.7,45c-0.7,0-1.2-0.2-1.6-0.6
		c-0.6,0.3-1.2,0.5-1.7,0.6c-0.7,0.1-1.4-0.3-1.4-1.2c-0.1-0.7,0.2-1.3,0.2-2c0-0.7-0.7-0.2-1.2,0.7c-0.5,0.9-0.7,2.4-0.7,2.4
		L16.9,45l0-0.3c-0.2,0.2-0.7,0.2-0.9,0.3c-0.3,0.1-1.3,0.1-1.6-0.2C14.2,44.4,14,44.1,14.1,43.3z M37.5,63.7
		c-10,0-18.8-5.6-23.2-13.9l10.4-0.1c0,0,0,0,0,0c0.4,0,1,0,1.8-0.2c0.2,0,0.3-0.1,0.5-0.1c0.1,0.1,0.1,0.1,0.2,0.2
		c0.4,0.4,0.8,0.8,1.3,1.2c0.5,0.3,1,0.7,1.5,0.9c0.5,0.3,1.1,0.5,1.7,0.6c0.6,0.1,1.2,0.2,1.8,0.2c0.1,0,0.3,0,0.4,0
		c0.3,0,1.2,0,2.4-0.2c0.3,0.7,0.8,1.2,1.4,1.7c0.7,0.6,1.6,1.1,2.5,1.4c0.6,0.2,1.3,0.3,1.9,0.3c1.2,0,2.3-0.3,3.3-0.9
		c0.8-0.5,1.5-1.3,2.1-2.2c0,0,0,0,0,0l11.7-0.1C54.3,59.2,46.4,63.7,37.5,63.7z M38.3,40.7l-1.8,2.5l-1.4-2.7l0.5,0
		c0.3-1.8-0.6-1.8-0.6-1.8c-0.9,0-1.8,0.4-2.5,1.2c-0.7,0.7-1.1,1.7-1.1,2.7c0,1.1,0.4,1.9,0.8,2.3c0.5,0.5,1,0.7,1.3,0.7h0.1h0
		c0.1,0,1.9,0.2,3.2-1l0.9,2.2c-1.4,0.9-3.3,1.1-4,1.1c-0.1,0-0.2,0-0.3,0c-1,0-2.1-0.5-2.9-1.4c-0.9-1-1.4-2.3-1.4-3.7
		c0-1.5,0.6-3,1.7-4.2c1.1-1.2,2.5-1.8,4.1-1.8c1.3,0,2,0.6,2.3,1.1c0.4,0.6,0.6,1.4,0.6,2.3c0,0.4-0.1,0.6-0.1,0.7L38.3,40.7z
		 M53.3,36.5h1.9l-1,8.7c0,0-0.2,0.9,1.4,0.1l0,0c0.1,0,0.1-0.1,0.2-0.1c-0.3-0.9-0.2-2,0.2-3c1-2.2,3.1-2.6,4.4-1.2
		c2.2,2.5-1.9,4.6-1.9,4.6c0.6,0.8,2.7-0.3,3.4-1.2c0,0,0.4,1.3-0.5,2.2c-0.9,0.9-2.3,0.9-2.3,0.9c-0.9,0-1.7-0.3-2.3-0.8
		c-0.8,0.4-1.8,0.8-2.9,0.8c-0.9,0-1.4-0.5-1.6-1.1c-1,0.9-2.6,1.3-3.6,1.3c-1.3,0-2-0.4-2.6-1c-0.3-0.3-0.6-1-0.7-1.4
		c-0.4,0.5-0.9,1.2-1.5,1.6c0,0.1,0,0.4,0,0.5c-0.3,2.6-1.2,3.7-2.6,3.3c-1.4-0.4-1.5-1.9-1.1-2.8c0.3-0.5,0.5-0.8,0.7-1
		c-0.2,0.1-0.5,0.2-0.9,0.2c-0.7,0-2.1-0.3-2.1-1.9l0.5-5h1.9c0,0-0.3,2.7-0.4,4c-0.1,0.9,0.9,1,1.5,0.4c1.1-1.1,1.2-4.4,1.2-4.4
		h1.9c0,0-0.2,2.1-0.4,4.1c0.3-0.3,0.8-0.9,1.4-2c0-0.1,0.1-0.1,0.1-0.2c0.7-1.2,2-2,3.4-2c0.9,0,1.4,0.5,1.7,0.8
		c0.4,0.4,0.6,0.8,0.5,1.6c0,0.5-0.1,0.8-0.1,0.9h-1.9c0.3-1.4-0.3-1.3-0.3-1.3c-0.5,0-0.9,0.2-1.3,0.6c-0.4,0.4-0.6,0.9-0.6,1.4
		c0,1,0.8,1.6,1.8,1.6c0.9,0,3.1-0.5,3.5-3.5L53.3,36.5z M61.9,34.6c-0.1,0.1-1.3,0.8-2.7-0.5c-0.7,0.6-1.5,1-2.3,1
		c-0.4,0-0.7-0.1-1.1-0.2c-0.3-0.1-0.6-0.3-0.8-0.6C54.4,35,53.5,35,53.1,35c0,0-2.5,0-2.3-2.3l0.2-2.3c0-0.6-0.8-0.4-1.1-0.1
		c0,0-1.5,0.9-1.8,4.7h-1.9l0.1-0.8C46.2,34.7,45.8,35,45,35c-1.1,0-1.2-1.3-1.1-1.5c-0.4,1.4-5.6,2.9-5.1-1.5l0.1-1.3
		c-0.2,0.2-0.5,0.3-0.8,0.4c0,0,0,0.1,0,0.1c0,2.1-1.5,3.8-3.5,3.8c-1,0-1.9-0.4-2.5-1.1C31.7,34.6,31,35.1,30,35
		c-0.8-0.1-2.2-0.5-2.1-2.1c0.1-0.6,0.4-3.4,0.4-3.4c-0.8,0.2-1.9,0-1.9,0L26,33.4L24.2,32l0.3-2.9c-0.3-0.2-0.5-0.6-0.5-1.1
		c-0.1-0.8,0.5-1.5,1.2-1.5c0.7-0.1,1.3,0.5,1.4,1.3c1.1,0.1,2.6,0.1,4-0.3L30,32.4c0,0.2,0,0.7,0.5,0.6c0.4,0,0.6-0.4,0.8-2.1
		c0.2-1.9,1.7-3.3,3.4-3.3c1.1,0,2,0.5,2.6,1.3c0.2,0.1,0.3,0.1,0.3,0.1c0.4,0.2,1.3,0,1.5-0.5s0.2-0.9,0.2-0.9h1.9l-0.4,3.6
		c-0.1,1.3,0.3,1.6,0.8,1.6c1.2,0,1.7-1.3,1.9-3.1c0.2-1.8,0.2-2.2,0.2-2.2l1.9,0l-0.5,4.2c-0.2,1.6,1.3,1.5,1.5-0.3l0.4-3.9h1.9
		l-0.1,1.4c0.3-0.3,0.5-0.6,0.9-0.8c0.4-0.3,1.2-0.6,1.8-0.6c1.1,0,1.7,0.8,1.6,1.9l-0.3,2.4c-0.1,0.9,0,1.3,0.4,1.3
		c0.6,0,1-0.8,1-1.3c0-0.6,0.2-1.3,0.5-1.9c0.7-1.5,2.1-2.4,3.4-2.4c0.4,0,0.7,0.1,1.1,0.2c0.2,0.1,0.3,0.2,0.4,0.3l0.5-3.8h1.9
		c0,0-0.8,6.9-0.9,7.6c-0.1,0.7,0.3,1.4,1.3,0.8C62.6,32.6,62.6,34,61.9,34.6z"/>
</g>
</svg>
