<?xml version="1.0" encoding="utf-8"?>
<!-- Generator: Adobe Illustrator 18.0.0, SVG Export Plug-In . SVG Version: 6.00 Build 0)  -->
<!DOCTYPE svg PUBLIC "-//W3C//DTD SVG 1.1//EN" "http://www.w3.org/Graphics/SVG/1.1/DTD/svg11.dtd">
<svg version="1.1" id="Layer_1" xmlns="http://www.w3.org/2000/svg" xmlns:xlink="http://www.w3.org/1999/xlink" x="0px" y="0px"
	 viewBox="0 0 1123.4 133.9" enable-background="new 0 0 1123.4 133.9" xml:space="preserve">
<g>
	<defs>
		<rect id="SVGID_1_" x="0" y="0" width="1123.4" height="133.9"/>
	</defs>
	<clipPath id="SVGID_2_">
		<use xlink:href="#SVGID_1_"  overflow="visible"/>
	</clipPath>
	<rect x="0" y="-10" clip-path="url(#SVGID_2_)" fill="#F4F3F2" width="1123.4" height="152.2"/>
	<path clip-path="url(#SVGID_2_)" fill="#DBDAD9" d="M0,117.5c0,0,50.1-13,71.1,3s33.4-9.5,50.4-1.5s65.6-4,78.6,6
		s23.5-13.9,34.9-13.9s23.5-12,31.5-13s24-5.3,40-22.2s66-23.8,81-16.8s18,1,22-4s18-27,23-22s10,19,16,22s32,20.8,32,20.8
		l108.1,29.2c0,0,51.9-36.6,62.9-36.3c11,0.3,22-0.7,38,14.3s14.2-8.3,27.6-7.6c13.4,0.6,51.4,7.1,67.4-6.6s27-11.7,35-19.7
		s28-38.4,38-38.4s-8,20.4,39,26.4s57,8,57,8s17-22,37-13s69,22,104,20s28.8-12,28.8-12v102.1H0V117.5z"/>
	<path clip-path="url(#SVGID_2_)" fill="#E5E5E5" d="M0,142.2V13.8c0,0,72.5,7.6,105.5,55.1s70.5,0.5,89.9,8.5s31.8,33.8,55.1,28.5
		c23.3-5.3,46.7,1.9,63,2.6s61.6-22.7,70.3-22.7c8.7,0,12-0.7,20.7,4.7s78-12.7,95.3-26s53.7-34.7,64.5-26.7
		c10.8,8,6.2,17.3,17.8,20c11.6,2.7,73,33.3,86.3,36.7s64.7,19.3,77.3,14.7c12.7-4.7,20-14,31.3-11.3c11.3,2.7,23.3-2.7,28.7-11.3
		c5.3-8.7,70.7-50.7,114-58.7c28.7-6.7,17.3,10,28.7,14.7c0,0,53,22.7,82.2,18.7c29.2-4,45.5-24,92.7-22c0,46,0,103.1,0,103.1H0z"/>
	<linearGradient id="SVGID_3_" gradientUnits="userSpaceOnUse" x1="0" y1="66.1069" x2="1123.3517" y2="66.1069">
		<stop  offset="0" style="stop-color:#FFFFFF"/>
		<stop  offset="0.1806" style="stop-color:#F8F7F7;stop-opacity:0.5723"/>
		<stop  offset="0.4222" style="stop-color:#F4F3F2;stop-opacity:0"/>
		<stop  offset="0.6232" style="stop-color:#F4F3F2;stop-opacity:0"/>
		<stop  offset="0.9039" style="stop-color:#FBFBFB;stop-opacity:0.7449"/>
		<stop  offset="1" style="stop-color:#FFFFFF"/>
	</linearGradient>
	<rect x="0" y="-10" clip-path="url(#SVGID_2_)" fill="url(#SVGID_3_)" width="1123.4" height="152.2"/>
</g>
</svg>
