<svg xmlns="http://www.w3.org/2000/svg" xmlns:xlink="http://www.w3.org/1999/xlink" version="1.1" x="0px" y="0px" viewBox="0 0 112.3 76.8" enable-background="new 0 0 112.3 76.8" xml:space="preserve">
<style>
	.style0{
		fill:	#353534;
	}
</style><g>
	<path d="M76.6 24.4l3 7.1l-0.4 0.2c-7 3.6-11.4 10.6-11.4 18.5c0 11.4 9.3 20.7 20.7 20.7 c11.4 0 20.7-9.3 20.7-20.7c0-5.5-2.2-10.7-6.1-14.6c-3.9-3.9-9.1-6.1-14.6-6.1c-0.4 0-0.8 0-1.2 0l1.5 4.4c8.9 0.2 16 7.4 16 16.2 c0 9-7.3 16.2-16.2 16.2c-9 0-16.2-7.3-16.2-16.2c0-6 3.3-11.5 8.6-14.3l0.4-0.2l5.7 13.3L87 49c-0.2 0.3-0.3 0.7-0.3 1.1 c0 1.4 1.1 2.5 2.5 2.5c1.4 0 2.5-1.1 2.5-2.5c0-1-0.6-1.9-1.5-2.3L90 47.8L82.1 27c-0.2-0.6-0.9-0.9-1.4-0.7l-0.4 0.1l-4.7-10.9 l5.7-1.8c0.4-0.1 0.7-0.4 0.9-0.8l1.4-2.8l0.2-0.1C84.8 9.9 85.5 9 85.5 8c0-1.2-1-2.2-2.2-2.2c-1.2 0-2.2 1-2.2 2.2 c0 0.2 0 0.5 0.1 0.7l0.1 0.2L80 11.3l-6.5 2.1c-0.2 0.1-0.4 0.2-0.5 0.3c-0.3 0.3-0.5 0.8-0.4 1.2c0 0.1 0 0.1 0 0.2 c0 0.1 0.1 0.2 0.1 0.2l1.2 2.9l-28.6 8.9l-0.5-1.4c0 0 0-0.1-0.1-0.1l-0.7 0.2L40.9 17l8.9-2.8c0-0.1 0-0.1 0-0.2 c0-0.6-0.3-1.1-0.7-1.2c-0.3-0.1-0.7-0.2-1.1-0.2c-1.3 0-2.9 0.1-4.7 0.2C42 12.9 40.6 13 39 13c-0.3 0-0.6 0-0.9 0 c-1.7 0-4.1-0.1-7.2-0.4l-0.2 0c-0.7 0-1.2 0.8-1.2 1.7c0 0.6 0.3 1.2 0.7 1.5l1.7 1.2c0.8 0.6 1.5 1.1 1.5 1.1 c0 0 1.3 0.9 2.9 0.9c0.8 0 1.6-0.2 2.3-0.6l0.4-0.3l3.1 8.4l-0.5 0.2c0 0-0.1 0-0.1 0.1l0.7 2.2l-0.2 0.2L23.6 47.7l-0.2 0 c-0.1 0-0.2 0-0.3 0c-1.4 0-2.5 1.1-2.5 2.5c0 1.4 1.1 2.5 2.5 2.5c0.8 0 1.5-0.4 2-1l0.1-0.2h14.1l-0.1 0.5 c-0.9 8.2-7.8 14.4-16.1 14.4c-9 0-16.2-7.3-16.2-16.2c0-9 7.3-16.2 16.2-16.2c2.3 0 4.6 0.5 6.7 1.5L33 32 c-3.1-1.7-6.5-2.6-10-2.6c-11.4 0-20.7 9.3-20.7 20.7c0 11.4 9.3 20.7 20.7 20.7c10.7 0 19.8-8.3 20.6-19l0-0.4h2.8l0.1 0.3 c0.4 1.2 1.4 2.3 2.6 2.8l0.3 0.1l-1.5 7l-1.7 0v1.9h4.4v-1.9h-1.4l1.4-6.8l0.4 0c0 0 0 0 0 0c2.7 0 4.9-2.2 4.9-4.8 c0-0.7-0.1-1.3-0.4-1.9L55.4 48L76.6 24.4z M46.4 48.8H26.2l9.2-9.2l0.3 0.4c1.1 1.4 2 2.9 2.6 4.5h4.7c-0.8-2.8-2.2-5.5-4.1-7.8 l-0.3-0.3l4.6-4.7L48 46.4l-0.2 0.2c-0.6 0.5-1 1.2-1.3 1.9L46.4 48.8z M52.8 45.6l-0.3-0.1c-0.3-0.1-0.6-0.2-1-0.2l-0.3 0 l-4.9-14.9l28.3-8.8L52.8 45.6z" class="style0"/>
</g>
</svg>
