<svg xmlns="http://www.w3.org/2000/svg" xmlns:xlink="http://www.w3.org/1999/xlink" version="1.1" x="0px" y="0px" viewBox="0 0 112.3 76.8" enable-background="new 0 0 112.3 76.8" xml:space="preserve">
<style>
	.style0{
		stroke:	#353534;
		stroke-width:	0.8618;
		stroke-miterlimit:	10;
		fill:	#353534;
	}
</style><path d="M88 29.3c-1.1 0-2.2 0.1-3.2 0.2 c0.1 0.2 0.1 0.3 0.1 0.3s0.3 1 0.7 2.4c0.8-0.1 1.6-0.2 2.4-0.2c10 0 18.2 8.1 18.2 18.2c0 10-8.1 18.2-18.2 18.2 s-18.2-8.1-18.2-18.2c0-7.2 4.2-13.4 10.2-16.3c1.8 5.4 4.1 10.6 6.4 15.3c-0.2 0.3-0.3 0.7-0.3 1.1c0 1.1 0.9 1.9 1.9 1.9 c1.1 0 1.9-0.9 1.9-1.9c0-1-0.8-1.9-1.9-1.9c-1.2-2.7-3-7.8-4.4-12.4c-0.6-2-2.8-9.4-2.8-9.4s-2.9-9.8-4.3-14.2h10.8v0 c1.7 0 3.1 1.4 3.1 3.1c0 1.7-1.4 3.1-3.1 3.1c-0.9 0-1.6 0.7-1.6 1.6s0.7 1.6 1.6 1.6c3.5 0 6.3-2.8 6.3-6.3c0-3.5-2.8-6.3-6.3-6.3 H74.5c-0.9 0-1.6 0.7-1.6 1.6c0 0.2 0 0.4 0.1 0.6l2.2 7.2H43.4l-2.8-8.9c1.8-0.9 3.7-1.4 5.6-1.4c0.6 0 1.1-0.6 1.1-1.4 c0-0.7-0.4-1.2-0.8-1.4c-0.3-0.1-0.7-0.1-1.1-0.1c-1.8 0-4.5 0.2-7.7 0.3c-1.9 0.1-4.9-0.2-7-0.3v0c0 0-0.1 0-0.1 0 c-0.8 0-1.4 0.8-1.4 1.8c0 0.7 0.3 1.3 0.7 1.6l0 0c1.2 0.9 2.7 1.9 2.7 2c0.1 0.1 2.4 2.3 5.2 0.7l2.1 7L23.8 47.7 c-0.9 0-1.9 0.5-2.4 1.3c-0.7 1.3-0.2 2.8 1 3.5c1.2 0.7 2.8 0.3 3.5-1h15.9c-0.7 9.4-8.5 16.9-18.1 16.9c-10 0-18.2-8.1-18.2-18.2 s8.1-18.2 18.2-18.2c1.9 0 3.7 0.3 5.4 0.8l1.4-2.5c-2.1-0.7-4.4-1.1-6.8-1.1c-11.6 0-21 9.4-21 21s9.4 21 21 21 c11.2 0 20.3-8.7 21-19.7h3.1c0.3 1 1 1.7 1.9 2.2L48 61h-1.6c-0.2 0-0.4 0.2-0.4 0.4v2c0 0.2 0.2 0.4 0.4 0.4h5 c0.2 0 0.4-0.2 0.4-0.4v-2c0-0.2-0.2-0.4-0.4-0.4H50l1.6-6.6c2.2 0 4-1.8 4-4c0-0.6-0.1-1.1-0.3-1.6L77 24.5l0.9 3 c0 0 0.4 1.3 1.2 3.8C71.9 34.6 67 41.9 67 50.3c0 11.6 9.4 21 21 21s21-9.4 21-21S99.6 29.3 88 29.3z M47.7 49.1H26 c0 0 0-0.1-0.1-0.1l7.7-14c3.9 2.6 6.8 6.6 7.8 11.3h2.9c-1.1-5.8-4.5-10.7-9.3-13.8l6-10.9l7.9 25.6C48.3 47.8 47.9 48.4 47.7 49.1 z M53 46.5c-0.4-0.1-0.8-0.2-1.2-0.3l-7.5-24.5h31.9L76 21.2L53 46.5z" class="style0"/>
</svg>
