<svg xmlns="http://www.w3.org/2000/svg" xmlns:xlink="http://www.w3.org/1999/xlink" version="1.1" x="0px" y="0px" viewBox="0 0 112.3 76.8" enable-background="new 0 0 112.3 76.8" xml:space="preserve">
<style>
	.style0{
		stroke:	#353534;
		stroke-width:	0.8618;
		stroke-miterlimit:	10;
		fill:	#353534;
	}
</style><path d="M14.2 65.6c0 5.4 4.4 9.8 9.8 9.8 c5.4 0 9.8-4.4 9.8-9.8c0-4-2.4-7.5-5.9-9l6.2-20.8c4-14.2 16.8-24.2 31.4-24.7v2.7C49 14.5 35.9 28 35.9 44.6 c0 17 13.8 30.8 30.8 30.8s30.8-13.8 30.8-30.8c0-16.6-13.1-30.1-29.6-30.8v-6h-0.5V6.6c0-0.7 0.4-1.1 1.1-1.1H72 c1.1 0 1.9-0.9 1.9-1.9c0-1.1-0.9-1.9-1.9-1.9h-3.7c-0.1-0.2-0.3-0.3-0.5-0.3H60c-0.3 0-0.5 0.2-0.5 0.5v1c0 0.3 0.2 0.5 0.5 0.5 h7.8c0.2 0 0.4-0.1 0.5-0.4H72c0.3 0 0.6 0.2 0.6 0.6S72.3 4.1 72 4.1h-3.5c-1.4 0-2.5 1-2.5 2.5v1.2h-0.5v0.9 c-6.1 0.2-11.9 1.9-17 4.9c-0.1-0.5-0.6-0.9-1.2-0.9h-8.2c-0.7 0-1.2 0.6-1.2 1.2c0 0.7 0.6 1.2 1.2 1.2h7 c-6.8 4.7-12 11.7-14.3 20.1l-6.1 20.8c-0.5-0.1-1.1-0.1-1.6-0.1C18.6 55.8 14.2 60.2 14.2 65.6z M65.5 16.2v26.2 c-0.1 0.1-0.2 0.1-0.3 0.2l-3.6-2.5v-1.8h-4.2v2.4h2.6l4.4 3.1c-0.1 0.3-0.1 0.5-0.1 0.8c0 1.4 1.1 2.5 2.5 2.5 c0.6 0 1.2-0.2 1.6-0.6l3.6 2.5v1.8H76v-2.4h-2.6L69 45.4c0.1-0.2 0.1-0.5 0.1-0.8c0-0.9-0.5-1.8-1.3-2.2V16.2 c7.1 0.3 13.8 3.2 18.9 8.3c5.4 5.4 8.3 12.5 8.3 20.1c0 7.6-3 14.7-8.3 20.1C81.4 70 74.3 73 66.7 73c-7.6 0-14.7-3-20.1-8.3 c-5.4-5.4-8.3-12.5-8.3-20.1c0-7.6 3-14.7 8.3-20.1C51.7 19.4 58.3 16.5 65.5 16.2z M16.4 65.6c0-4.2 3.4-7.6 7.6-7.6 c0.3 0 0.7 0 1 0.1L23.2 64c-0.6 0.3-1 0.9-1 1.6c0 1 0.8 1.8 1.8 1.8c1 0 1.8-0.8 1.8-1.8c0-0.3-0.1-0.6-0.3-0.9l1.8-5.9 c2.6 1.2 4.3 3.8 4.3 6.8c0 4.2-3.4 7.6-7.6 7.6C19.8 73.2 16.4 69.8 16.4 65.6z" class="style0"/>
</svg>
