<svg xmlns="http://www.w3.org/2000/svg" xmlns:xlink="http://www.w3.org/1999/xlink" version="1.1" x="0px" y="0px" viewBox="0 0 112.3 76.8" enable-background="new 0 0 112.3 76.8" xml:space="preserve">
<style>
	.style0{
		fill:	#353534;
	}
</style><g>
	<path d="M1.1 53c0 12.1 9.8 21.9 21.9 21.9c9 0 16.8-5.5 20.1-13.3c1.5 2.6 4.5 4 7.5 3.4l1.6 4.8 c0.2 0.6 0.8 0.9 1.4 0.7c0.6-0.2 0.9-0.8 0.7-1.4l-1.6-4.8c3.2-1.6 4.8-5.3 3.6-8.8c-0.1-0.4-0.3-0.7-0.5-1.1L74.5 32l3.2 0 l0.8 1.7C71.6 37.3 66.8 44.6 66.8 53c0 12.1 9.8 21.9 21.9 21.9c12.1 0 21.9-9.8 21.9-21.9c0-12.1-9.8-21.9-21.9-21.9 c-2.5 0-4.9 0.4-7.1 1.2l-0.3-0.7l3.8-1.3l-0.1-5.3H97c0.7 0 1.3-0.6 1.3-1.3c0-0.7-0.6-1.3-1.3-1.3H83.5c0 0 0 0-0.1 0l-0.1-0.8 h9.6c2 0 2.7-2.1 4.4-2.1h10.4c0.5 0 0.9-0.4 0.9-0.9c0-0.5-0.4-0.9-0.9-0.9l-10.4 0c-1.7 0-3.2 2.1-4.4 2.1l-7 0.1v-0.6 c0.5 0 0.9-0.4 0.9-0.9c0-0.5-0.4-0.9-0.9-0.9h-4.1c-0.5 0-0.9 0.4-0.9 0.9c0 0.5 0.4 0.9 0.9 0.9v0.6l-42.3 0.7V5.4h-4.9 l-0.2 25.7l-1.4 2.4c-3-1.5-6.4-2.4-9.9-2.4C10.9 31.1 1.1 40.9 1.1 53z M81.2 39.1l5.5 11.2c-0.6 0.6-1 1.3-1 2.2c0 1.7 1.4 3 3 3 c1.7 0 3-1.4 3-3c0-1.7-1.4-3-3-3c0 0 0 0 0 0l-4.7-11.5c1.5-0.5 3.1-0.7 4.8-0.7c8.7 0 15.8 7.1 15.8 15.8 c0 8.7-7.1 15.8-15.8 15.8c-8.7 0-15.8-7.1-15.8-15.8C72.9 47 76.2 41.8 81.2 39.1z M52.8 69.4c0-0.3 0.2-0.5 0.5-0.5 c0.3 0 0.5 0.2 0.5 0.5c0 0.3-0.2 0.5-0.5 0.5C53 69.9 52.8 69.6 52.8 69.4z M45.7 51.4c-0.3 0.2-0.6 0.4-0.9 0.6 c-0.3-7.2-4.1-13.5-9.7-17.3l0.7-1C41.4 37.7 45.3 44.1 45.7 51.4z M26 52.7c0-0.8-0.3-1.6-0.8-2.1l4.5-7.2c3 2.1 5 5.6 5 9.6 c0 0.3 0 0.6 0 0.9L26 53C26 52.9 26 52.8 26 52.7z M70.7 27.8L50.4 50.6c-0.4-0.1-0.8-0.1-1.2-0.1c-0.7-7.4-4.3-13.9-9.7-18.3 v-9.3l31.2 2V27.8z M11.3 53c0-6.5 5.2-11.7 11.7-11.7c1.7 0 3.3 0.4 4.7 1l-4.5 7.4c-0.1 0-0.1 0-0.2 0c-1.7 0-3 1.4-3 3 c0 1.7 1.4 3 3 3c1 0 1.9-0.5 2.4-1.2l8.8 1.6c-1.4 4.9-5.9 8.6-11.3 8.6C16.5 64.7 11.3 59.5 11.3 53z" class="style0"/>
	<path d="M45.8 4.1c-0.1-1.1-2-1.3-2-1.3S35 1.7 31.1 1.8c-3.9 0.2-3.5 1-2.5 2.4c1 1.4 2.5 1.8 5.3 0.8 c2.9-1 10.5-0.4 10.7-0.4C45.3 4.7 45.9 5.2 45.8 4.1z" class="style0"/>
</g>
</svg>
