<?xml version="1.0" standalone="no"?>
<!DOCTYPE svg PUBLIC "-//W3C//DTD SVG 1.1//EN" "http://www.w3.org/Graphics/SVG/1.1/DTD/svg11.dtd" >
<svg xmlns="http://www.w3.org/2000/svg" xmlns:xlink="http://www.w3.org/1999/xlink" version="1.1">
<metadata>
Created by FontForge 20141024 at Sun Apr  5 04:52:38 2015
 By System Administrator
Copyright 2006 House Industries/Brand Design Co., Inc. All Rights Reserved.
</metadata>
<defs>
<font id="UnitedSansSemiCond-Heavy" horiz-adv-x="490" >
  <font-face 
    font-family="United Sans SmCd Hv"
    font-weight="700"
    font-stretch="normal"
    units-per-em="1000"
    panose-1="0 0 0 0 0 0 0 0 0 0"
    ascent="760"
    descent="-240"
    x-height="505"
    cap-height="690"
    bbox="-47 -172 1000 877"
    underline-thickness="50"
    underline-position="-50"
    unicode-range="U+0020-FB02"
  />
<missing-glyph horiz-adv-x="637" 
d="M30 772h577v-854h-577v854zM217 337v-146h139v79l19 19h83l73 73v239l-89 89h-252l-87 -88v-119h138v69l29 29h93l29 -30v-125l-18 -19h-86zM217 132v-132h139v132h-139z" />
    <glyph glyph-name=".notdef" horiz-adv-x="637" 
d="M30 772h577v-854h-577v854zM217 337v-146h139v79l19 19h83l73 73v239l-89 89h-252l-87 -88v-119h138v69l29 29h93l29 -30v-125l-18 -19h-86zM217 132v-132h139v132h-139z" />
    <glyph glyph-name=".null" horiz-adv-x="0" 
 />
    <glyph glyph-name="nonmarkingreturn" horiz-adv-x="333" 
 />
    <glyph glyph-name="space" unicode=" " horiz-adv-x="195" 
 />
    <glyph glyph-name="exclam" unicode="!" horiz-adv-x="251" 
d="M56 192v498h139v-498h-139zM56 0v132h139v-132h-139z" />
    <glyph glyph-name="quotedbl" unicode="&#x22;" horiz-adv-x="319" 
d="M186 422v268h101v-268h-101zM32 422v268h101v-268h-101z" />
    <glyph glyph-name="numbersign" unicode="#" horiz-adv-x="476" 
d="M90 164v107h-69v92h69v128h-69v93h69v106h102v-106h91v106h103v-106h69v-93h-69v-128h69v-92h-69v-107h-103v107h-91v-107h-102zM192 363h91v128h-91v-128z" />
    <glyph glyph-name="dollar" unicode="$" horiz-adv-x="500" 
d="M122 20l-87 87v105h138v-55l28 -29h97l29 30v109l-22 22h-192l-76 75v218l89 88h63v98h124v-98h63l88 -87v-105h-139v56l-28 28h-92l-29 -29v-103l22 -23h192l76 -75v-224l-89 -88h-64v-98h-124v98h-67z" />
    <glyph glyph-name="percent" unicode="%" horiz-adv-x="694" 
d="M84 354l-65 65v207l64 64h156l64 -64v-208l-64 -64h-155zM134 428h54l19 19v153l-19 19h-54l-18 -19v-153zM454 0l-63 64v208l63 64h156l64 -65v-207l-63 -64h-157zM506 72h53l19 19v153l-19 19h-53l-19 -19v-153zM132 0l339 690h90l-339 -690h-90z" />
    <glyph glyph-name="ampersand" unicode="&#x26;" horiz-adv-x="530" 
d="M126 0l-87 87v194l72 73l-72 71v178l87 87h256l88 -88v-98h-139v52l-28 28h-96l-29 -29v-119l33 -33h312v-106h-54v-210l-87 -87h-256zM206 106h95l29 29v162h-119l-34 -34v-128z" />
    <glyph glyph-name="quotesingle" unicode="'" horiz-adv-x="164" 
d="M32 422v268h101v-268h-101z" />
    <glyph glyph-name="parenleft" unicode="(" horiz-adv-x="307" 
d="M147 -60l-92 91v627l92 91h137v-112h-58l-33 -33v-519l33 -33h58v-112h-137z" />
    <glyph glyph-name="parenright" unicode=")" horiz-adv-x="307" 
d="M252 31l-92 -91h-137v112h58l33 33v519l-33 33h-58v112h137l92 -91v-627z" />
    <glyph glyph-name="asterisk" unicode="*" horiz-adv-x="319" 
d="M114 397l-78 57l74 72l-100 18l31 91l86 -50l-19 105h103l-19 -105l87 50l31 -91l-101 -18l74 -72l-77 -57l-46 93z" />
    <glyph glyph-name="plus" unicode="+" horiz-adv-x="357" 
d="M11 293v105h113v128h109v-128h113v-105h-113v-128h-109v128h-113z" />
    <glyph glyph-name="comma" unicode="," horiz-adv-x="193" 
d="M33 -108v56h44l7 7v45h-51v146h128v-206l-49 -48h-79z" />
    <glyph glyph-name="hyphen" unicode="-" horiz-adv-x="247" 
d="M11 289v114h225v-114h-225z" />
    <glyph glyph-name="period" unicode="." horiz-adv-x="193" 
d="M32 0v145h129v-145h-129z" />
    <glyph glyph-name="slash" unicode="/" horiz-adv-x="304" 
d="M-6 -67l196 823h120l-196 -823h-120z" />
    <glyph glyph-name="zero" unicode="0" horiz-adv-x="527" 
d="M135 0l-91 91v508l91 91h257l91 -91v-508l-91 -91h-257zM215 110h96l33 33v404l-33 33h-96l-33 -33v-404z" />
    <glyph glyph-name="one" unicode="1" horiz-adv-x="408" 
d="M36 0v111h106v468h-106v111h244v-579h104v-111h-348z" />
    <glyph glyph-name="two" unicode="2" horiz-adv-x="481" 
d="M38 0v307l76 76h177l22 22v153l-23 22h-89l-23 -22v-75h-138v119l87 88h236l89 -89v-260l-76 -76h-177l-22 -22v-127h274v-116h-413z" />
    <glyph glyph-name="three" unicode="3" horiz-adv-x="506" 
d="M119 0l-88 88v123h139v-76l29 -29h100l29 29v128l-33 34h-180v111h180l33 33v112l-29 29h-100l-29 -29v-73h-139v122l88 88h260l88 -87v-177l-72 -72l72 -73v-194l-87 -87h-261z" />
    <glyph glyph-name="four" unicode="4" horiz-adv-x="508" 
d="M302 0v182h-288v90l97 418h123l-78 -393h146v393h138v-393h51v-115h-51v-182h-138z" />
    <glyph glyph-name="five" unicode="5" horiz-adv-x="491" 
d="M126 0l-88 88v122h139v-73l28 -28h87l29 29v189l-22 23h-88l-44 -44h-129v384h413v-115h-274v-165l49 49h152l82 -82v-288l-89 -89h-245z" />
    <glyph glyph-name="six" unicode="6" horiz-adv-x="522" 
d="M133 0l-89 90v510l89 90h263l88 -88v-110h-138v60l-29 29h-102l-33 -32v-167l49 49h168l85 -85v-256l-89 -90h-262zM213 109h102l31 31v156l-27 26h-104l-33 -33v-149z" />
    <glyph glyph-name="seven" unicode="7" horiz-adv-x="434" 
d="M130 0v254l136 316h-255v120h410v-92l-152 -350v-248h-139z" />
    <glyph glyph-name="eight" unicode="8" horiz-adv-x="525" 
d="M126 0l-87 87v195l72 72l-72 72v177l87 87h272l88 -87v-177l-72 -72l72 -72v-195l-87 -87h-273zM207 105h111l29 30v132l-34 34h-102l-34 -34v-132zM211 406h103l33 33v116l-30 30h-110l-29 -30v-116z" />
    <glyph glyph-name="nine" unicode="9" horiz-adv-x="520" 
d="M125 0l-87 88v116h138v-66l29 -29h101l32 32v176l-49 -49h-167l-85 85v247l90 90h260l90 -90v-510l-90 -90h-262zM202 377h103l33 33v140l-31 31h-100l-31 -31v-147z" />
    <glyph glyph-name="colon" unicode=":" horiz-adv-x="206" 
d="M39 0v145h128v-145h-128zM39 283v145h128v-145h-128z" />
    <glyph glyph-name="semicolon" unicode=";" horiz-adv-x="206" 
d="M39 -108v56h44l8 7v45h-52v146h128v-206l-48 -48h-80zM39 282v146h128v-146h-128z" />
    <glyph glyph-name="less" unicode="&#x3c;" horiz-adv-x="382" 
d="M347 132l-330 149v128l330 149v-120l-222 -93l222 -93v-120z" />
    <glyph glyph-name="equal" unicode="=" horiz-adv-x="343" 
d="M27 378v108h289v-108h-289zM27 198v109h289v-109h-289z" />
    <glyph glyph-name="greater" unicode="&#x3e;" horiz-adv-x="382" 
d="M365 281l-330 -149v120l222 93l-222 93v120l330 -149v-128z" />
    <glyph glyph-name="question" unicode="?" horiz-adv-x="471" 
d="M133 191v146l71 70h86l18 19v125l-29 30h-93l-29 -29v-69h-138v119l87 88h252l89 -89v-239l-73 -73h-83l-19 -19v-79h-139zM133 0v132h139v-132h-139z" />
    <glyph glyph-name="at" unicode="@" horiz-adv-x="835" 
d="M172 -152l-130 130v553l130 130h491l130 -130v-441l-89 -90h-196l-6 68l-68 -68h-141l-79 79v143l79 80h182v94l-22 22h-76l-19 -18v-47h-133v74l78 78h220l83 -83v-337h40l28 28v380l-72 72h-367l-73 -72v-476l73 -72h387v-97h-450zM366 92h66l43 43v92h-109l-21 -21
v-94z" />
    <glyph glyph-name="A" unicode="A" horiz-adv-x="496" 
d="M7 0l139 690h204l139 -690h-137l-28 158h-160l-28 -158h-129zM244 613l-61 -345h122z" />
    <glyph glyph-name="B" unicode="B" horiz-adv-x="526" 
d="M52 0v690h348l87 -87v-177l-72 -72l72 -72v-195l-87 -87h-348zM190 106h129l29 29v133l-33 33h-125v-195zM190 406h125l33 33v116l-30 30h-128v-179z" />
    <glyph glyph-name="C" unicode="C" horiz-adv-x="503" 
d="M135 0l-91 91v508l91 91h245l90 -91v-139h-138v88l-32 32h-85l-33 -33v-407l33 -33h85l32 32v93h138v-141l-90 -91h-245z" />
    <glyph glyph-name="D" unicode="D" horiz-adv-x="528" 
d="M50 0v690h343l91 -91v-508l-91 -91h-343zM189 110h123l33 33v404l-33 33h-123v-470z" />
    <glyph glyph-name="E" unicode="E" horiz-adv-x="449" 
d="M50 0v690h365v-115h-226v-167h205v-115h-205v-178h228v-115h-367z" />
    <glyph glyph-name="F" unicode="F" horiz-adv-x="423" 
d="M50 0v690h356v-115h-217v-183h197v-114h-197v-278h-139z" />
    <glyph glyph-name="G" unicode="G" horiz-adv-x="520" 
d="M135 0l-91 91v508l91 91h257l88 -88v-120h-139v70l-28 28h-98l-33 -33v-408l33 -33h98l29 30v127h-96v111h235v-284l-90 -90h-256z" />
    <glyph glyph-name="H" unicode="H" horiz-adv-x="537" 
d="M50 0v690h139v-287h159v287h138v-690h-138v272h-159v-272h-139z" />
    <glyph glyph-name="I" unicode="I" horiz-adv-x="375" 
d="M25 0v102h93v486h-93v102h325v-102h-93v-486h93v-102h-325z" />
    <glyph glyph-name="J" unicode="J" horiz-adv-x="349" 
d="M15 0v114h115l33 33v543h139v-599l-91 -91h-196z" />
    <glyph glyph-name="K" unicode="K" horiz-adv-x="524" 
d="M362 0l-95 289l-78 -153v-136h-139v690h139v-361l167 361h146l-141 -286l148 -404h-147z" />
    <glyph glyph-name="L" unicode="L" horiz-adv-x="402" 
d="M50 0v690h139v-573h195v-117h-334z" />
    <glyph glyph-name="M" unicode="M" horiz-adv-x="739" 
d="M51 0v690h209l109 -555l109 555h211v-690h-131v581l-121 -581h-150l-121 581v-581h-115z" />
    <glyph glyph-name="N" unicode="N" horiz-adv-x="539" 
d="M51 0v690h127l188 -428v428h123v-690h-129l-186 434v-434h-123z" />
    <glyph glyph-name="O" unicode="O" horiz-adv-x="527" 
d="M135 0l-91 91v508l91 91h257l91 -91v-508l-91 -91h-257zM215 110h96l33 33v404l-33 33h-96l-33 -33v-404z" />
    <glyph glyph-name="P" unicode="P" horiz-adv-x="505" 
d="M50 0v690h343l90 -91v-261l-90 -91h-204v-247h-139zM189 351h125l30 31v173l-30 31h-125v-235z" />
    <glyph glyph-name="Q" unicode="Q" horiz-adv-x="527" 
d="M369 -156l-93 94v62h-141l-91 91v508l91 91h257l91 -91v-508l-91 -91v-14l59 -60zM215 110h96l33 33v404l-33 33h-96l-33 -33v-404z" />
    <glyph glyph-name="R" unicode="R" horiz-adv-x="523" 
d="M50 0v690h352l88 -89v-231l-75 -75l86 -295h-142l-76 277h-94v-277h-139zM189 380h131l32 32v144l-31 31h-132v-207z" />
    <glyph glyph-name="S" unicode="S" horiz-adv-x="500" 
d="M122 0l-88 88v118h139v-68l29 -29h96l29 29v128l-22 23h-192l-76 75v237l89 89h250l88 -88v-118h-139v68l-29 29h-91l-29 -29v-123l22 -22h192l75 -76v-242l-89 -89h-254z" />
    <glyph glyph-name="T" unicode="T" horiz-adv-x="453" 
d="M157 0v570h-146v120h430v-120h-145v-570h-139z" />
    <glyph glyph-name="U" unicode="U" horiz-adv-x="522" 
d="M138 0l-91 91v599h139v-544l33 -33h85l33 33v544h139v-599l-92 -91h-246z" />
    <glyph glyph-name="V" unicode="V" horiz-adv-x="474" 
d="M136 0l-128 690h140l94 -585l94 585h129l-126 -690h-203z" />
    <glyph glyph-name="W" unicode="W" horiz-adv-x="718" 
d="M104 0l-97 690h131l59 -553l79 553h180l80 -553l59 553h115l-96 -690h-172l-82 556l-81 -556h-175z" />
    <glyph glyph-name="X" unicode="X" horiz-adv-x="499" 
d="M13 0l127 354l-120 336h148l83 -276l87 276h141l-125 -336l133 -354h-149l-92 281l-90 -281h-143z" />
    <glyph glyph-name="Y" unicode="Y" horiz-adv-x="492" 
d="M177 0v211l-170 479h148l95 -324l101 324h135l-171 -479v-211h-138z" />
    <glyph glyph-name="Z" unicode="Z" horiz-adv-x="430" 
d="M23 0v95l224 475h-220v120h376v-95l-224 -475h227v-120h-383z" />
    <glyph glyph-name="bracketleft" unicode="[" horiz-adv-x="308" 
d="M60 -60v809h225v-112h-87v-585h87v-112h-225z" />
    <glyph glyph-name="backslash" unicode="\" horiz-adv-x="304" 
d="M114 756l196 -823h-120l-196 823h120z" />
    <glyph glyph-name="bracketright" unicode="]" horiz-adv-x="308" 
d="M248 749v-809h-225v112h87v585h-87v112h225z" />
    <glyph glyph-name="asciicircum" unicode="^" horiz-adv-x="403" 
d="M11 355l115 335h150l116 -335h-116l-75 256l-75 -256h-115z" />
    <glyph glyph-name="underscore" unicode="_" horiz-adv-x="419" 
d="M-6 -122v91h430v-91h-430z" />
    <glyph glyph-name="grave" unicode="`" horiz-adv-x="259" 
d="M131 543l-73 73v60h70l74 -73v-60h-71z" />
    <glyph glyph-name="a" unicode="a" horiz-adv-x="467" 
d="M110 0l-79 79v143l79 80h182v94l-22 22h-76l-19 -18v-47h-133v74l78 78h221l83 -83v-422h-98l-6 68l-69 -68h-141zM183 92h66l43 43v92h-108l-21 -21v-94z" />
    <glyph glyph-name="b" unicode="b" horiz-adv-x="483" 
d="M46 0v690h132v-243l58 58h125l83 -83v-339l-83 -83h-142l-69 69l-6 -69h-98zM224 92h64l24 25v268l-24 25h-55l-55 -55v-216z" />
    <glyph glyph-name="c" unicode="c" horiz-adv-x="446" 
d="M121 0l-84 83v339l84 83h219l80 -80v-96h-134v64l-21 22h-72l-24 -24v-277l24 -24h72l21 22v65h134v-96l-81 -81h-218z" />
    <glyph glyph-name="d" unicode="d" horiz-adv-x="483" 
d="M121 0l-83 83v339l83 83h126l58 -58v243h132v-690h-98l-7 69l-68 -69h-143zM195 92h63l47 47v216l-55 55h-55l-25 -25v-268z" />
    <glyph glyph-name="e" unicode="e" horiz-adv-x="462" 
d="M121 0l-84 83v339l84 83h222l83 -83v-201h-258v-110l23 -24h85l19 19v51h131v-79l-77 -78h-228zM168 302h128v94l-23 23h-82l-23 -23v-94z" />
    <glyph glyph-name="f" unicode="f" horiz-adv-x="323" 
d="M72 0v405h-56v100h56v109l76 76h169v-98h-92l-21 -22v-65h105v-100h-105v-405h-132z" />
    <glyph glyph-name="g" unicode="g" horiz-adv-x="480" 
d="M121 -172l-77 77v68h128v-38l20 -19h86l27 26v135l-58 -58h-126l-83 83v320l83 83h141l70 -70l7 70h98v-594l-83 -83h-233zM195 112h57l53 53v200l-48 48h-62l-25 -25v-252z" />
    <glyph glyph-name="h" unicode="h" horiz-adv-x="474" 
d="M46 0v690h132v-243l58 58h112l83 -83v-422h-132v375l-24 24h-45l-52 -53v-346h-132z" />
    <glyph glyph-name="i" unicode="i" horiz-adv-x="234" 
d="M183 0h-132v505h132v-505zM51 564v121h132v-121h-132z" />
    <glyph glyph-name="j" unicode="j" horiz-adv-x="233" 
d="M-46 -172v103h77l19 19v555h132v-595l-83 -82h-145zM50 564v121h132v-121h-132z" />
    <glyph glyph-name="k" unicode="k" horiz-adv-x="473" 
d="M317 0l-76 213l-65 -105v-108h-131v690h131v-423l131 238h142l-117 -190l127 -315h-142z" />
    <glyph glyph-name="l" unicode="l" horiz-adv-x="234" 
d="M183 0h-132v690h132v-690z" />
    <glyph glyph-name="m" unicode="m" horiz-adv-x="715" 
d="M46 0v505h98l7 -72l72 72h118l63 -62l62 62h124l83 -83v-422h-132v375l-24 24h-42l-50 -49v-350h-132v375l-24 24h-38l-53 -53v-346h-132z" />
    <glyph glyph-name="n" unicode="n" horiz-adv-x="474" 
d="M46 0v505h98l7 -72l72 72h125l83 -83v-422h-132v375l-24 24h-44l-53 -53v-346h-132z" />
    <glyph glyph-name="o" unicode="o" horiz-adv-x="472" 
d="M121 0l-83 83v339l83 83h230l83 -83v-339l-83 -83h-230zM195 89h83l24 25v277l-24 25h-83l-25 -25v-277z" />
    <glyph glyph-name="p" unicode="p" horiz-adv-x="483" 
d="M46 -172v677h98l6 -69l70 69h141l83 -83v-339l-83 -83h-135l-48 49v-221h-132zM224 95h64l24 25v268l-24 25h-62l-48 -48v-224z" />
    <glyph glyph-name="q" unicode="q" horiz-adv-x="483" 
d="M305 -172v227l-55 -55h-129l-83 83v339l83 83h141l70 -69l7 69h98v-677h-132zM195 95h58l52 52v218l-48 48h-62l-25 -25v-268z" />
    <glyph glyph-name="r" unicode="r" horiz-adv-x="332" 
d="M46 0v505h98l7 -73l74 73h88v-118h-83l-52 -53v-334h-132z" />
    <glyph glyph-name="s" unicode="s" horiz-adv-x="447" 
d="M108 0l-77 77v74h130v-44l17 -18h87l18 19v84l-14 14h-171l-62 62v157l80 80h219l77 -76v-73h-130v43l-17 17h-78l-19 -18v-84l14 -14h171l62 -62v-158l-79 -80h-228z" />
    <glyph glyph-name="t" unicode="t" horiz-adv-x="348" 
d="M157 0l-83 83v322h-60v100h60v130h132v-130h114v-100h-114v-275l23 -23h91v-107h-163z" />
    <glyph glyph-name="u" unicode="u" horiz-adv-x="474" 
d="M125 0l-83 83v422h132v-375l25 -24h44l53 53v346h132v-505h-98l-7 73l-73 -73h-125z" />
    <glyph glyph-name="v" unicode="v" horiz-adv-x="421" 
d="M120 0l-116 505h134l76 -422l77 422h127l-117 -505h-181z" />
    <glyph glyph-name="w" unicode="w" horiz-adv-x="669" 
d="M84 0l-76 505h127l50 -417l71 417h174l71 -417l50 417h110l-76 -505h-179l-69 408l-71 -408h-182z" />
    <glyph glyph-name="x" unicode="x" horiz-adv-x="445" 
d="M295 0l-75 188l-74 -188h-137l118 254l-112 251h145l67 -187l70 187h132l-111 -242l118 -263h-141z" />
    <glyph glyph-name="y" unicode="y" horiz-adv-x="422" 
d="M120 0l-116 505h134l77 -417l76 417h127l-140 -609l-68 -68h-180v103h126l20 19l12 50h-68z" />
    <glyph glyph-name="z" unicode="z" horiz-adv-x="385" 
d="M19 0v79l191 322h-185v104h336v-79l-190 -322h194v-104h-346z" />
    <glyph glyph-name="braceleft" unicode="{" horiz-adv-x="314" 
d="M158 -60l-91 91v238l-24 23h-45v119h44l25 24v223l91 91h133v-112h-53l-33 -33v-194l-57 -57l57 -57v-211l33 -33h53v-112h-133z" />
    <glyph glyph-name="bar" unicode="|" horiz-adv-x="273" 
d="M73 -67v823h127v-823h-127z" />
    <glyph glyph-name="braceright" unicode="}" horiz-adv-x="314" 
d="M247 31l-91 -91h-133v112h53l33 33v211l57 57l-57 57v194l-33 33h-53v112h133l91 -91v-223l25 -24h44v-119h-45l-24 -23v-238z" />
    <glyph glyph-name="asciitilde" unicode="~" horiz-adv-x="406" 
d="M15 523v103l64 64h104l82 -82h16l16 16v66h94v-103l-64 -64h-104l-82 82h-16l-16 -16v-66h-94z" />
    <glyph glyph-name="exclamdown" unicode="&#xa1;" horiz-adv-x="251" 
d="M195 498v-498h-139v498h139zM195 690v-132h-139v132h139z" />
    <glyph glyph-name="cent" unicode="&#xa2;" horiz-adv-x="500" 
d="M132 72l-92 91v364l92 92h62v83h124v-83h62l91 -91v-119h-139v69l-31 31h-90l-32 -32v-267l32 -32h90l31 32v73h139v-121l-91 -90h-62v-84h-124v84h-62z" />
    <glyph glyph-name="sterling" unicode="&#xa3;" horiz-adv-x="505" 
d="M29 0v109l46 46v121h-48v115h48v208l91 91h226l90 -91v-129h-138v81l-29 29h-72l-30 -30v-159h167v-115h-167v-121l-38 -38h307v-117h-453z" />
    <glyph glyph-name="yen" unicode="&#xa5;" horiz-adv-x="492" 
d="M35 229v74h109l-137 387h149l94 -322l100 322h135l-138 -387h110v-74h-136l-6 -17v-24h142v-75h-142v-113h-138v113h-142v75h142v24l-6 17h-136z" />
    <glyph glyph-name="section" unicode="&#xa7;" horiz-adv-x="504" 
d="M124 -104l-88 87v115h139v-65l29 -28h96l29 28v129h-242l-47 47v52h428v-276l-89 -89h-255zM40 326v275l89 89h250l87 -87v-115h-138v64l-29 29h-92l-29 -29v-127h242l47 -48v-51h-427z" />
    <glyph glyph-name="dieresis" unicode="&#xa8;" horiz-adv-x="365" 
d="M211 558v98h97v-98h-97zM58 558v98h96v-98h-96z" />
    <glyph glyph-name="copyright" unicode="&#xa9;" horiz-adv-x="718" 
d="M265 145l-55 55v291l55 55h187l55 -55v-96h-104v59l-14 14h-61l-15 -15v-215l15 -15h61l14 14v59h104v-96l-55 -55h-187zM153 0l-109 109v472l109 109h411l110 -109v-472l-110 -109h-411zM205 88h307l57 57v400l-57 57h-307l-57 -57v-400z" />
    <glyph glyph-name="ordfeminine" unicode="&#xaa;" horiz-adv-x="341" 
d="M86 344l-59 59v95l59 58h132v48l-16 16h-57l-14 -14v-14h-97v42l57 56h164l58 -59v-287h-71l-7 46l-46 -46h-103zM139 414h55l23 24v56h-78l-16 -15v-49z" />
    <glyph glyph-name="guillemotleft" unicode="&#xab;" horiz-adv-x="401" 
d="M109 142l-99 204l99 205h108l-99 -205l99 -204h-108zM271 142l-99 204l99 205h109l-100 -205l100 -204h-109z" />
    <glyph glyph-name="registered" unicode="&#xae;" horiz-adv-x="389" 
d="M118 375v228h121l34 -34v-72l-27 -27l32 -95h-48l-27 83h-38v-83h-47zM86 287l-65 65v273l65 65h217l65 -65v-273l-65 -65h-217zM107 333h175l36 36v240l-36 36h-175l-36 -36v-240zM165 498h49l12 12v41l-11 11h-50v-64z" />
    <glyph glyph-name="macron" unicode="&#xaf;" horiz-adv-x="332" 
d="M58 566v82h217v-82h-217z" />
    <glyph glyph-name="degree" unicode="&#xb0;" horiz-adv-x="285" 
d="M72 438l-48 48v155l48 49h141l48 -49v-155l-48 -48h-141zM110 499h64l15 15v100l-15 15h-64l-15 -15v-100z" />
    <glyph glyph-name="twosuperior" unicode="&#xb2;" horiz-adv-x="341" 
d="M29 325v156l50 50h124l11 12v59l-15 14h-55l-15 -15v-30h-99v63l56 56h171l56 -56v-126l-50 -50h-123l-12 -12v-43h184v-78h-283z" />
    <glyph glyph-name="threesuperior" unicode="&#xb3;" horiz-adv-x="340" 
d="M79 325l-57 56v57h100v-27l14 -15h63l16 16v50l-12 13h-113v69h112l12 12v48l-14 15h-64l-14 -15v-27h-99v57l56 56h178l56 -56v-85l-40 -39l40 -41v-88l-56 -56h-178z" />
    <glyph glyph-name="acute" unicode="&#xb4;" horiz-adv-x="259" 
d="M58 543v60l73 73h71v-60l-74 -73h-70z" />
    <glyph glyph-name="paragraph" unicode="&#xb6;" horiz-adv-x="701" 
d="M195 217h109v369h-109l-31 -31v-307zM512 586h-70v-690h-138v217h-188l-91 91v395l91 91h535v-794h-139v690z" />
    <glyph glyph-name="periodcentered" unicode="&#xb7;" horiz-adv-x="206" 
d="M39 283v145h128v-145h-128z" />
    <glyph glyph-name="cedilla" unicode="&#xb8;" horiz-adv-x="289" 
d="M58 -171v53h91l6 7v23l-6 6h-44l-21 20v62h69v-35h45l34 -34v-68l-34 -34h-140z" />
    <glyph glyph-name="onesuperior" unicode="&#xb9;" horiz-adv-x="282" 
d="M21 325v78h75v209h-72v78h171v-287h73v-78h-247z" />
    <glyph glyph-name="ordmasculine" unicode="&#xba;" horiz-adv-x="341" 
d="M86 344l-59 59v228l59 59h169l58 -59v-228l-58 -59h-169zM143 418h54l20 19v160l-20 19h-54l-20 -19v-160z" />
    <glyph glyph-name="guillemotright" unicode="&#xbb;" horiz-adv-x="401" 
d="M391 346l-99 -204h-108l99 204l-99 205h108zM229 346l-99 -204h-109l100 204l-100 205h109z" />
    <glyph glyph-name="onequarter" unicode="&#xbc;" horiz-adv-x="761" 
d="M21 325v78h75v209h-72v78h171v-287h73v-78h-247zM154 0l339 690h91l-340 -690h-90zM616 1v85h-189v54l60 226h89l-46 -205h86v205h98v-205h30v-75h-30v-85h-98z" />
    <glyph glyph-name="onehalf" unicode="&#xbd;" horiz-adv-x="755" 
d="M21 325v78h75v209h-72v78h171v-287h73v-78h-247zM154 0l339 690h91l-340 -690h-90zM443 1v156l50 50h124l11 12v59l-15 14h-55l-15 -15v-30h-99v63l56 56h171l56 -56v-126l-50 -50h-123l-12 -12v-43h184v-78h-283z" />
    <glyph glyph-name="threequarters" unicode="&#xbe;" horiz-adv-x="786" 
d="M79 325l-57 56v57h100v-27l14 -15h63l16 16v50l-12 13h-113v69h112l12 12v48l-14 15h-64l-14 -15v-27h-99v57l56 56h178l56 -56v-85l-40 -39l40 -41v-88l-56 -56h-178zM178 0l339 690h91l-340 -690h-90zM640 1v85h-189v54l60 226h89l-46 -205h86v205h98v-205h30v-75h-30
v-85h-98z" />
    <glyph glyph-name="questiondown" unicode="&#xbf;" horiz-adv-x="471" 
d="M338 499v-146l-71 -70h-86l-18 -19v-125l29 -30h93l29 29v69h138v-119l-87 -88h-252l-89 89v239l73 73h83l19 19v79h139zM338 690v-132h-139v132h139z" />
    <glyph glyph-name="Agrave" unicode="&#xc0;" horiz-adv-x="502" 
d="M7 0l139 690h204l139 -690h-137l-28 158h-160l-28 -158h-129zM244 613l-61 -345h122zM234 735l-73 73v60h70l74 -73v-60h-71z" />
    <glyph glyph-name="Aacute" unicode="&#xc1;" horiz-adv-x="502" 
d="M7 0l139 690h204l139 -690h-137l-28 158h-160l-28 -158h-129zM244 613l-61 -345h122zM197 735v60l73 73h71v-60l-74 -73h-70z" />
    <glyph glyph-name="Acircumflex" unicode="&#xc2;" horiz-adv-x="502" 
d="M7 0l139 690h204l139 -690h-137l-28 158h-160l-28 -158h-129zM244 613l-61 -345h122zM124 739v54l70 70h113l70 -70v-54h-60l-63 64h-6l-64 -64h-60z" />
    <glyph glyph-name="Atilde" unicode="&#xc3;" horiz-adv-x="502" 
d="M7 0l139 690h204l139 -690h-137l-28 158h-160l-28 -158h-129zM244 613l-61 -345h122zM119 742v72l42 43h78l50 -50h14l7 8v42h72v-72l-43 -43h-78l-50 49h-13l-8 -7v-42h-71z" />
    <glyph glyph-name="Adieresis" unicode="&#xc4;" horiz-adv-x="502" 
d="M7 0l139 690h204l139 -690h-137l-28 158h-160l-28 -158h-129zM244 613l-61 -345h122zM279 750v98h97v-98h-97zM126 750v98h96v-98h-96z" />
    <glyph glyph-name="Aring" unicode="&#xc5;" horiz-adv-x="502" 
d="M7 0l139 690h204l139 -690h-137l-28 158h-160l-28 -158h-129zM244 613l-61 -345h122zM194 725l-36 36v79l36 37h114l36 -36v-80l-36 -36h-114zM224 767h53l11 11v46l-11 10h-53l-11 -10v-46z" />
    <glyph glyph-name="AE" unicode="&#xc6;" horiz-adv-x="687" 
d="M7 0l139 690h507v-115h-280l33 -167h227v-114h-204l36 -179h190v-115h-303l-28 158h-160l-28 -158h-129zM244 613l-61 -345h122z" />
    <glyph glyph-name="Ccedilla" unicode="&#xc7;" horiz-adv-x="503" 
d="M135 0l-91 91v508l91 91h245l90 -91v-139h-138v88l-32 32h-85l-33 -33v-407l33 -33h85l32 32v93h138v-141l-90 -91h-90v-35h45l34 -34v-68l-34 -34h-140v53h91l6 7v23l-6 6h-44l-21 20v62h-86z" />
    <glyph glyph-name="Egrave" unicode="&#xc8;" horiz-adv-x="449" 
d="M50 0v690h365v-115h-226v-167h205v-115h-205v-178h228v-115h-367zM216 735l-73 73v60h70l74 -73v-60h-71z" />
    <glyph glyph-name="Eacute" unicode="&#xc9;" horiz-adv-x="449" 
d="M50 0v690h365v-115h-226v-167h205v-115h-205v-178h228v-115h-367zM180 735v60l73 73h71v-60l-74 -73h-70z" />
    <glyph glyph-name="Ecircumflex" unicode="&#xca;" horiz-adv-x="449" 
d="M106 739v54l70 70h113l70 -70v-54h-60l-63 64h-6l-64 -64h-60zM50 0v690h365v-115h-226v-167h205v-115h-205v-178h228v-115h-367z" />
    <glyph glyph-name="Edieresis" unicode="&#xcb;" horiz-adv-x="449" 
d="M262 750v98h97v-98h-97zM109 750v98h96v-98h-96zM50 0v690h365v-115h-226v-167h205v-115h-205v-178h228v-115h-367z" />
    <glyph glyph-name="Igrave" unicode="&#xcc;" horiz-adv-x="375" 
d="M25 0v102h93v486h-93v102h325v-102h-93v-486h93v-102h-325zM171 735l-73 73v60h70l74 -73v-60h-71z" />
    <glyph glyph-name="Iacute" unicode="&#xcd;" horiz-adv-x="375" 
d="M25 0v102h93v486h-93v102h325v-102h-93v-486h93v-102h-325zM134 735v60l73 73h71v-60l-74 -73h-70z" />
    <glyph glyph-name="Icircumflex" unicode="&#xce;" horiz-adv-x="375" 
d="M25 0v102h93v486h-93v102h325v-102h-93v-486h93v-102h-325zM61 739v54l70 70h113l70 -70v-54h-60l-63 64h-6l-64 -64h-60z" />
    <glyph glyph-name="Idieresis" unicode="&#xcf;" horiz-adv-x="375" 
d="M25 0v102h93v486h-93v102h325v-102h-93v-486h93v-102h-325zM216 750v98h97v-98h-97zM63 750v98h96v-98h-96z" />
    <glyph glyph-name="Eth" unicode="&#xd0;" horiz-adv-x="537" 
d="M14 287v115h46v288h342l91 -91v-508l-91 -91h-342v287h-46zM198 110h124l33 33v404l-33 33h-124v-178h73v-115h-73v-177z" />
    <glyph glyph-name="Ntilde" unicode="&#xd1;" horiz-adv-x="538" 
d="M51 0v690h127l188 -428v428h123v-690h-129l-186 434v-434h-123zM137 742v72l42 43h78l50 -50h14l7 8v42h72v-72l-43 -43h-78l-50 49h-13l-8 -7v-42h-71z" />
    <glyph glyph-name="Ograve" unicode="&#xd2;" horiz-adv-x="527" 
d="M135 0l-91 91v508l91 91h257l91 -91v-508l-91 -91h-257zM215 110h96l33 33v404l-33 33h-96l-33 -33v-404zM246 735l-73 73v60h70l74 -73v-60h-71z" />
    <glyph glyph-name="Oacute" unicode="&#xd3;" horiz-adv-x="527" 
d="M210 735v60l73 73h71v-60l-74 -73h-70zM135 0l-91 91v508l91 91h257l91 -91v-508l-91 -91h-257zM215 110h96l33 33v404l-33 33h-96l-33 -33v-404z" />
    <glyph glyph-name="Ocircumflex" unicode="&#xd4;" horiz-adv-x="527" 
d="M136 739v54l70 70h113l70 -70v-54h-60l-63 64h-6l-64 -64h-60zM135 0l-91 91v508l91 91h257l91 -91v-508l-91 -91h-257zM215 110h96l33 33v404l-33 33h-96l-33 -33v-404z" />
    <glyph glyph-name="Otilde" unicode="&#xd5;" horiz-adv-x="527" 
d="M135 0l-91 91v508l91 91h257l91 -91v-508l-91 -91h-257zM215 110h96l33 33v404l-33 33h-96l-33 -33v-404zM132 742v72l42 43h78l50 -50h14l7 8v42h72v-72l-43 -43h-78l-50 49h-13l-8 -7v-42h-71z" />
    <glyph glyph-name="Odieresis" unicode="&#xd6;" horiz-adv-x="527" 
d="M291 750v98h97v-98h-97zM138 750v98h96v-98h-96zM135 0l-91 91v508l91 91h257l91 -91v-508l-91 -91h-257zM215 110h96l33 33v404l-33 33h-96l-33 -33v-404z" />
    <glyph glyph-name="multiply" unicode="&#xd7;" horiz-adv-x="377" 
d="M90 172l-74 74l99 99l-99 99l74 73l98 -99l99 99l74 -73l-99 -99l99 -99l-73 -74l-100 99z" />
    <glyph glyph-name="Oslash" unicode="&#xd8;" horiz-adv-x="527" 
d="M135 0l-91 91v508l91 91h257l91 -91v-508l-91 -91h-257zM177 145l131 441h-100l-33 -33v-406zM318 104l33 33v406l-2 2l-130 -441h99z" />
    <glyph glyph-name="Ugrave" unicode="&#xd9;" horiz-adv-x="522" 
d="M138 0l-91 91v599h139v-544l33 -33h85l33 33v544h139v-599l-92 -91h-246zM244 735l-73 73v60h70l74 -73v-60h-71z" />
    <glyph glyph-name="Uacute" unicode="&#xda;" horiz-adv-x="522" 
d="M208 735v60l73 73h71v-60l-74 -73h-70zM138 0l-91 91v599h139v-544l33 -33h85l33 33v544h139v-599l-92 -91h-246z" />
    <glyph glyph-name="Ucircumflex" unicode="&#xdb;" horiz-adv-x="522" 
d="M134 739v54l70 70h113l70 -70v-54h-60l-63 64h-6l-64 -64h-60zM138 0l-91 91v599h139v-544l33 -33h85l33 33v544h139v-599l-92 -91h-246z" />
    <glyph glyph-name="Udieresis" unicode="&#xdc;" horiz-adv-x="522" 
d="M290 750v98h97v-98h-97zM137 750v98h96v-98h-96zM138 0l-91 91v599h139v-544l33 -33h85l33 33v544h139v-599l-92 -91h-246z" />
    <glyph glyph-name="Yacute" unicode="&#xdd;" horiz-adv-x="492" 
d="M177 0v211l-170 479h148l95 -324l101 324h135l-171 -479v-211h-138zM192 735v60l73 73h71v-60l-74 -73h-70z" />
    <glyph glyph-name="Thorn" unicode="&#xde;" horiz-adv-x="511" 
d="M50 0v690h139v-114h207l90 -90v-260l-90 -90h-207v-136h-139zM189 239h129l29 30v174l-29 30h-129v-234z" />
    <glyph glyph-name="germandbls" unicode="&#xdf;" horiz-adv-x="506" 
d="M46 0v607l83 83h260l83 -83v-190l-57 -57l57 -57v-220l-83 -83h-172v90h100l23 24v181l-20 20h-103v90h103l20 20v151l-24 24h-115l-23 -24v-576h-132z" />
    <glyph glyph-name="agrave" unicode="&#xe0;" horiz-adv-x="467" 
d="M110 0l-79 79v143l79 80h182v94l-22 22h-76l-19 -18v-47h-133v74l78 78h221l83 -83v-422h-98l-6 68l-69 -68h-141zM183 92h66l43 43v92h-108l-21 -21v-94zM210 543l-73 73v60h70l74 -73v-60h-71z" />
    <glyph glyph-name="aacute" unicode="&#xe1;" horiz-adv-x="467" 
d="M110 0l-79 79v143l79 80h182v94l-22 22h-76l-19 -18v-47h-133v74l78 78h221l83 -83v-422h-98l-6 68l-69 -68h-141zM183 92h66l43 43v92h-108l-21 -21v-94zM174 543v60l73 73h71v-60l-74 -73h-70z" />
    <glyph glyph-name="acircumflex" unicode="&#xe2;" horiz-adv-x="467" 
d="M110 0l-79 79v143l79 80h182v94l-22 22h-76l-19 -18v-47h-133v74l78 78h221l83 -83v-422h-98l-6 68l-69 -68h-141zM183 92h66l43 43v92h-108l-21 -21v-94zM100 547v54l70 70h113l70 -70v-54h-60l-63 64h-6l-64 -64h-60z" />
    <glyph glyph-name="atilde" unicode="&#xe3;" horiz-adv-x="467" 
d="M110 0l-79 79v143l79 80h182v94l-22 22h-76l-19 -18v-47h-133v74l78 78h221l83 -83v-422h-98l-6 68l-69 -68h-141zM183 92h66l43 43v92h-108l-21 -21v-94zM96 550v72l42 43h78l50 -50h14l7 8v42h72v-72l-43 -43h-78l-50 49h-13l-8 -7v-42h-71z" />
    <glyph glyph-name="adieresis" unicode="&#xe4;" horiz-adv-x="467" 
d="M110 0l-79 79v143l79 80h182v94l-22 22h-76l-19 -18v-47h-133v74l78 78h221l83 -83v-422h-98l-6 68l-69 -68h-141zM183 92h66l43 43v92h-108l-21 -21v-94zM255 558v98h97v-98h-97zM102 558v98h96v-98h-96z" />
    <glyph glyph-name="aring" unicode="&#xe5;" horiz-adv-x="467" 
d="M110 0l-79 79v143l79 80h182v94l-22 22h-76l-19 -18v-47h-133v74l78 78h221l83 -83v-422h-98l-6 68l-69 -68h-141zM183 92h66l43 43v92h-108l-21 -21v-94zM170 533l-36 36v79l36 37h114l36 -36v-80l-36 -36h-114zM200 575h53l11 11v46l-11 10h-53l-11 -10v-46z" />
    <glyph glyph-name="ae" unicode="&#xe6;" horiz-adv-x="716" 
d="M109 0l-79 79v141l81 80h180v96l-22 23h-76l-18 -19v-47h-134v73l79 79h192l45 -44l45 44h195l84 -83v-199h-259v-113l23 -23h85l19 19v51h132v-79l-78 -78h-202l-44 44l-45 -44h-203zM182 92h76l33 33v98h-109l-20 -19v-91zM422 300h129v96l-23 23h-83l-23 -23v-96z" />
    <glyph glyph-name="ccedilla" unicode="&#xe7;" horiz-adv-x="446" 
d="M121 0l-84 83v339l84 83h219l80 -80v-96h-134v64l-21 22h-72l-24 -24v-277l24 -24h72l21 22v65h134v-96l-81 -81h-78v-35h45l34 -34v-68l-34 -34h-140v53h91l6 7v23l-6 6h-44l-21 20v62h-71z" />
    <glyph glyph-name="egrave" unicode="&#xe8;" horiz-adv-x="462" 
d="M121 0l-84 83v339l84 83h222l83 -83v-201h-258v-110l23 -24h85l19 19v51h131v-79l-77 -78h-228zM168 302h128v94l-23 23h-82l-23 -23v-94zM214 543l-73 73v60h70l74 -73v-60h-71z" />
    <glyph glyph-name="eacute" unicode="&#xe9;" horiz-adv-x="462" 
d="M121 0l-84 83v339l84 83h222l83 -83v-201h-258v-110l23 -24h85l19 19v51h131v-79l-77 -78h-228zM168 302h128v94l-23 23h-82l-23 -23v-94zM178 543v60l73 73h71v-60l-74 -73h-70z" />
    <glyph glyph-name="ecircumflex" unicode="&#xea;" horiz-adv-x="462" 
d="M104 547v54l70 70h113l70 -70v-54h-60l-63 64h-6l-64 -64h-60zM121 0l-84 83v339l84 83h222l83 -83v-201h-258v-110l23 -24h85l19 19v51h131v-79l-77 -78h-228zM168 302h128v94l-23 23h-82l-23 -23v-94z" />
    <glyph glyph-name="edieresis" unicode="&#xeb;" horiz-adv-x="462" 
d="M260 558v98h97v-98h-97zM107 558v98h96v-98h-96zM121 0l-84 83v339l84 83h222l83 -83v-201h-258v-110l23 -24h85l19 19v51h131v-79l-77 -78h-228zM168 302h128v94l-23 23h-82l-23 -23v-94z" />
    <glyph glyph-name="igrave" unicode="&#xec;" horiz-adv-x="234" 
d="M183 0h-132v505h132v-505zM101 543l-73 73v60h70l74 -73v-60h-71z" />
    <glyph glyph-name="iacute" unicode="&#xed;" horiz-adv-x="234" 
d="M183 0h-132v505h132v-505zM64 543v60l73 73h71v-60l-74 -73h-70z" />
    <glyph glyph-name="icircumflex" unicode="&#xee;" horiz-adv-x="234" 
d="M-9 547v54l70 70h113l70 -70v-54h-60l-63 64h-6l-64 -64h-60zM183 0h-132v505h132v-505z" />
    <glyph glyph-name="idieresis" unicode="&#xef;" horiz-adv-x="234" 
d="M146 558v98h97v-98h-97zM-7 558v98h96v-98h-96zM183 0h-132v505h132v-505z" />
    <glyph glyph-name="eth" unicode="&#xf0;" horiz-adv-x="477" 
d="M121 0l-83 83v339l83 83h126l58 -57v92l-120 120v30h125l104 -104l54 54h24v-94l-55 -55v-408l-83 -83h-233zM195 90h86l24 24v244l-52 52h-58l-25 -24v-272z" />
    <glyph glyph-name="ntilde" unicode="&#xf1;" horiz-adv-x="474" 
d="M46 0v505h98l7 -72l72 72h125l83 -83v-422h-132v375l-24 24h-44l-53 -53v-346h-132zM114 550v72l42 43h78l50 -50h14l7 8v42h72v-72l-43 -43h-78l-50 49h-13l-8 -7v-42h-71z" />
    <glyph glyph-name="ograve" unicode="&#xf2;" horiz-adv-x="472" 
d="M121 0l-83 83v339l83 83h230l83 -83v-339l-83 -83h-230zM195 89h83l24 25v277l-24 25h-83l-25 -25v-277zM218 543l-73 73v60h70l74 -73v-60h-71z" />
    <glyph glyph-name="oacute" unicode="&#xf3;" horiz-adv-x="472" 
d="M121 0l-83 83v339l83 83h230l83 -83v-339l-83 -83h-230zM195 89h83l24 25v277l-24 25h-83l-25 -25v-277zM182 543v60l73 73h71v-60l-74 -73h-70z" />
    <glyph glyph-name="ocircumflex" unicode="&#xf4;" horiz-adv-x="472" 
d="M109 547v54l70 70h113l70 -70v-54h-60l-63 64h-6l-64 -64h-60zM121 0l-83 83v339l83 83h230l83 -83v-339l-83 -83h-230zM195 89h83l24 25v277l-24 25h-83l-25 -25v-277z" />
    <glyph glyph-name="otilde" unicode="&#xf5;" horiz-adv-x="472" 
d="M121 0l-83 83v339l83 83h230l83 -83v-339l-83 -83h-230zM195 89h83l24 25v277l-24 25h-83l-25 -25v-277zM105 550v72l42 43h78l50 -50h14l7 8v42h72v-72l-43 -43h-78l-50 49h-13l-8 -7v-42h-71z" />
    <glyph glyph-name="odieresis" unicode="&#xf6;" horiz-adv-x="472" 
d="M264 558v98h97v-98h-97zM111 558v98h96v-98h-96zM121 0l-83 83v339l83 83h230l83 -83v-339l-83 -83h-230zM195 89h83l24 25v277l-24 25h-83l-25 -25v-277z" />
    <glyph glyph-name="divide" unicode="&#xf7;" horiz-adv-x="352" 
d="M125 145v100h102v-100h-102zM14 290v109h324v-109h-324zM125 444v99h102v-99h-102z" />
    <glyph glyph-name="oslash" unicode="&#xf8;" horiz-adv-x="472" 
d="M121 0l-83 83v339l83 83h230l83 -83v-339l-83 -83h-230zM166 150l116 270h-90l-28 -27v-241zM281 85l27 28v237l-2 2l-116 -267h91z" />
    <glyph glyph-name="ugrave" unicode="&#xf9;" horiz-adv-x="474" 
d="M125 0l-83 83v422h132v-375l25 -24h44l53 53v346h132v-505h-98l-7 73l-73 -73h-125zM218 543l-73 73v60h70l74 -73v-60h-71z" />
    <glyph glyph-name="uacute" unicode="&#xfa;" horiz-adv-x="474" 
d="M125 0l-83 83v422h132v-375l25 -24h44l53 53v346h132v-505h-98l-7 73l-73 -73h-125zM182 543v60l73 73h71v-60l-74 -73h-70z" />
    <glyph glyph-name="ucircumflex" unicode="&#xfb;" horiz-adv-x="474" 
d="M108 547v54l70 70h113l70 -70v-54h-60l-63 64h-6l-64 -64h-60zM125 0l-83 83v422h132v-375l25 -24h44l53 53v346h132v-505h-98l-7 73l-73 -73h-125z" />
    <glyph glyph-name="udieresis" unicode="&#xfc;" horiz-adv-x="474" 
d="M264 558v98h97v-98h-97zM111 558v98h96v-98h-96zM125 0l-83 83v422h132v-375l25 -24h44l53 53v346h132v-505h-98l-7 73l-73 -73h-125z" />
    <glyph glyph-name="yacute" unicode="&#xfd;" horiz-adv-x="422" 
d="M120 0l-116 505h134l77 -417l76 417h127l-140 -609l-68 -68h-180v103h126l20 19l12 50h-68zM157 543v60l73 73h71v-60l-74 -73h-70z" />
    <glyph glyph-name="thorn" unicode="&#xfe;" horiz-adv-x="483" 
d="M46 -172v862h132v-243l58 58h125l83 -83v-339l-83 -83h-135l-48 49v-221h-132zM224 95h64l24 25v268l-24 25h-62l-48 -49v-223z" />
    <glyph glyph-name="ydieresis" unicode="&#xff;" horiz-adv-x="422" 
d="M120 0l-116 505h134l77 -417l76 417h127l-140 -609l-68 -68h-180v103h126l20 19l12 50h-68zM239 558v98h97v-98h-97zM86 558v98h96v-98h-96z" />
    <glyph glyph-name="Amacron" unicode="&#x100;" horiz-adv-x="502" 
d="M7 0l139 690h204l139 -690h-137l-28 158h-160l-28 -158h-129zM244 613l-61 -345h122zM142 758v82h217v-82h-217z" />
    <glyph glyph-name="amacron" unicode="&#x101;" horiz-adv-x="467" 
d="M110 0l-79 79v143l79 80h182v94l-22 22h-76l-19 -18v-47h-133v74l78 78h221l83 -83v-422h-98l-6 68l-69 -68h-141zM183 92h66l43 43v92h-108l-21 -21v-94zM119 566v82h217v-82h-217z" />
    <glyph glyph-name="Abreve" unicode="&#x102;" horiz-adv-x="502" 
d="M7 0l139 690h204l139 -690h-137l-28 158h-160l-28 -158h-129zM244 613l-61 -345h122zM167 741l-42 43v68h83v-37l11 -11h64l11 11v37h83v-68l-43 -43h-167z" />
    <glyph glyph-name="abreve" unicode="&#x103;" horiz-adv-x="467" 
d="M110 0l-79 79v143l79 80h182v94l-22 22h-76l-19 -18v-47h-133v74l78 78h221l83 -83v-422h-98l-6 68l-69 -68h-141zM183 92h66l43 43v92h-108l-21 -21v-94zM143 549l-42 43v68h83v-37l11 -11h64l11 11v37h83v-68l-43 -43h-167z" />
    <glyph glyph-name="Aogonek" unicode="&#x104;" horiz-adv-x="496" 
d="M7 0l139 690h204l139 -690h-53l-71 -71v-39l7 -7h64v-54h-114l-35 35v75l64 64l-27 155h-160l-28 -158h-129zM244 613l-61 -345h122z" />
    <glyph glyph-name="aogonek" unicode="&#x105;" horiz-adv-x="467" 
d="M110 0l-79 79v143l79 80h182v94l-22 22h-76l-19 -18v-47h-133v74l78 78h221l83 -83v-422h-12l-71 -71v-39l7 -7h64v-54h-114l-35 34v76l63 63l-6 66l-69 -68h-141zM183 92h66l43 43v92h-108l-21 -21v-94z" />
    <glyph glyph-name="Cacute" unicode="&#x106;" horiz-adv-x="503" 
d="M203 735v60l73 73h71v-60l-74 -73h-70zM135 0l-91 91v508l91 91h245l90 -91v-139h-138v88l-32 32h-85l-33 -33v-407l33 -33h85l32 32v93h138v-141l-90 -91h-245z" />
    <glyph glyph-name="cacute" unicode="&#x107;" horiz-adv-x="446" 
d="M175 543v60l73 73h71v-60l-74 -73h-70zM121 0l-84 83v339l84 83h219l80 -80v-96h-134v64l-21 22h-72l-24 -24v-277l24 -24h72l21 22v65h134v-96l-81 -81h-218z" />
    <glyph glyph-name="Ccircumflex" unicode="&#x108;" horiz-adv-x="503" 
d="M130 739v54l70 70h113l70 -70v-54h-60l-63 64h-6l-64 -64h-60zM135 0l-91 91v508l91 91h245l90 -91v-139h-138v88l-32 32h-85l-33 -33v-407l33 -33h85l32 32v93h138v-141l-90 -91h-245z" />
    <glyph glyph-name="ccircumflex" unicode="&#x109;" horiz-adv-x="446" 
d="M101 547v54l70 70h113l70 -70v-54h-60l-63 64h-6l-64 -64h-60zM121 0l-84 83v339l84 83h219l80 -80v-96h-134v64l-21 22h-72l-24 -24v-277l24 -24h72l21 22v65h134v-96l-81 -81h-218z" />
    <glyph glyph-name="Ccaron" unicode="&#x10c;" horiz-adv-x="503" 
d="M200 739l-70 71v53h60l64 -63h6l63 63h60v-53l-70 -71h-113zM135 0l-91 91v508l91 91h245l90 -91v-139h-138v88l-32 32h-85l-33 -33v-407l33 -33h85l32 32v93h138v-141l-90 -91h-245z" />
    <glyph glyph-name="ccaron" unicode="&#x10d;" horiz-adv-x="446" 
d="M171 547l-70 71v53h60l64 -63h6l63 63h60v-53l-70 -71h-113zM121 0l-84 83v339l84 83h219l80 -80v-96h-134v64l-21 22h-72l-24 -24v-277l24 -24h72l21 22v65h134v-96l-81 -81h-218z" />
    <glyph glyph-name="Dcaron" unicode="&#x10e;" horiz-adv-x="528" 
d="M192 739l-70 71v53h60l64 -63h6l63 63h60v-53l-70 -71h-113zM50 0v690h343l91 -91v-508l-91 -91h-343zM189 110h123l33 33v404l-33 33h-123v-470z" />
    <glyph glyph-name="dcaron" unicode="&#x10f;" horiz-adv-x="483" 
d="M475 550v140h87v-104l-36 -36h-51zM121 0l-83 83v339l83 83h126l58 -58v243h132v-690h-98l-7 69l-68 -69h-143zM195 92h63l47 47v216l-55 55h-55l-25 -25v-268z" />
    <glyph glyph-name="Dcroat" unicode="&#x110;" horiz-adv-x="537" 
d="M14 287v115h46v288h342l91 -91v-508l-91 -91h-342v287h-46zM198 110h124l33 33v404l-33 33h-124v-178h73v-115h-73v-177z" />
    <glyph glyph-name="dcroat" unicode="&#x111;" horiz-adv-x="483" 
d="M202 553v82h103v55h132v-55h46v-82h-46v-553h-98l-7 69l-68 -69h-143l-83 83v339l83 83h126l58 -58v106h-103zM195 92h63l47 47v216l-55 55h-55l-25 -25v-268z" />
    <glyph glyph-name="Emacron" unicode="&#x112;" horiz-adv-x="449" 
d="M50 0v690h365v-115h-226v-167h205v-115h-205v-178h228v-115h-367zM125 758v82h217v-82h-217z" />
    <glyph glyph-name="emacron" unicode="&#x113;" horiz-adv-x="462" 
d="M121 0l-84 83v339l84 83h222l83 -83v-201h-258v-110l23 -24h85l19 19v51h131v-79l-77 -78h-228zM168 302h128v94l-23 23h-82l-23 -23v-94zM123 566v82h217v-82h-217z" />
    <glyph glyph-name="Edotaccent" unicode="&#x116;" horiz-adv-x="449" 
d="M50 0v690h365v-115h-226v-167h205v-115h-205v-178h228v-115h-367zM199 738l-27 28v66l27 27h69l27 -27v-66l-27 -28h-69z" />
    <glyph glyph-name="edotaccent" unicode="&#x117;" horiz-adv-x="462" 
d="M121 0l-84 83v339l84 83h222l83 -83v-201h-258v-110l23 -24h85l19 19v51h131v-79l-77 -78h-228zM168 302h128v94l-23 23h-82l-23 -23v-94zM197 546l-27 28v66l27 27h69l27 -27v-66l-27 -28h-69z" />
    <glyph glyph-name="Eogonek" unicode="&#x118;" horiz-adv-x="449" 
d="M50 0v690h365v-115h-226v-167h205v-115h-205v-178h228v-115l-72 -71v-39l7 -7h65v-54h-115l-34 34v76l61 61h-279z" />
    <glyph glyph-name="eogonek" unicode="&#x119;" horiz-adv-x="462" 
d="M121 0l-84 83v339l84 83h222l83 -83v-201h-258v-110l23 -24h85l19 19v51h131v-79l-77 -78h-1l-71 -71v-39l7 -7h64v-54h-114l-34 34v76l60 61h-139zM168 302h128v94l-23 23h-82l-23 -23v-94z" />
    <glyph glyph-name="Ecaron" unicode="&#x11a;" horiz-adv-x="449" 
d="M176 739l-70 71v53h60l64 -63h6l63 63h60v-53l-70 -71h-113zM50 0v690h365v-115h-226v-167h205v-115h-205v-178h228v-115h-367z" />
    <glyph glyph-name="ecaron" unicode="&#x11b;" horiz-adv-x="462" 
d="M174 547l-70 71v53h60l64 -63h6l63 63h60v-53l-70 -71h-113zM121 0l-84 83v339l84 83h222l83 -83v-201h-258v-110l23 -24h85l19 19v51h131v-79l-77 -78h-228zM168 302h128v94l-23 23h-82l-23 -23v-94z" />
    <glyph glyph-name="Gcircumflex" unicode="&#x11c;" horiz-adv-x="520" 
d="M135 739v54l70 70h113l70 -70v-54h-60l-63 64h-6l-64 -64h-60zM135 0l-91 91v508l91 91h257l88 -88v-120h-139v70l-28 28h-98l-33 -33v-408l33 -33h98l29 30v127h-96v111h235v-284l-90 -90h-256z" />
    <glyph glyph-name="gcircumflex" unicode="&#x11d;" horiz-adv-x="480" 
d="M110 547v54l70 70h113l70 -70v-54h-60l-63 64h-6l-64 -64h-60zM121 -172l-77 77v68h128v-38l20 -19h86l27 26v135l-58 -58h-126l-83 83v320l83 83h141l70 -70l7 70h98v-594l-83 -83h-233zM195 112h57l53 53v200l-48 48h-62l-25 -25v-252z" />
    <glyph glyph-name="Gbreve" unicode="&#x11e;" horiz-adv-x="520" 
d="M135 0l-91 91v508l91 91h257l88 -88v-120h-139v70l-28 28h-98l-33 -33v-408l33 -33h98l29 30v127h-96v111h235v-284l-90 -90h-256zM178 741l-42 43v68h83v-37l11 -11h64l11 11v37h83v-68l-43 -43h-167z" />
    <glyph glyph-name="gbreve" unicode="&#x11f;" horiz-adv-x="480" 
d="M121 -172l-77 77v68h128v-38l20 -19h86l27 26v135l-58 -58h-126l-83 83v320l83 83h141l70 -70l7 70h98v-594l-83 -83h-233zM195 112h57l53 53v200l-48 48h-62l-25 -25v-252zM153 549l-42 43v68h83v-37l11 -11h64l11 11v37h83v-68l-43 -43h-167z" />
    <glyph glyph-name="Gcommaaccent" unicode="&#x122;" horiz-adv-x="520" 
d="M219 -171v140h87v-104l-36 -36h-51zM135 0l-91 91v508l91 91h257l88 -88v-120h-139v70l-28 28h-98l-33 -33v-408l33 -33h98l29 30v127h-96v111h235v-284l-90 -90h-256z" />
    <glyph glyph-name="gcommaaccent" unicode="&#x123;" horiz-adv-x="480" 
d="M276 682v-140h-87v104l36 36h51zM121 -172l-77 77v68h128v-38l20 -19h86l27 26v135l-58 -58h-126l-83 83v320l83 83h141l70 -70l7 70h98v-594l-83 -83h-233zM195 112h57l53 53v200l-48 48h-62l-25 -25v-252z" />
    <glyph glyph-name="Hcircumflex" unicode="&#x124;" horiz-adv-x="537" 
d="M142 739v54l70 70h113l70 -70v-54h-60l-63 64h-6l-64 -64h-60zM50 0v690h139v-287h159v287h138v-690h-138v272h-159v-272h-139z" />
    <glyph glyph-name="hcircumflex" unicode="&#x125;" horiz-adv-x="474" 
d="M-14 715v54l70 70h113l70 -70v-54h-60l-63 64h-6l-64 -64h-60zM46 0v690h132v-243l58 58h112l83 -83v-422h-132v375l-24 24h-45l-52 -53v-346h-132z" />
    <glyph glyph-name="Imacron" unicode="&#x12a;" horiz-adv-x="375" 
d="M25 0v102h93v486h-93v102h325v-102h-93v-486h93v-102h-325zM79 758v82h217v-82h-217z" />
    <glyph glyph-name="imacron" unicode="&#x12b;" horiz-adv-x="234" 
d="M183 0h-132v505h132v-505zM10 566v82h217v-82h-217z" />
    <glyph glyph-name="Iogonek" unicode="&#x12e;" horiz-adv-x="375" 
d="M25 0v102h93v486h-93v102h325v-102h-93v-486h93v-102h-119l-71 -71v-39l7 -7h64v-54h-114l-34 34v76l60 61h-118z" />
    <glyph glyph-name="iogonek" unicode="&#x12f;" horiz-adv-x="234" 
d="M183 0h-44l-71 -71v-39l7 -7h64v-54h-114l-35 34v76l61 61v505h132v-505zM51 564v121h132v-121h-132z" />
    <glyph glyph-name="Idotaccent" unicode="&#x130;" horiz-adv-x="375" 
d="M25 0v102h93v486h-93v102h325v-102h-93v-486h93v-102h-325zM153 738l-27 28v66l27 27h69l27 -27v-66l-27 -28h-69z" />
    <glyph glyph-name="dotlessi" unicode="&#x131;" horiz-adv-x="234" 
d="M183 0h-132v505h132v-505z" />
    <glyph glyph-name="Jcircumflex" unicode="&#x134;" horiz-adv-x="349" 
d="M103 739v54l70 70h113l70 -70v-54h-60l-63 64h-6l-64 -64h-60zM15 0v114h115l33 33v543h139v-599l-91 -91h-196z" />
    <glyph glyph-name="jcircumflex" unicode="&#x135;" horiz-adv-x="233" 
d="M-11 547v54l70 70h113l70 -70v-54h-60l-63 64h-6l-64 -64h-60zM-47 -172v103h77l19 19v555h132v-595l-82 -82h-146z" />
    <glyph glyph-name="Kcommaaccent" unicode="&#x136;" horiz-adv-x="524" 
d="M236 -171v140h87v-104l-36 -36h-51zM362 0l-95 289l-78 -153v-136h-139v690h139v-361l167 361h146l-141 -286l148 -404h-147z" />
    <glyph glyph-name="kcommaaccent" unicode="&#x137;" horiz-adv-x="474" 
d="M209 -171v140h87v-104l-36 -36h-51zM317 0l-76 213l-65 -105v-108h-131v690h131v-423l131 238h142l-117 -190l127 -315h-142z" />
    <glyph glyph-name="Lacute" unicode="&#x139;" horiz-adv-x="402" 
d="M82 735v60l73 73h71v-60l-74 -73h-70zM50 0v690h139v-573h195v-117h-334z" />
    <glyph glyph-name="lacute" unicode="&#x13a;" horiz-adv-x="234" 
d="M74 722v60l73 73h71v-60l-74 -73h-70zM183 0h-132v690h132v-690z" />
    <glyph glyph-name="Lcommaaccent" unicode="&#x13b;" horiz-adv-x="402" 
d="M173 -171v140h87v-104l-36 -36h-51zM50 0v690h139v-573h195v-117h-334z" />
    <glyph glyph-name="lcommaaccent" unicode="&#x13c;" horiz-adv-x="234" 
d="M74 -171v140h87v-104l-36 -36h-51zM183 0h-132v690h132v-690z" />
    <glyph glyph-name="Lcaron" unicode="&#x13d;" horiz-adv-x="402" 
d="M250 582v140h87v-104l-36 -36h-51zM50 0v690h139v-573h195v-117h-334z" />
    <glyph glyph-name="lcaron" unicode="&#x13e;" horiz-adv-x="234" 
d="M221 550v140h87v-104l-36 -36h-51zM183 0h-132v690h132v-690z" />
    <glyph glyph-name="Lslash" unicode="&#x141;" horiz-adv-x="411" 
d="M13 255v116l46 19v300h139v-241l88 38v-117l-88 -37v-216h195v-117h-334v274z" />
    <glyph glyph-name="lslash" unicode="&#x142;" horiz-adv-x="248" 
d="M7 274v116l51 21v279h132v-223l51 22v-116l-51 -22v-351h-132v295z" />
    <glyph glyph-name="Nacute" unicode="&#x143;" horiz-adv-x="538" 
d="M215 735v60l73 73h71v-60l-74 -73h-70zM51 0v690h127l188 -428v428h123v-690h-129l-186 434v-434h-123z" />
    <glyph glyph-name="nacute" unicode="&#x144;" horiz-adv-x="474" 
d="M191 543v60l73 73h71v-60l-74 -73h-70zM46 0v505h98l7 -72l72 72h125l83 -83v-422h-132v375l-24 24h-44l-53 -53v-346h-132z" />
    <glyph glyph-name="Ncommaaccent" unicode="&#x145;" horiz-adv-x="538" 
d="M225 -171v140h87v-104l-36 -36h-51zM51 0v690h127l188 -428v428h123v-690h-129l-186 434v-434h-123z" />
    <glyph glyph-name="ncommaaccent" unicode="&#x146;" horiz-adv-x="474" 
d="M199 -171v140h87v-104l-36 -36h-51zM46 0v505h98l7 -72l72 72h125l83 -83v-422h-132v375l-24 24h-44l-53 -53v-346h-132z" />
    <glyph glyph-name="Ncaron" unicode="&#x147;" horiz-adv-x="538" 
d="M212 739l-70 71v53h60l64 -63h6l63 63h60v-53l-70 -71h-113zM51 0v690h127l188 -428v428h123v-690h-129l-186 434v-434h-123z" />
    <glyph glyph-name="ncaron" unicode="&#x148;" horiz-adv-x="474" 
d="M188 547l-70 71v53h60l64 -63h6l63 63h60v-53l-70 -71h-113zM46 0v505h98l7 -72l72 72h125l83 -83v-422h-132v375l-24 24h-44l-53 -53v-346h-132z" />
    <glyph glyph-name="Omacron" unicode="&#x14c;" horiz-adv-x="527" 
d="M155 758v82h217v-82h-217zM135 0l-91 91v508l91 91h257l91 -91v-508l-91 -91h-257zM215 110h96l33 33v404l-33 33h-96l-33 -33v-404z" />
    <glyph glyph-name="omacron" unicode="&#x14d;" horiz-adv-x="472" 
d="M127 566v82h217v-82h-217zM121 0l-83 83v339l83 83h230l83 -83v-339l-83 -83h-230zM195 89h83l24 25v277l-24 25h-83l-25 -25v-277z" />
    <glyph glyph-name="Ohungarumlaut" unicode="&#x150;" horiz-adv-x="527" 
d="M163 735v60l73 74h46v-61l-74 -73h-45zM294 735v60l73 74h46v-61l-74 -73h-45zM135 0l-91 91v508l91 91h257l91 -91v-508l-91 -91h-257zM215 110h96l33 33v404l-33 33h-96l-33 -33v-404z" />
    <glyph glyph-name="ohungarumlaut" unicode="&#x151;" horiz-adv-x="472" 
d="M135 543v60l73 74h46v-61l-74 -73h-45zM266 543v60l73 74h46v-61l-74 -73h-45zM121 0l-83 83v339l83 83h230l83 -83v-339l-83 -83h-230zM195 89h83l24 25v277l-24 25h-83l-25 -25v-277z" />
    <glyph glyph-name="OE" unicode="&#x152;" horiz-adv-x="737" 
d="M135 0l-91 91v508l91 91h568v-115h-226v-167h205v-114h-205v-179h228v-115h-570zM215 110h124v470h-124l-33 -33v-404z" />
    <glyph glyph-name="oe" unicode="&#x153;" horiz-adv-x="726" 
d="M121 0l-84 83v339l84 83h201l45 -44l45 44h195l83 -83v-201h-259v-111l23 -23h86l19 19v51h131v-79l-78 -78h-201l-44 44l-44 -44h-202zM193 90h84l24 24v278l-24 24h-84l-24 -24v-278zM431 302h129v94l-23 23h-82l-24 -23v-94z" />
    <glyph glyph-name="Racute" unicode="&#x154;" horiz-adv-x="523" 
d="M203 735v60l73 73h71v-60l-74 -73h-70zM50 0v690h352l88 -89v-231l-75 -75l86 -295h-142l-76 277h-94v-277h-139zM189 380h131l32 32v144l-31 31h-132v-207z" />
    <glyph glyph-name="racute" unicode="&#x155;" horiz-adv-x="332" 
d="M126 543v60l73 73h71v-60l-74 -73h-70zM46 0v505h98l7 -73l74 73h88v-118h-83l-52 -53v-334h-132z" />
    <glyph glyph-name="Rcommaaccent" unicode="&#x156;" horiz-adv-x="523" 
d="M230 -171v140h87v-104l-36 -36h-51zM50 0v690h352l88 -89v-231l-75 -75l86 -295h-142l-76 277h-94v-277h-139zM189 380h131l32 32v144l-31 31h-132v-207z" />
    <glyph glyph-name="rcommaaccent" unicode="&#x157;" horiz-adv-x="332" 
d="M68 -171v140h87v-104l-36 -36h-51zM46 0v505h98l7 -73l74 73h88v-118h-83l-52 -53v-334h-132z" />
    <glyph glyph-name="Rcaron" unicode="&#x158;" horiz-adv-x="523" 
d="M199 739l-70 71v53h60l64 -63h6l63 63h60v-53l-70 -71h-113zM50 0v690h352l88 -89v-231l-75 -75l86 -295h-142l-76 277h-94v-277h-139zM189 380h131l32 32v144l-31 31h-132v-207z" />
    <glyph glyph-name="rcaron" unicode="&#x159;" horiz-adv-x="332" 
d="M123 547l-70 71v53h60l64 -63h6l63 63h60v-53l-70 -71h-113zM46 0v505h98l7 -73l74 73h88v-118h-83l-52 -53v-334h-132z" />
    <glyph glyph-name="Sacute" unicode="&#x15a;" horiz-adv-x="500" 
d="M196 735v60l73 73h71v-60l-74 -73h-70zM122 0l-88 88v118h139v-68l29 -29h96l29 29v128l-22 23h-192l-76 75v237l89 89h250l88 -88v-118h-139v68l-29 29h-91l-29 -29v-123l22 -22h192l75 -76v-242l-89 -89h-254z" />
    <glyph glyph-name="sacute" unicode="&#x15b;" horiz-adv-x="447" 
d="M171 543v60l73 73h71v-60l-74 -73h-70zM108 0l-77 77v74h130v-44l17 -18h87l18 19v84l-14 14h-171l-62 62v157l80 80h219l77 -76v-73h-130v43l-17 17h-78l-19 -18v-84l14 -14h171l62 -62v-158l-79 -80h-228z" />
    <glyph glyph-name="Scircumflex" unicode="&#x15c;" horiz-adv-x="500" 
d="M122 739v54l70 70h113l70 -70v-54h-60l-63 64h-6l-64 -64h-60zM122 0l-88 88v118h139v-68l29 -29h96l29 29v128l-22 23h-192l-76 75v237l89 89h250l88 -88v-118h-139v68l-29 29h-91l-29 -29v-123l22 -22h192l75 -76v-242l-89 -89h-254z" />
    <glyph glyph-name="scircumflex" unicode="&#x15d;" horiz-adv-x="447" 
d="M98 547v54l70 70h113l70 -70v-54h-60l-63 64h-6l-64 -64h-60zM108 0l-77 77v74h130v-44l17 -18h87l18 19v84l-14 14h-171l-62 62v157l80 80h219l77 -76v-73h-130v43l-17 17h-78l-19 -18v-84l14 -14h171l62 -62v-158l-79 -80h-228z" />
    <glyph glyph-name="Scedilla" unicode="&#x15e;" horiz-adv-x="500" 
d="M122 0l-88 88v118h139v-68l29 -29h96l29 29v128l-22 23h-192l-76 75v237l89 89h250l88 -88v-118h-139v68l-29 29h-91l-29 -29v-123l22 -22h192l75 -76v-242l-89 -89h-93v-35h45l34 -34v-68l-34 -34h-140v53h91l6 7v23l-6 6h-44l-21 20v62h-92z" />
    <glyph glyph-name="scedilla" unicode="&#x15f;" horiz-adv-x="447" 
d="M108 0l-77 77v74h130v-44l17 -18h87l18 19v84l-14 14h-171l-62 62v157l80 80h219l77 -76v-73h-130v43l-17 17h-78l-19 -18v-84l14 -14h171l62 -62v-158l-79 -80h-78v-35h45l34 -34v-68l-34 -34h-140v53h91l6 7v23l-6 6h-44l-21 20v62h-81z" />
    <glyph glyph-name="Scaron" unicode="&#x160;" horiz-adv-x="500" 
d="M192 739l-70 71v53h60l64 -63h6l63 63h60v-53l-70 -71h-113zM122 0l-88 88v118h139v-68l29 -29h96l29 29v128l-22 23h-192l-76 75v237l89 89h250l88 -88v-118h-139v68l-29 29h-91l-29 -29v-123l22 -22h192l75 -76v-242l-89 -89h-254z" />
    <glyph glyph-name="scaron" unicode="&#x161;" horiz-adv-x="447" 
d="M167 547l-70 71v53h60l64 -63h6l63 63h60v-53l-70 -71h-113zM108 0l-77 77v74h130v-44l17 -18h87l18 19v84l-14 14h-171l-62 62v157l80 80h219l77 -76v-73h-130v43l-17 17h-78l-19 -18v-84l14 -14h171l62 -62v-158l-79 -80h-228z" />
    <glyph glyph-name="Tcommaaccent" unicode="&#x162;" horiz-adv-x="453" 
d="M183 -171v140h87v-104l-36 -36h-51zM157 0v570h-146v120h430v-120h-145v-570h-139z" />
    <glyph glyph-name="tcommaaccent" unicode="&#x163;" horiz-adv-x="348" 
d="M158 -171v140h87v-104l-36 -36h-51zM157 0l-83 83v322h-60v100h60v130h132v-130h114v-100h-114v-275l23 -23h91v-107h-163z" />
    <glyph glyph-name="Tcaron" unicode="&#x164;" horiz-adv-x="453" 
d="M169 739l-70 71v53h60l64 -63h6l63 63h60v-53l-70 -71h-113zM157 0v570h-146v120h430v-120h-145v-570h-139z" />
    <glyph glyph-name="tcaron" unicode="&#x165;" horiz-adv-x="348" 
d="M254 557v140h87v-104l-36 -36h-51zM157 0l-83 83v322h-60v100h60v130h132v-130h114v-100h-114v-275l23 -23h91v-107h-163z" />
    <glyph glyph-name="Umacron" unicode="&#x16a;" horiz-adv-x="522" 
d="M138 0l-91 91v599h139v-544l33 -33h85l33 33v544h139v-599l-92 -91h-246zM153 758v82h217v-82h-217z" />
    <glyph glyph-name="umacron" unicode="&#x16b;" horiz-adv-x="474" 
d="M125 0l-83 83v422h132v-375l25 -24h44l53 53v346h132v-505h-98l-7 73l-73 -73h-125zM127 566v82h217v-82h-217z" />
    <glyph glyph-name="Ubreve" unicode="&#x16c;" horiz-adv-x="522" 
d="M138 0l-91 91v599h139v-544l33 -33h85l33 33v544h139v-599l-92 -91h-246zM177 741l-42 43v68h83v-37l11 -11h64l11 11v37h83v-68l-43 -43h-167z" />
    <glyph glyph-name="ubreve" unicode="&#x16d;" horiz-adv-x="474" 
d="M125 0l-83 83v422h132v-375l25 -24h44l53 53v346h132v-505h-98l-7 73l-73 -73h-125zM151 549l-42 43v68h83v-37l11 -11h64l11 11v37h83v-68l-43 -43h-167z" />
    <glyph glyph-name="Uring" unicode="&#x16e;" horiz-adv-x="522" 
d="M204 725l-36 36v79l36 37h114l36 -36v-80l-36 -36h-114zM234 767h53l11 11v46l-11 10h-53l-11 -10v-46zM138 0l-91 91v599h139v-544l33 -33h85l33 33v544h139v-599l-92 -91h-246z" />
    <glyph glyph-name="uring" unicode="&#x16f;" horiz-adv-x="474" 
d="M178 533l-36 36v79l36 37h114l36 -36v-80l-36 -36h-114zM208 575h53l11 11v46l-11 10h-53l-11 -10v-46zM125 0l-83 83v422h132v-375l25 -24h44l53 53v346h132v-505h-98l-7 73l-73 -73h-125z" />
    <glyph glyph-name="Uhungarumlaut" unicode="&#x170;" horiz-adv-x="522" 
d="M138 0l-91 91v599h139v-544l33 -33h85l33 33v544h139v-599l-92 -91h-246zM161 735v60l73 74h46v-61l-74 -73h-45zM292 735v60l73 74h46v-61l-74 -73h-45z" />
    <glyph glyph-name="uhungarumlaut" unicode="&#x171;" horiz-adv-x="474" 
d="M125 0l-83 83v422h132v-375l25 -24h44l53 53v346h132v-505h-98l-7 73l-73 -73h-125zM135 543v60l73 74h46v-61l-74 -73h-45zM266 543v60l73 74h46v-61l-74 -73h-45z" />
    <glyph glyph-name="Uogonek" unicode="&#x172;" horiz-adv-x="522" 
d="M138 0l-91 91v599h139v-544l33 -33h85l33 33v544h139v-599l-92 -91h-69l-71 -71v-39l7 -7h64v-54h-114l-34 34v76l60 61h-89z" />
    <glyph glyph-name="uogonek" unicode="&#x173;" horiz-adv-x="474" 
d="M125 0l-83 83v422h132v-375l25 -24h44l53 53v346h132v-505h-12l-71 -71v-39l7 -7h64v-54h-115l-34 34v76l63 63l-7 71l-73 -73h-125z" />
    <glyph glyph-name="Ydieresis" unicode="&#x178;" horiz-adv-x="492" 
d="M177 0v211l-170 479h148l95 -324l101 324h135l-171 -479v-211h-138zM274 750v98h97v-98h-97zM121 750v98h96v-98h-96z" />
    <glyph glyph-name="Zacute" unicode="&#x179;" horiz-adv-x="430" 
d="M161 735v60l73 73h71v-60l-74 -73h-70zM23 0v95l224 475h-220v120h376v-95l-224 -475h227v-120h-383z" />
    <glyph glyph-name="zacute" unicode="&#x17a;" horiz-adv-x="385" 
d="M138 543v60l73 73h71v-60l-74 -73h-70zM19 0v79l191 322h-185v104h336v-79l-190 -322h194v-104h-346z" />
    <glyph glyph-name="Zdotaccent" unicode="&#x17b;" horiz-adv-x="430" 
d="M23 0v95l224 475h-220v120h376v-95l-224 -475h227v-120h-383zM180 738l-27 28v66l27 27h69l27 -27v-66l-27 -28h-69z" />
    <glyph glyph-name="zdotaccent" unicode="&#x17c;" horiz-adv-x="385" 
d="M19 0v79l191 322h-185v104h336v-79l-190 -322h194v-104h-346zM157 546l-27 28v66l27 27h69l27 -27v-66l-27 -28h-69z" />
    <glyph glyph-name="Zcaron" unicode="&#x17d;" horiz-adv-x="430" 
d="M158 739l-70 71v53h60l64 -63h6l63 63h60v-53l-70 -71h-113zM23 0v95l224 475h-220v120h376v-95l-224 -475h227v-120h-383z" />
    <glyph glyph-name="zcaron" unicode="&#x17e;" horiz-adv-x="385" 
d="M135 547l-70 71v53h60l64 -63h6l63 63h60v-53l-70 -71h-113zM19 0v79l191 322h-185v104h336v-79l-190 -322h194v-104h-346z" />
    <glyph glyph-name="florin" unicode="&#x192;" horiz-adv-x="398" 
d="M23 0v109h57l32 31v181h-86v112h86v166l91 91h171v-109h-92l-32 -31v-117h118v-112h-118v-230l-91 -91h-136z" />
    <glyph glyph-name="Scommaaccent" unicode="&#x218;" horiz-adv-x="500" 
d="M206 -171v140h87v-104l-36 -36h-51zM122 0l-88 88v118h139v-68l29 -29h96l29 29v128l-22 23h-192l-76 75v237l89 89h250l88 -88v-118h-139v68l-29 29h-91l-29 -29v-123l22 -22h192l75 -76v-242l-89 -89h-254z" />
    <glyph glyph-name="scommaaccent" unicode="&#x219;" horiz-adv-x="447" 
d="M181 -171v140h87v-104l-36 -36h-51zM108 0l-77 77v74h130v-44l17 -18h87l18 19v84l-14 14h-171l-62 62v157l80 80h219l77 -76v-73h-130v43l-17 17h-78l-19 -18v-84l14 -14h171l62 -62v-158l-79 -80h-228z" />
    <glyph glyph-name="uni0237" unicode="&#x237;" horiz-adv-x="232" 
d="M-47 -172v103h77l19 19v555h132v-595l-82 -82h-146z" />
    <glyph glyph-name="circumflex" unicode="&#x2c6;" horiz-adv-x="369" 
d="M58 547v54l70 70h113l70 -70v-54h-60l-63 64h-6l-64 -64h-60z" />
    <glyph glyph-name="caron" unicode="&#x2c7;" horiz-adv-x="369" 
d="M128 547l-70 71v53h60l64 -63h6l63 63h60v-53l-70 -71h-113z" />
    <glyph glyph-name="breve" unicode="&#x2d8;" horiz-adv-x="368" 
d="M100 549l-42 43v68h83v-37l11 -11h64l11 11v37h83v-68l-43 -43h-167z" />
    <glyph glyph-name="dotaccent" unicode="&#x2d9;" horiz-adv-x="239" 
d="M85 546l-27 28v66l27 27h69l27 -27v-66l-27 -28h-69z" />
    <glyph glyph-name="ring" unicode="&#x2da;" horiz-adv-x="301" 
d="M94 533l-36 36v79l36 37h114l36 -36v-80l-36 -36h-114zM124 575h53l11 11v46l-11 10h-53l-11 -10v-46z" />
    <glyph glyph-name="ogonek" unicode="&#x2db;" horiz-adv-x="263" 
d="M92 -171l-34 34v76l60 61h88l-71 -71v-39l7 -7h64v-54h-114z" />
    <glyph glyph-name="tilde" unicode="&#x2dc;" horiz-adv-x="378" 
d="M58 550v72l42 43h78l50 -50h14l7 8v42h72v-72l-43 -43h-78l-50 49h-13l-8 -7v-42h-71z" />
    <glyph glyph-name="hungarumlaut" unicode="&#x2dd;" horiz-adv-x="365" 
d="M58 543v60l73 74h46v-61l-74 -73h-45zM189 543v60l73 74h46v-61l-74 -73h-45z" />
    <glyph glyph-name="endash" unicode="&#x2013;" horiz-adv-x="348" 
d="M11 289v114h325v-114h-325z" />
    <glyph glyph-name="emdash" unicode="&#x2014;" horiz-adv-x="465" 
d="M11 289v114h442v-114h-442z" />
    <glyph glyph-name="quoteleft" unicode="&#x2018;" horiz-adv-x="194" 
d="M33 442v200l48 48h80v-56h-42l-9 -10v-42h51v-140h-128z" />
    <glyph glyph-name="quoteright" unicode="&#x2019;" horiz-adv-x="194" 
d="M161 690v-200l-48 -48h-80v56h42l9 10v42h-51v140h128z" />
    <glyph glyph-name="quotesinglbase" unicode="&#x201a;" horiz-adv-x="194" 
d="M33 -108v56h41l10 9v43h-51v140h128v-200l-49 -48h-79z" />
    <glyph glyph-name="quotedblleft" unicode="&#x201c;" horiz-adv-x="366" 
d="M34 442v200l48 48h79v-56h-41l-10 -10v-42h51v-140h-127zM205 442v200l48 48h80v-56h-42l-9 -10v-42h51v-140h-128z" />
    <glyph glyph-name="quotedblright" unicode="&#x201d;" horiz-adv-x="366" 
d="M332 690v-200l-48 -48h-79v56h41l10 10v42h-51v140h127zM161 690v-200l-48 -48h-80v56h42l9 10v42h-51v140h128z" />
    <glyph glyph-name="quotedblbase" unicode="&#x201e;" horiz-adv-x="366" 
d="M34 -108v56h41l9 9v43h-50v140h127v-200l-48 -48h-79zM205 -108v56h41l10 9v43h-51v140h128v-200l-49 -48h-79z" />
    <glyph glyph-name="dagger" unicode="&#x2020;" horiz-adv-x="276" 
d="M88 261v252h-69v85h69v92h100v-92h69v-85h-69v-252h-100z" />
    <glyph glyph-name="daggerdbl" unicode="&#x2021;" horiz-adv-x="276" 
d="M88 261v82h-69v85h69v95h-69v85h69v82h100v-82h69v-85h-69v-95h69v-85h-69v-82h-100z" />
    <glyph glyph-name="bullet" unicode="&#x2022;" horiz-adv-x="252" 
d="M74 232l-52 53v118l52 52h104l53 -52v-118l-53 -53h-104z" />
    <glyph glyph-name="ellipsis" unicode="&#x2026;" horiz-adv-x="547" 
d="M27 0v145h129v-145h-129zM209 0v145h129v-145h-129zM392 0v145h129v-145h-129z" />
    <glyph glyph-name="perthousand" unicode="&#x2030;" horiz-adv-x="1019" 
d="M84 354l-65 65v207l64 64h156l64 -64v-208l-64 -64h-155zM134 428h54l19 19v153l-19 19h-54l-18 -19v-153zM454 0l-63 64v208l63 64h156l64 -65v-207l-63 -64h-157zM506 72h53l19 19v153l-19 19h-53l-19 -19v-153zM780 0l-64 64v208l64 64h155l65 -65v-207l-64 -64h-156z
M831 72h54l18 19v153l-18 19h-54l-18 -19v-153zM132 0l339 690h90l-339 -690h-90z" />
    <glyph glyph-name="guilsinglleft" unicode="&#x2039;" horiz-adv-x="239" 
d="M109 142l-99 204l99 205h109l-100 -205l100 -204h-109z" />
    <glyph glyph-name="guilsinglright" unicode="&#x203a;" horiz-adv-x="239" 
d="M229 346l-99 -204h-109l100 204l-100 205h109z" />
    <glyph glyph-name="fraction" unicode="&#x2044;" horiz-adv-x="430" 
d="M0 0l339 690h91l-340 -690h-90z" />
    <glyph glyph-name="Euro" unicode="&#x20ac;" horiz-adv-x="530" 
d="M19 372v77h47v150l91 91h250l90 -90v-119h-138v67l-32 32h-92l-30 -30v-101h175v-77h-175v-48h175v-76h-175v-111l30 -30h92l32 32v71h138v-120l-90 -90h-250l-91 91v157h-47v76h47v48h-47z" />
    <glyph glyph-name="servicemark" unicode="&#x2120;" horiz-adv-x="555" 
d="M59 402l-41 42v42h63v-24l10 -10h47l10 10v53l-5 5h-89l-36 36v92l42 42h109l42 -41v-43h-63v24l-10 11h-47l-10 -11v-52l5 -5h89l36 -36v-92l-42 -43h-110zM243 402v288h91l43 -228l42 228h92v-288h-57v242l-47 -242h-65l-48 241v-241h-51z" />
    <glyph glyph-name="trademark" unicode="&#x2122;" horiz-adv-x="518" 
d="M70 402v237h-57v51h177v-51h-57v-237h-63zM206 402v288h92l42 -228l42 228h92v-288h-56v242l-48 -242h-65l-48 241v-241h-51z" />
    <glyph glyph-name="minus" unicode="&#x2212;" horiz-adv-x="300" 
d="M11 289v114h278v-114h-278z" />
    <glyph glyph-name="fi" unicode="&#xfb01;" horiz-adv-x="557" 
d="M72 0v405h-56v100h56v109l76 76h169v-98h-92l-21 -22v-65h105v-100h-105v-405h-132zM506 0h-132v505h132v-505zM374 564v121h132v-121h-132z" />
    <glyph glyph-name="fl" unicode="&#xfb02;" horiz-adv-x="557" 
d="M72 0v405h-56v100h56v109l76 76h169v-98h-92l-21 -22v-65h105v-100h-105v-405h-132zM506 0h-132v690h132v-690z" />
    <glyph glyph-name="commaaccent" horiz-adv-x="203" 
d="M58 -171v140h87v-104l-36 -36h-51z" />
    <glyph glyph-name="published" horiz-adv-x="718" 
d="M153 0l-109 109v472l109 109h411l110 -109v-472l-110 -109h-411zM205 88h307l57 57v400l-57 57h-307l-57 -57v-400zM213 145v401h243l54 -54v-177l-54 -54h-139v-116h-104zM317 340h76l14 14v100l-14 14h-76v-128z" />
    <glyph glyph-name="G.alt" horiz-adv-x="522" 
d="M135 0l-91 91v508l91 91h257l88 -88v-120h-139v70l-28 28h-98l-33 -33v-408l33 -33h93l34 34v123h-96v111h235v-374h-98l-10 59l-60 -59h-178z" />
    <glyph glyph-name="Gbreve.alt" horiz-adv-x="522" 
d="M135 0l-91 91v508l91 91h257l88 -88v-120h-139v70l-28 28h-98l-33 -33v-408l33 -33h93l34 34v123h-96v111h235v-374h-98l-10 59l-60 -59h-178zM178 741l-42 43v68h83v-37l11 -11h64l11 11v37h83v-68l-43 -43h-167z" />
    <glyph glyph-name="Gcircumflex.alt" horiz-adv-x="522" 
d="M135 739v54l70 70h113l70 -70v-54h-60l-63 64h-6l-64 -64h-60zM135 0l-91 91v508l91 91h257l88 -88v-120h-139v70l-28 28h-98l-33 -33v-408l33 -33h93l34 34v123h-96v111h235v-374h-98l-10 59l-60 -59h-178z" />
    <glyph glyph-name="Gcommaaccent.alt" horiz-adv-x="522" 
d="M219 -171v140h87v-104l-36 -36h-51zM135 0l-91 91v508l91 91h257l88 -88v-120h-139v70l-28 28h-98l-33 -33v-408l33 -33h93l34 34v123h-96v111h235v-374h-98l-10 59l-60 -59h-178z" />
    <glyph glyph-name="I.alt" horiz-adv-x="268" 
d="M204 0h-139v690h139v-690z" />
    <glyph glyph-name="Iacute.alt" horiz-adv-x="268" 
d="M81 735v60l73 73h71v-60l-74 -73h-70zM204 0h-139v690h139v-690z" />
    <glyph glyph-name="Igrave.alt" horiz-adv-x="268" 
d="M204 0h-139v690h139v-690zM118 735l-73 73v60h70l74 -73v-60h-71z" />
    <glyph glyph-name="Icircumflex.alt" horiz-adv-x="268" 
d="M8 739v54l70 70h113l70 -70v-54h-60l-63 64h-6l-64 -64h-60zM204 0h-139v690h139v-690z" />
    <glyph glyph-name="Idieresis.alt" horiz-adv-x="268" 
d="M164 750v98h97v-98h-97zM11 750v98h96v-98h-96zM204 0h-139v690h139v-690z" />
    <glyph glyph-name="Idotaccent.alt" horiz-adv-x="268" 
d="M204 0h-139v690h139v-690zM99 738l-27 28v66l27 27h69l27 -27v-66l-27 -28h-69z" />
    <glyph glyph-name="Imacron.alt" horiz-adv-x="268" 
d="M204 0h-139v690h139v-690zM27 758v82h217v-82h-217z" />
    <glyph glyph-name="Iogonek.alt" horiz-adv-x="268" 
d="M204 0h-51l-71 -71v-39l7 -7h64v-54h-115l-34 34v76l61 62v689h139v-690z" />
    <glyph glyph-name="J.alt" horiz-adv-x="482" 
d="M115 0l-91 91v187h138v-132l34 -33h67l33 33v544h139v-599l-91 -91h-229z" />
    <glyph glyph-name="Jcircumflex.alt" horiz-adv-x="482" 
d="M239 739v54l70 70h113l70 -70v-54h-60l-63 64h-6l-64 -64h-60zM115 0l-91 91v187h138v-132l34 -33h67l33 33v544h139v-599l-91 -91h-229z" />
    <glyph glyph-name="Q.alt" horiz-adv-x="527" 
d="M135 0l-91 91v508l91 91h257l91 -91v-508l-53 -53l73 -71l-80 -80l-113 113h-175zM215 110h96l33 33v404l-33 33h-96l-33 -33v-404z" />
    <glyph glyph-name="a.alt" horiz-adv-x="483" 
d="M121 0l-83 83v339l83 83h143l69 -68l5 68h99v-505h-98l-6 69l-69 -69h-143zM195 92h63l47 47v227l-47 47h-63l-25 -25v-271z" />
    <glyph glyph-name="aacute.alt" horiz-adv-x="483" 
d="M178 543v60l73 73h71v-60l-74 -73h-70zM121 0l-83 83v339l83 83h143l69 -68l5 68h99v-505h-98l-6 69l-69 -69h-143zM195 92h63l47 47v227l-47 47h-63l-25 -25v-271z" />
    <glyph glyph-name="agrave.alt" horiz-adv-x="483" 
d="M121 0l-83 83v339l83 83h143l69 -68l5 68h99v-505h-98l-6 69l-69 -69h-143zM195 92h63l47 47v227l-47 47h-63l-25 -25v-271zM214 543l-73 73v60h70l74 -73v-60h-71z" />
    <glyph glyph-name="acircumflex.alt" horiz-adv-x="483" 
d="M105 547v54l70 70h113l70 -70v-54h-60l-63 64h-6l-64 -64h-60zM121 0l-83 83v339l83 83h143l69 -68l5 68h99v-505h-98l-6 69l-69 -69h-143zM195 92h63l47 47v227l-47 47h-63l-25 -25v-271z" />
    <glyph glyph-name="adieresis.alt" horiz-adv-x="483" 
d="M260 558v98h97v-98h-97zM107 558v98h96v-98h-96zM121 0l-83 83v339l83 83h143l69 -68l5 68h99v-505h-98l-6 69l-69 -69h-143zM195 92h63l47 47v227l-47 47h-63l-25 -25v-271z" />
    <glyph glyph-name="atilde.alt" horiz-adv-x="483" 
d="M121 0l-83 83v339l83 83h143l69 -68l5 68h99v-505h-98l-6 69l-69 -69h-143zM195 92h63l47 47v227l-47 47h-63l-25 -25v-271zM100 550v72l42 43h78l50 -50h14l7 8v42h72v-72l-43 -43h-78l-50 49h-13l-8 -7v-42h-71z" />
    <glyph glyph-name="aring.alt" horiz-adv-x="483" 
d="M175 533l-36 36v79l36 37h114l36 -36v-80l-36 -36h-114zM205 575h53l11 11v46l-11 10h-53l-11 -10v-46zM121 0l-83 83v339l83 83h143l69 -68l5 68h99v-505h-98l-6 69l-69 -69h-143zM195 92h63l47 47v227l-47 47h-63l-25 -25v-271z" />
    <glyph glyph-name="abreve.alt" horiz-adv-x="483" 
d="M121 0l-83 83v339l83 83h143l69 -68l5 68h99v-505h-98l-6 69l-69 -69h-143zM195 92h63l47 47v227l-47 47h-63l-25 -25v-271zM148 549l-42 43v68h83v-37l11 -11h64l11 11v37h83v-68l-43 -43h-167z" />
    <glyph glyph-name="amacron.alt" horiz-adv-x="483" 
d="M121 0l-83 83v339l83 83h143l69 -68l5 68h99v-505h-98l-6 69l-69 -69h-143zM195 92h63l47 47v227l-47 47h-63l-25 -25v-271zM123 566v82h217v-82h-217z" />
    <glyph glyph-name="aogonek.alt" horiz-adv-x="483" 
d="M121 0l-83 83v339l83 83h143l69 -68l5 68h99v-505h-12l-71 -71v-39l7 -7h64v-54h-114l-35 34v76l63 63l-6 67l-69 -69h-143zM195 92h63l47 47v227l-47 47h-63l-25 -25v-271z" />
    <glyph glyph-name="g.alt" horiz-adv-x="469" 
d="M101 -172l-75 76v98l61 62l-31 31v46l38 38l-58 57v197l73 72h348v-87h-75l46 -46v-128l-78 -78h-167l-10 -10v-42l8 -8h198l76 -76v-126l-76 -76h-278zM186 248h92l20 20v129l-20 20h-92l-19 -20v-129zM174 -85h135l20 20v60l-20 20h-135l-20 -20v-60z" />
    <glyph glyph-name="gbreve.alt" horiz-adv-x="469" 
d="M101 -172l-75 76v98l61 62l-31 31v46l38 38l-58 57v197l73 72h348v-87h-75l46 -46v-128l-78 -78h-167l-10 -10v-42l8 -8h198l76 -76v-126l-76 -76h-278zM186 248h92l20 20v129l-20 20h-92l-19 -20v-129zM174 -85h135l20 20v60l-20 20h-135l-20 -20v-60zM157 549l-42 43
v68h83v-37l11 -11h64l11 11v37h83v-68l-43 -43h-167z" />
    <glyph glyph-name="gcircumflex.alt" horiz-adv-x="469" 
d="M114 547v54l70 70h113l70 -70v-54h-60l-63 64h-6l-64 -64h-60zM101 -172l-75 76v98l61 62l-31 31v46l38 38l-58 57v197l73 72h348v-87h-75l46 -46v-128l-78 -78h-167l-10 -10v-42l8 -8h198l76 -76v-126l-76 -76h-278zM186 248h92l20 20v129l-20 20h-92l-19 -20v-129z
M174 -85h135l20 20v60l-20 20h-135l-20 -20v-60z" />
    <glyph glyph-name="gcommaaccent.alt" horiz-adv-x="469" 
d="M284 682v-140h-87v104l36 36h51zM101 -172l-75 76v98l61 62l-31 31v46l38 38l-58 57v197l73 72h348v-87h-75l46 -46v-128l-78 -78h-167l-10 -10v-42l8 -8h198l76 -76v-126l-76 -76h-278zM186 248h92l20 20v129l-20 20h-92l-19 -20v-129zM174 -85h135l20 20v60l-20 20
h-135l-20 -20v-60z" />
    <glyph glyph-name="at.alt1" horiz-adv-x="881" 
d="M47 0v559l131 131h528l131 -131v-469l-90 -90h-202l-7 67l-67 -67h-162l-78 77v161l76 76h197v95l-26 26h-76l-23 -23v-52h-139v97l76 77h245l81 -81v-357h41l27 28v392l-74 73h-387l-74 -73v-516h-128zM393 97h69l42 43v88h-111l-24 -24v-82z" />
    <glyph glyph-name="at.alt2" horiz-adv-x="839" 
d="M172 -152l-130 130v553l130 130h496l130 -130v-441l-89 -90h-196l-6 69l-69 -69h-141l-83 83v339l83 83h141l69 -68l5 68h99v-420h40l28 28v380l-72 72h-372l-73 -72v-476l73 -72h388v-97h-451zM370 92h62l47 47v227l-47 47h-62l-24 -25v-271z" />
    <glyph glyph-name="at.alt3" horiz-adv-x="886" 
d="M47 0v559l131 131h533l131 -131v-469l-90 -90h-202l-8 68l-67 -68h-158l-81 81v372l81 81h158l67 -67l8 67h97v-438h41l27 28v392l-74 73h-392l-74 -73v-516h-128zM402 98h61l46 45v248l-46 45h-61l-28 -28v-282z" />
    <glyph glyph-name="ampersand.alt" horiz-adv-x="524" 
d="M125 0l-87 87v219l65 65l-64 64v168l87 87h250l87 -87v-103h-138v56l-29 29h-89l-30 -30v-94l15 -14l162 -118v83h138v-331l-81 -81h-286zM206 105h120l28 28v46l-155 110l-22 -22v-132z" />
    <glyph glyph-name="ordfeminine.alt" horiz-adv-x="341" 
d="M86 344l-59 59v228l59 59h103l46 -46l7 46h71v-346h-71l-7 46l-46 -46h-103zM143 414h47l27 27v153l-27 26h-47l-20 -19v-167z" />
    <glyph glyph-name="zero.tabular" 
d="M131 0l-91 91v508l91 91h227l92 -91v-508l-92 -91h-227zM198 103h93l30 30v424l-30 30h-93l-30 -30v-424z" />
    <glyph glyph-name="one.tabular" 
d="M67 0v102h122v486h-122v102h251v-588h116v-102h-367z" />
    <glyph glyph-name="two.tabular" 
d="M51 0v301l76 76h170l19 19v168l-23 23h-90l-22 -22v-82h-129v119l88 88h215l89 -89v-256l-75 -76h-170l-19 -19v-140h264v-110h-393z" />
    <glyph glyph-name="three.tabular" 
d="M124 0l-88 88v123h128v-85l27 -26h104l25 26v142l-31 32h-169v105h169l31 31v125l-26 26h-103l-27 -26v-81h-128v122l88 88h237l87 -87v-185l-64 -64l65 -65v-202l-87 -87h-238z" />
    <glyph glyph-name="four.tabular" 
d="M296 0v182h-271v81l83 427h119l-68 -402h137v402h129v-402h41v-106h-41v-182h-129z" />
    <glyph glyph-name="five.tabular" 
d="M135 0l-87 88v122h128v-79l28 -28h88l28 29v197l-22 22h-88l-44 -44h-118v383h392v-108h-264v-174l46 46h145l82 -82v-283l-89 -89h-225z" />
    <glyph glyph-name="six.tabular" 
d="M132 0l-90 90v510l90 90h232l88 -88v-110h-128v70l-26 26h-98l-29 -30v-176l49 49h147l85 -85v-256l-89 -90h-231zM198 103h98l28 28v171l-27 26h-93l-33 -33v-164z" />
    <glyph glyph-name="seven.tabular" 
d="M165 0v255l142 322h-268v113h411v-93l-156 -349v-248h-129z" />
    <glyph glyph-name="eight.tabular" 
d="M125 0l-87 87v198l69 69l-68 69v180l87 87h238l87 -87v-180l-68 -69l69 -69v-198l-87 -87h-240zM195 99h100l29 29v143l-33 33h-92l-33 -33v-143zM199 403h92l32 32v128l-28 28h-100l-28 -28v-128z" />
    <glyph glyph-name="nine.tabular" 
d="M126 0l-88 88v116h128v-76l26 -26h98l29 30v185l-49 -49h-147l-85 85v247l89 90h231l90 -90v-510l-90 -90h-232zM192 371h94l33 33v155l-27 28h-98l-28 -28v-162z" />
    <glyph glyph-name="plus.tabular" 
d="M64 293v105h127v135h109v-135h127v-105h-127v-136h-109v136h-127z" />
    <glyph glyph-name="minus.tabular" 
d="M92 289v114h307v-114h-307z" />
    <glyph glyph-name="multiply.tabular" 
d="M141 168l-73 73l103 103l-103 104l74 74l103 -104l103 104l74 -74l-104 -103l104 -104l-74 -73l-104 103z" />
    <glyph glyph-name="divide.tabular" 
d="M194 143v100h102v-100h-102zM69 290v109h352v-109h-352zM194 446v100h102v-100h-102z" />
    <glyph glyph-name="equal.tabular" 
d="M87 379v108h316v-108h-316zM87 198v108h316v-108h-316z" />
    <glyph glyph-name="greater.tabular" 
d="M426 281l-345 -152v120l238 96l-238 96v121l345 -153v-128z" />
    <glyph glyph-name="less.tabular" 
d="M409 129l-345 152v128l345 153v-121l-238 -96l238 -96v-120z" />
    <glyph glyph-name="numbersign.tabular" 
d="M104 164v107h-68v86h68v140h-68v87h68v106h97v-106h88v106h96v-106h68v-87h-68v-140h68v-86h-68v-107h-96v107h-88v-107h-97zM201 357h88v140h-88v-140z" />
    <glyph glyph-name="dollar.tabular" 
d="M129 20l-85 84v108h128v-65l25 -25h95l26 26v122l-22 22h-174l-75 75v218l86 85h53v98h119v-98h54l85 -84v-108h-128v65l-25 25h-90l-26 -26v-116l22 -22h173l76 -75v-224l-86 -85h-56v-98h-118v98h-57z" />
    <glyph glyph-name="cent.tabular" 
d="M136 72l-88 88v371l88 88h56v83h118v-83h55l87 -88v-122h-128v78l-28 28h-92l-28 -28v-286l28 -29h92l28 28v83h128v-124l-87 -87h-55v-84h-118v84h-56z" />
    <glyph glyph-name="sterling.tabular" 
d="M37 0v106l42 41v135h-44v107h44v210l91 91h196l91 -91v-129h-129v89l-27 27h-66l-28 -28v-169h148v-107h-148v-133l-38 -38h288v-111h-420z" />
    <glyph glyph-name="yen.tabular" 
d="M46 229v74h105l-127 387h138l87 -322l93 322h124l-127 -387h105v-74h-130l-5 -17v-24h135v-75h-135v-113h-128v113h-135v75h135v24l-6 17h-129z" />
    <glyph glyph-name="florin.tabular" 
d="M59 0v109h72l31 31v181h-101v112h101v166l92 91h176v-109h-108l-31 -31v-117h133v-112h-133v-230l-92 -91h-140z" />
    <glyph glyph-name="Euro.tabular" 
d="M24 372v77h40v150l91 91h213l90 -90v-119h-128v77l-28 28h-83l-27 -27v-110h152v-77h-152v-48h152v-76h-152v-120l27 -27h83l28 29v80h128v-120l-90 -90h-213l-91 91v157h-40v76h40v48h-40z" />
    <glyph glyph-name="section.tabular" 
d="M130 -104l-87 87v121h128v-80l26 -25h96l26 25v144h-226l-47 47v46h401v-276l-89 -89h-228zM46 326v275l89 89h224l86 -87v-121h-128v79l-26 26h-91l-26 -26v-142h225l47 -48v-45h-400z" />
    <glyph glyph-name="space.tabular" horiz-adv-x="244" 
 />
    <glyph glyph-name="colon.tabular" horiz-adv-x="244" 
d="M58 0v145h129v-145h-129zM58 283v145h129v-145h-129z" />
    <glyph glyph-name="semicolon.tabular" horiz-adv-x="244" 
d="M59 -108v56h44l8 7v45h-52v146h129v-206l-49 -48h-80zM59 282v146h129v-146h-129z" />
    <glyph glyph-name="comma.tabular" horiz-adv-x="244" 
d="M58 -108v56h44l8 7v45h-52v146h128v-206l-48 -48h-80z" />
    <glyph glyph-name="period.tabular" horiz-adv-x="244" 
d="M58 0v145h129v-145h-129z" />
    <glyph glyph-name="parenleft.tabular" horiz-adv-x="276" 
d="M137 -60l-85 85v639l85 85h113v-106h-43l-27 -27v-543l27 -27h43v-106h-113z" />
    <glyph glyph-name="parenright.tabular" horiz-adv-x="276" 
d="M224 25l-85 -85h-113v106h43l27 27v543l-27 27h-43v106h113l85 -85v-639z" />
    <glyph glyph-name="bracketleft.tabular" horiz-adv-x="276" 
d="M54 -60v809h197v-106h-69v-597h69v-106h-197z" />
    <glyph glyph-name="bracketright.tabular" horiz-adv-x="276" 
d="M222 749v-809h-197v106h69v597h-69v106h197z" />
    <glyph glyph-name="braceleft.tabular" horiz-adv-x="276" 
d="M147 -60l-85 85v252l-19 18h-42v113h42l19 19v237l85 85h113v-106h-44l-27 -27v-212l-51 -51l51 -51v-229l27 -27h44v-106h-113z" />
    <glyph glyph-name="braceright.tabular" horiz-adv-x="276" 
d="M214 25l-85 -85h-113v106h44l27 27v229l51 51l-51 51v212l-27 27h-44v106h113l85 -85v-237l19 -19h42v-113h-42l-19 -18v-252z" />
    <glyph glyph-name="zero.numerator" horiz-adv-x="356" 
d="M88 325l-57 57v251l57 57h180l57 -57v-251l-57 -57h-180zM149 401h58l19 19v175l-19 19h-58l-19 -19v-175z" />
    <glyph glyph-name="one.numerator" horiz-adv-x="282" 
d="M21 325v78h75v209h-72v78h171v-287h73v-78h-247z" />
    <glyph glyph-name="two.numerator" horiz-adv-x="341" 
d="M29 325v156l50 50h124l11 12v59l-15 14h-55l-15 -15v-30h-99v63l56 56h171l56 -56v-126l-50 -50h-123l-12 -12v-43h184v-78h-283z" />
    <glyph glyph-name="three.numerator" horiz-adv-x="340" 
d="M79 325l-57 56v57h100v-27l14 -15h63l16 16v50l-12 13h-113v69h112l12 12v48l-14 15h-64l-14 -15v-27h-99v57l56 56h178l56 -56v-85l-40 -39l40 -41v-88l-56 -56h-178z" />
    <glyph glyph-name="four.numerator" horiz-adv-x="349" 
d="M203 325v85h-189v54l60 226h89l-46 -205h86v205h98v-205h30v-75h-30v-85h-98z" />
    <glyph glyph-name="five.numerator" horiz-adv-x="350" 
d="M89 325l-57 56v63h100v-34l14 -15h59l15 15v76l-15 14h-56l-20 -20h-97v210h280v-75h-180v-74l25 26h108l54 -54v-132l-56 -56h-174z" />
    <glyph glyph-name="six.numerator" horiz-adv-x="354" 
d="M88 325l-57 56v252l57 57h179l56 -56v-52h-96v22l-17 17h-61l-19 -18v-77l27 27h119l49 -49v-123l-57 -56h-180zM148 394h61l17 18v66l-17 17h-61l-18 -17v-66z" />
    <glyph glyph-name="seven.numerator" horiz-adv-x="301" 
d="M92 325v134l83 147h-165v84h282v-61l-101 -176v-128h-99z" />
    <glyph glyph-name="eight.numerator" horiz-adv-x="355" 
d="M84 325l-56 56v89l41 41l-41 40v83l56 56h186l57 -56v-83l-41 -40l41 -41v-89l-57 -56h-186zM142 393h70l16 15v58l-12 12h-77l-13 -12v-58zM139 542h76l13 12v53l-15 15h-71l-15 -15v-53z" />
    <glyph glyph-name="nine.numerator" horiz-adv-x="354" 
d="M87 325l-56 56v56h96v-26l17 -17h61l19 19v79l-27 -27h-119l-49 49v120l57 56h180l57 -56v-252l-57 -57h-179zM145 523h61l18 17v63l-18 17h-61l-17 -17v-63z" />
    <glyph glyph-name="zero.denominator" horiz-adv-x="356" 
d="M88 1l-57 57v251l57 57h180l57 -57v-251l-57 -57h-180zM149 77h58l19 19v175l-19 19h-58l-19 -19v-175z" />
    <glyph glyph-name="one.denominator" horiz-adv-x="282" 
d="M21 1v78h75v209h-72v78h171v-287h73v-78h-247z" />
    <glyph glyph-name="two.denominator" horiz-adv-x="341" 
d="M29 1v156l50 50h124l11 12v59l-15 14h-55l-15 -15v-30h-99v63l56 56h171l56 -56v-126l-50 -50h-123l-12 -12v-43h184v-78h-283z" />
    <glyph glyph-name="three.denominator" horiz-adv-x="340" 
d="M79 1l-57 56v57h100v-27l14 -15h63l16 16v50l-12 13h-113v69h112l12 12v48l-14 15h-64l-14 -15v-27h-99v57l56 56h178l56 -56v-85l-40 -39l40 -41v-88l-56 -56h-178z" />
    <glyph glyph-name="four.denominator" horiz-adv-x="349" 
d="M203 1v85h-189v54l60 226h89l-46 -205h86v205h98v-205h30v-75h-30v-85h-98z" />
    <glyph glyph-name="five.denominator" horiz-adv-x="350" 
d="M89 1l-57 56v63h100v-34l14 -15h59l15 15v76l-15 14h-56l-20 -20h-97v210h280v-75h-180v-74l25 26h108l54 -54v-132l-56 -56h-174z" />
    <glyph glyph-name="six.denominator" horiz-adv-x="354" 
d="M88 1l-57 56v252l57 57h179l56 -56v-52h-96v22l-17 17h-61l-19 -18v-77l27 27h119l49 -49v-123l-57 -56h-180zM148 70h61l17 18v66l-17 17h-61l-18 -17v-66z" />
    <glyph glyph-name="seven.denominator" horiz-adv-x="301" 
d="M92 1v134l83 147h-165v84h282v-61l-101 -176v-128h-99z" />
    <glyph glyph-name="eight.denominator" horiz-adv-x="355" 
d="M84 1l-56 56v89l41 41l-41 40v83l56 56h186l57 -56v-83l-41 -40l41 -41v-89l-57 -56h-186zM142 69h70l16 15v58l-12 12h-77l-13 -12v-58zM139 218h76l13 12v53l-15 15h-71l-15 -15v-53z" />
    <glyph glyph-name="nine.denominator" horiz-adv-x="354" 
d="M87 1l-56 56v56h96v-26l17 -17h61l19 19v79l-27 -27h-119l-49 49v120l57 56h180l57 -56v-252l-57 -57h-179zM145 199h61l18 17v63l-18 17h-61l-17 -17v-63z" />
    </font>
</defs>
</svg>
