<?xml version="1.0" standalone="no"?>
<!DOCTYPE svg PUBLIC "-//W3C//DTD SVG 1.1//EN" "http://www.w3.org/Graphics/SVG/1.1/DTD/svg11.dtd" >
<svg xmlns="http://www.w3.org/2000/svg" xmlns:xlink="http://www.w3.org/1999/xlink" version="1.1">
<metadata>
Created by FontForge 20141024 at Sun Apr  5 18:49:57 2015
 By System Administrator
Copyright 2006 House Industries/Brand Design Co., Inc. All Rights Reserved.
</metadata>
<defs>
<font id="UnitedSansSemiCond-Light" horiz-adv-x="490" >
  <font-face 
    font-family="United Sans SmCd Lt"
    font-weight="300"
    font-stretch="normal"
    units-per-em="1000"
    panose-1="0 0 0 0 0 0 0 0 0 0"
    ascent="760"
    descent="-240"
    x-height="482"
    cap-height="690"
    bbox="-38 -170 811 849"
    underline-thickness="50"
    underline-position="-50"
    unicode-range="U+0020-FB02"
  />
<missing-glyph horiz-adv-x="541" 
d="M30 772h481v-854h-481v854zM223 320v-141h43v126l28 28h75l56 55v227l-74 75h-177l-73 -73v-97h44v82l50 50h135l51 -51v-198l-28 -28h-76zM223 108v-108h43v108h-43z" />
    <glyph glyph-name=".notdef" horiz-adv-x="541" 
d="M30 772h481v-854h-481v854zM223 320v-141h43v126l28 28h75l56 55v227l-74 75h-177l-73 -73v-97h44v82l50 50h135l51 -51v-198l-28 -28h-76zM223 108v-108h43v108h-43z" />
    <glyph glyph-name="eth" unicode="&#xf0;" horiz-adv-x="401" 
d="M129 0l-72 72v338l72 72h113l70 -70v130l-127 126v22h33l125 -125l68 68h8v-42l-66 -66v-453l-72 -72h-152zM148 36h114l50 49v279l-83 83h-81l-49 -50v-312z" />
    <glyph glyph-name="Lslash" unicode="&#x141;" horiz-adv-x="372" 
d="M20 292v43l64 33v322h44v-299l116 62v-44l-116 -61v-310h217v-38h-261v325z" />
    <glyph glyph-name="lslash" unicode="&#x142;" horiz-adv-x="194" 
d="M13 312v41l63 33v304h42v-282l63 34v-41l-63 -34v-367h-42v345z" />
    <glyph glyph-name="Scaron" unicode="&#x160;" horiz-adv-x="423" 
d="M183 745l-70 70v20h26l65 -65h11l65 65h27v-20l-71 -70h-53zM125 0l-73 73v96h43v-81l51 -50h130l51 51v206l-37 38h-173l-65 65v217l75 75h168l73 -73v-95h-43v80l-50 50h-127l-52 -51v-188l38 -38h172l65 -65v-235l-75 -75h-171z" />
    <glyph glyph-name="scaron" unicode="&#x161;" horiz-adv-x="382" 
d="M162 540l-70 70v20h26l65 -65h11l65 65h27v-20l-71 -70h-53zM115 0l-68 68v70h42v-57l45 -45h112l47 47v108l-34 34h-152l-57 57v131l69 69h143l68 -68v-69h-42v56l-45 45h-104l-47 -46v-105l34 -34h153l56 -57v-134l-70 -70h-150z" />
    <glyph glyph-name="Yacute" unicode="&#xdd;" horiz-adv-x="400" 
d="M178 0v236l-162 454h47l138 -396l140 396h43l-163 -454v-236h-43zM163 737v21l80 80h30v-21l-80 -80h-30z" />
    <glyph glyph-name="yacute" unicode="&#xfd;" horiz-adv-x="348" 
d="M141 0l-127 482h43l116 -454l118 454h41l-159 -600l-53 -52h-93v34h74l38 39l27 97h-25zM138 532v21l80 80h30v-21l-80 -80h-30z" />
    <glyph glyph-name="Thorn" unicode="&#xde;" horiz-adv-x="430" 
d="M74 0v690h44v-130h198l75 -75v-254l-75 -75h-198v-156h-44zM118 194h177l52 52v224l-52 52h-177v-328z" />
    <glyph glyph-name="thorn" unicode="&#xfe;" horiz-adv-x="422" 
d="M68 -170v860h41v-278l70 70h114l72 -72v-338l-72 -72h-115l-69 69v-239h-41zM191 36h82l50 49v312l-50 50h-81l-83 -83v-247z" />
    <glyph glyph-name="Zcaron" unicode="&#x17d;" horiz-adv-x="376" 
d="M159 745l-70 70v20h26l65 -65h11l65 65h27v-20l-71 -70h-53zM34 0v32l255 620h-248v38h296v-32l-256 -620h260v-38h-307z" />
    <glyph glyph-name="zcaron" unicode="&#x17e;" horiz-adv-x="331" 
d="M137 540l-70 70v20h26l65 -65h11l65 65h27v-20l-71 -70h-53zM30 0v28l222 419h-220v35h267v-28l-221 -419h223v-35h-271z" />
    <glyph glyph-name="onehalf" unicode="&#xbd;" horiz-adv-x="591" 
d="M32 354v32h80v272h-79v32h116v-304h76v-32h-193zM125 0l309 690h37l-309 -690h-37zM346 0v127l42 42h110l23 24v78l-33 33h-75l-29 -29v-43h-37v57l47 47h113l52 -52v-105l-42 -42h-109l-24 -23v-81h174v-33h-212z" />
    <glyph glyph-name="onequarter" unicode="&#xbc;" horiz-adv-x="598" 
d="M32 354v32h80v272h-79v32h116v-304h76v-32h-193zM125 0l309 690h37l-309 -690h-37zM504 0v84h-174v27l69 225h38l-65 -219h132v219h38v-219h39v-33h-39v-84h-38z" />
    <glyph glyph-name="onesuperior" unicode="&#xb9;" horiz-adv-x="249" 
d="M32 354v32h80v272h-79v32h116v-304h76v-32h-193z" />
    <glyph glyph-name="threequarters" unicode="&#xbe;" horiz-adv-x="606" 
d="M80 354l-47 47v56h38v-42l28 -29h84l32 33v60l-30 30h-96v32h96l30 31v53l-32 33h-84l-28 -29v-44h-38v58l47 47h122l51 -52v-77l-35 -36l35 -35v-84l-51 -52h-122zM133 0l309 690h37l-309 -690h-37zM512 0v84h-174v27l69 225h38l-65 -219h132v219h38v-219h39v-33h-39
v-84h-38z" />
    <glyph glyph-name="threesuperior" unicode="&#xb3;" horiz-adv-x="291" 
d="M80 354l-47 47v56h38v-42l28 -29h84l32 33v60l-30 30h-96v32h96l30 31v53l-32 33h-84l-28 -29v-44h-38v58l47 47h122l51 -52v-77l-35 -36l35 -35v-84l-51 -52h-122z" />
    <glyph glyph-name="twosuperior" unicode="&#xb2;" horiz-adv-x="283" 
d="M37 354v127l42 42h110l23 24v78l-33 33h-75l-29 -29v-43h-37v57l47 47h113l52 -52v-105l-42 -42h-109l-24 -23v-81h174v-33h-212z" />
    <glyph glyph-name="minus" unicode="&#x2212;" horiz-adv-x="279" 
d="M12 324v41h254v-41h-254z" />
    <glyph glyph-name="multiply" unicode="&#xd7;" horiz-adv-x="354" 
d="M55 194l-25 26l121 121l-121 121l26 27l121 -122l121 122l26 -27l-121 -121l121 -121l-25 -26l-122 121z" />
    <glyph glyph-name="space" unicode=" " horiz-adv-x="184" 
 />
    <glyph glyph-name="exclam" unicode="!" horiz-adv-x="199" 
d="M78 180v510h43v-510h-43zM78 0v108h43v-108h-43z" />
    <glyph glyph-name="quotedbl" unicode="&#x22;" horiz-adv-x="259" 
d="M165 451v239h41v-239h-41zM53 451v239h41v-239h-41z" />
    <glyph glyph-name="numbersign" unicode="#" horiz-adv-x="396" 
d="M101 183v124h-74v36h74v187h-74v36h74v124h39v-124h115v124h40v-124h75v-36h-75v-187h75v-36h-75v-124h-40v124h-115v-124h-39zM140 343h115v187h-115v-187z" />
    <glyph glyph-name="dollar" unicode="$" horiz-adv-x="422" 
d="M125 21l-73 73v95h43v-81l50 -49h130l52 51v186l-38 37h-172l-65 64v198l75 74h62v97h43v-97h63l73 -73v-95h-44v81l-50 49h-127l-51 -51v-167l38 -38h173l64 -64v-216l-74 -74h-65v-98h-43v98h-64z" />
    <glyph glyph-name="percent" unicode="%" horiz-adv-x="572" 
d="M92 365l-54 55v215l54 55h110l55 -55v-215l-55 -55h-110zM111 397h73l35 35v191l-35 35h-73l-35 -35v-191zM370 0l-55 55v215l55 55h110l54 -55v-215l-54 -55h-110zM388 32h74l35 35v191l-35 35h-74l-35 -35v-191zM113 0l307 690h37l-307 -690h-37z" />
    <glyph glyph-name="ampersand" unicode="&#x26;" horiz-adv-x="459" 
d="M131 0l-74 74v225l60 60l-59 60v197l73 74h183l73 -73v-91h-43v76l-50 50h-142l-50 -50v-169l54 -55h296v-38h-65v-266l-74 -74h-182zM152 38h141l51 51v251h-189l-54 -55v-196z" />
    <glyph glyph-name="quotesingle" unicode="'" horiz-adv-x="147" 
d="M53 451v239h41v-239h-41z" />
    <glyph glyph-name="parenleft" unicode="(" horiz-adv-x="237" 
d="M147 -55l-74 74v651l74 74h58v-38h-37l-51 -51v-621l51 -51h37v-38h-58z" />
    <glyph glyph-name="parenright" unicode=")" horiz-adv-x="237" 
d="M164 19l-74 -74h-58v38h37l51 51v621l-51 51h-37v38h58l74 -74v-651z" />
    <glyph glyph-name="asterisk" unicode="*" horiz-adv-x="323" 
d="M93 425l-28 20l75 97l-117 34l10 33l115 -42l-4 123h35l-4 -123l115 42l10 -33l-117 -34l75 -97l-28 -20l-69 101z" />
    <glyph glyph-name="plus" unicode="+" horiz-adv-x="326" 
d="M13 325v38h131v154h39v-154h130v-38h-130v-154h-39v154h-131z" />
    <glyph glyph-name="comma" unicode="," horiz-adv-x="175" 
d="M58 -87v31h15l10 10v46h-25v95h59v-152l-30 -30h-29z" />
    <glyph glyph-name="hyphen" unicode="-" horiz-adv-x="222" 
d="M12 323v42h198v-42h-198z" />
    <glyph glyph-name="period" unicode="." horiz-adv-x="175" 
d="M58 0v95h59v-95h-59z" />
    <glyph glyph-name="slash" unicode="/" horiz-adv-x="240" 
d="M11 -61l178 811h41l-179 -811h-40z" />
    <glyph glyph-name="zero" unicode="0" horiz-adv-x="461" 
d="M139 0l-77 77v536l77 77h183l76 -77v-536l-76 -77h-183zM160 38h141l54 54v506l-54 54h-141l-54 -54v-506z" />
    <glyph glyph-name="one" unicode="1" horiz-adv-x="335" 
d="M40 0v36h117v619h-117v35h161v-654h108v-36h-269z" />
    <glyph glyph-name="two" unicode="2" horiz-adv-x="407" 
d="M52 0v290l64 64h167l38 38v209l-52 51h-123l-50 -50v-80h-44v95l74 73h164l75 -75v-238l-65 -64h-167l-37 -38v-237h265v-38h-309z" />
    <glyph glyph-name="three" unicode="3" horiz-adv-x="428" 
d="M115 0l-73 73v111h43v-96l51 -50h140l51 51v196l-54 55h-160v38h159l54 55v169l-50 50h-140l-50 -50v-96h-44v111l73 73h181l74 -74v-197l-59 -60l60 -60v-225l-74 -74h-182z" />
    <glyph glyph-name="four" unicode="4" horiz-adv-x="423" 
d="M302 0v202h-277v31l101 457h44l-97 -450h229v450h44v-450h56v-38h-56v-202h-44z" />
    <glyph glyph-name="five" unicode="5" horiz-adv-x="426" 
d="M129 0l-73 73v113h44v-98l50 -50h130l52 51v266l-38 38h-139l-57 -57h-42v354h317v-38h-273v-265l48 47h163l64 -65v-294l-74 -75h-172z" />
    <glyph glyph-name="six" unicode="6" horiz-adv-x="447" 
d="M139 0l-77 77v536l77 77h181l74 -73v-107h-44v92l-50 50h-140l-54 -54v-240l57 57h166l65 -66v-273l-76 -76h-179zM160 38h138l53 53v243l-39 39h-145l-61 -61v-220z" />
    <glyph glyph-name="seven" unicode="7" horiz-adv-x="361" 
d="M139 0v242l151 410h-278v38h327v-30l-157 -420v-240h-43z" />
    <glyph glyph-name="eight" unicode="8" horiz-adv-x="454" 
d="M131 0l-74 74v226l60 60l-59 59v197l73 74h191l74 -74v-197l-59 -59l60 -60v-226l-74 -74h-192zM152 38h150l51 51v197l-54 54h-144l-54 -54v-197zM156 379h142l54 54v169l-50 50h-150l-50 -50v-169z" />
    <glyph glyph-name="nine" unicode="9" horiz-adv-x="447" 
d="M126 0l-73 73v108h44v-93l50 -50h140l54 54v251l-57 -57h-166l-65 66v262l75 76h179l77 -77v-536l-77 -77h-181zM135 328h145l61 61v209l-54 54h-138l-53 -53v-233z" />
    <glyph glyph-name="colon" unicode=":" horiz-adv-x="186" 
d="M64 0v95h59v-95h-59zM64 313v95h59v-95h-59z" />
    <glyph glyph-name="semicolon" unicode=";" horiz-adv-x="186" 
d="M64 -87v31h15l10 10v46h-25v95h59v-152l-30 -30h-29zM64 313v95h59v-95h-59z" />
    <glyph glyph-name="less" unicode="&#x3c;" horiz-adv-x="369" 
d="M333 170l-312 153v42l312 154v-42l-270 -133l270 -133v-41z" />
    <glyph glyph-name="equal" unicode="=" horiz-adv-x="355" 
d="M34 401v40h287v-40h-287zM34 246v39h287v-39h-287z" />
    <glyph glyph-name="greater" unicode="&#x3e;" horiz-adv-x="369" 
d="M348 323l-312 -153v41l270 133l-270 133v42l312 -154v-42z" />
    <glyph glyph-name="question" unicode="?" horiz-adv-x="388" 
d="M151 179v141l54 55h76l28 28v198l-51 51h-135l-50 -50v-82h-44v97l73 73h177l74 -75v-227l-56 -55h-75l-28 -28v-126h-43zM151 0v108h43v-108h-43z" />
    <glyph glyph-name="at" unicode="@" horiz-adv-x="648" 
d="M159 -114l-102 102v506l102 102h330l102 -102v-430l-64 -64h-99l-2 71l-71 -71h-116l-69 69v142l69 69h184v117l-49 50h-106l-46 -47v-56h-43v68l70 70h144l72 -72v-375h42l42 42v404l-79 79h-292l-79 -79v-480l79 -79h323v-36h-342zM258 36h88l77 77v131h-165l-46 -46
v-116z" />
    <glyph glyph-name="A" unicode="A" horiz-adv-x="415" 
d="M16 0l159 690h66l158 -690h-44l-49 217h-199l-48 -217h-43zM207 661l-91 -405h181z" />
    <glyph glyph-name="B" unicode="B" horiz-adv-x="459" 
d="M74 0v690h254l74 -74v-197l-60 -59l60 -60v-226l-73 -74h-255zM118 38h190l51 51v197l-55 54h-186v-302zM118 379h186l54 54v169l-51 50h-189v-273z" />
    <glyph glyph-name="C" unicode="C" horiz-adv-x="427" 
d="M139 0l-77 77v536l77 77h166l73 -74v-109h-43v94l-51 51h-124l-54 -54v-506l54 -54h124l51 51v97h43v-112l-73 -74h-166z" />
    <glyph glyph-name="D" unicode="D" horiz-adv-x="462" 
d="M74 0v690h249l77 -77v-536l-77 -77h-249zM118 38h184l54 54v506l-54 54h-184v-614z" />
    <glyph glyph-name="E" unicode="E" horiz-adv-x="401" 
d="M74 0v690h281v-38h-237v-286h222v-38h-222v-290h238v-38h-282z" />
    <glyph glyph-name="F" unicode="F" horiz-adv-x="374" 
d="M74 0v690h275v-38h-231v-291h216v-38h-216v-323h-44z" />
    <glyph glyph-name="G" unicode="G" horiz-adv-x="437" 
d="M139 0l-77 77v536l77 77h174l72 -73v-96h-44v82l-49 49h-132l-54 -54v-506l54 -54h130l54 54v211h-126v38h170v-264l-77 -77h-172z" />
    <glyph glyph-name="H" unicode="H" horiz-adv-x="470" 
d="M74 0v690h44v-325h234v325h44v-690h-44v322h-234v-322h-44z" />
    <glyph glyph-name="I" unicode="I" horiz-adv-x="316" 
d="M37 0v36h99v619h-99v35h242v-35h-99v-619h99v-36h-242z" />
    <glyph glyph-name="J" unicode="J" horiz-adv-x="295" 
d="M13 0v37h115l55 55v598h44v-613l-77 -77h-137z" />
    <glyph glyph-name="K" unicode="K" horiz-adv-x="450" 
d="M379 0l-157 361l-105 -184v-177h-44v690h44v-442l249 442h47l-162 -289l175 -401h-47z" />
    <glyph glyph-name="L" unicode="L" horiz-adv-x="362" 
d="M74 0v690h44v-652h218v-38h-262z" />
    <glyph glyph-name="M" unicode="M" horiz-adv-x="622" 
d="M73 0v690h69l169 -643l169 643h69v-690h-43v648l-171 -648h-51l-171 647v-647h-40z" />
    <glyph glyph-name="N" unicode="N" horiz-adv-x="480" 
d="M73 0v690h49l244 -606v606h41v-690h-49l-244 607v-607h-41z" />
    <glyph glyph-name="O" unicode="O" horiz-adv-x="461" 
d="M139 0l-77 77v536l77 77h183l76 -77v-536l-76 -77h-183zM160 38h141l54 54v506l-54 54h-141l-54 -54v-506z" />
    <glyph glyph-name="P" unicode="P" horiz-adv-x="417" 
d="M74 0v690h242l75 -75v-254l-75 -75h-198v-286h-44zM118 323h177l52 52v225l-52 52h-177v-329z" />
    <glyph glyph-name="Q" unicode="Q" horiz-adv-x="461" 
d="M360 -137l-82 83v54h-139l-77 77v536l77 77h183l76 -77v-536l-76 -77v-40l67 -68zM160 38h141l54 54v506l-54 54h-141l-54 -54v-506z" />
    <glyph glyph-name="R" unicode="R" horiz-adv-x="453" 
d="M74 0v690h249l75 -74v-226l-71 -71l75 -319h-45l-73 315h-166v-315h-44zM118 351h183l53 54v196l-51 51h-185v-301z" />
    <glyph glyph-name="S" unicode="S" horiz-adv-x="423" 
d="M125 0l-73 73v96h43v-81l51 -50h130l51 51v206l-37 38h-173l-65 65v217l75 75h168l73 -73v-95h-43v80l-50 50h-127l-52 -51v-188l38 -38h172l65 -65v-235l-75 -75h-171z" />
    <glyph glyph-name="T" unicode="T" horiz-adv-x="385" 
d="M171 0v653h-152v37h347v-37h-151v-653h-44z" />
    <glyph glyph-name="U" unicode="U" horiz-adv-x="456" 
d="M145 0l-77 77v613h44v-598l54 -54h124l54 54v598h43v-613l-77 -77h-165z" />
    <glyph glyph-name="V" unicode="V" horiz-adv-x="386" 
d="M161 0l-145 690h45l134 -654l132 654h42l-143 -690h-65z" />
    <glyph glyph-name="W" unicode="W" horiz-adv-x="585" 
d="M120 0l-101 690h43l91 -649l112 649h60l110 -649l90 649h41l-101 -690h-60l-111 644l-112 -644h-62z" />
    <glyph glyph-name="X" unicode="X" horiz-adv-x="412" 
d="M28 0l148 352l-146 338h45l130 -305l132 305h44l-147 -336l150 -354h-45l-134 318l-133 -318h-44z" />
    <glyph glyph-name="Y" unicode="Y" horiz-adv-x="400" 
d="M178 0v236l-162 454h47l138 -396l140 396h43l-163 -454v-236h-43z" />
    <glyph glyph-name="Z" unicode="Z" horiz-adv-x="375" 
d="M34 0v32l255 620h-248v38h296v-32l-256 -620h260v-38h-307z" />
    <glyph glyph-name="bracketleft" unicode="[" horiz-adv-x="236" 
d="M74 -55v799h131v-38h-87v-723h87v-38h-131z" />
    <glyph glyph-name="backslash" unicode="\" horiz-adv-x="240" 
d="M51 750l178 -811h-40l-179 811h41z" />
    <glyph glyph-name="bracketright" unicode="]" horiz-adv-x="236" 
d="M162 744v-799h-131v38h87v723h-87v38h131z" />
    <glyph glyph-name="asciicircum" unicode="^" horiz-adv-x="343" 
d="M22 360l125 330h50l125 -330h-44l-107 291l-105 -291h-44z" />
    <glyph glyph-name="underscore" unicode="_" horiz-adv-x="357" 
d="M-6 -76v31h369v-31h-369z" />
    <glyph glyph-name="grave" unicode="`" horiz-adv-x="236" 
d="M143 532l-80 80v21h31l80 -80v-21h-31z" />
    <glyph glyph-name="a" unicode="a" horiz-adv-x="407" 
d="M118 0l-68 69v142l68 69h185v117l-50 50h-105l-47 -47v-56h-43v68l70 70h145l72 -72v-410h-38l-2 71l-71 -71h-116zM138 36h87l78 77v131h-165l-47 -46v-116z" />
    <glyph glyph-name="b" unicode="b" horiz-adv-x="422" 
d="M68 0v690h41v-278l70 70h114l72 -72v-338l-72 -72h-115l-71 71l-2 -71h-37zM190 36h83l50 49v312l-50 50h-81l-83 -83v-247z" />
    <glyph glyph-name="c" unicode="c" horiz-adv-x="389" 
d="M129 0l-72 72v338l72 72h141l69 -70v-81h-41v68l-48 47h-102l-49 -49v-312l49 -49h102l48 47v69h41v-82l-69 -70h-141z" />
    <glyph glyph-name="d" unicode="d" horiz-adv-x="422" 
d="M129 0l-72 72v338l72 72h113l70 -70v278h42v-690h-37l-2 71l-71 -71h-115zM148 36h83l81 81v247l-82 83h-82l-49 -50v-312z" />
    <glyph glyph-name="e" unicode="e" horiz-adv-x="397" 
d="M129 0l-72 72v338l72 72h149l72 -72v-176h-251v-149l49 -49h114l46 46v57h42v-70l-69 -69h-152zM99 269h209v128l-50 50h-110l-49 -50v-128z" />
    <glyph glyph-name="f" unicode="f" horiz-adv-x="267" 
d="M85 0v447h-65v35h65v137l71 71h111v-35h-91l-49 -49v-124h129v-35h-129v-447h-42z" />
    <glyph glyph-name="g" unicode="g" horiz-adv-x="422" 
d="M130 -170l-68 68v55h41v-42l47 -46h113l49 49v182l-69 -69h-114l-72 72v311l72 72h115l71 -71l2 71h37v-581l-72 -71h-152zM148 62h86l78 78v225l-81 82h-83l-49 -50v-285z" />
    <glyph glyph-name="h" unicode="h" horiz-adv-x="413" 
d="M68 0v690h41v-279l71 71h99l72 -72v-410h-41v397l-50 50h-68l-83 -84v-363h-41z" />
    <glyph glyph-name="i" unicode="i" horiz-adv-x="193" 
d="M117 0h-41v482h41v-482zM76 574v98h41v-98h-41z" />
    <glyph glyph-name="j" unicode="j" horiz-adv-x="193" 
d="M-38 -170v35h65l49 48v569h41v-582l-70 -70h-85zM76 574v98h41v-98h-41z" />
    <glyph glyph-name="k" unicode="k" horiz-adv-x="399" 
d="M326 0l-120 268l-97 -136v-132h-42v690h42v-498l201 290h47l-124 -179l137 -303h-44z" />
    <glyph glyph-name="l" unicode="l" horiz-adv-x="194" 
d="M118 0h-42v690h42v-690z" />
    <glyph glyph-name="m" unicode="m" horiz-adv-x="627" 
d="M68 0v482h37l2 -73l73 73h85l65 -65l66 65h97l72 -72v-410h-42v397l-49 50h-67l-70 -71v-376h-42v397l-49 50h-53l-84 -84v-363h-41z" />
    <glyph glyph-name="n" unicode="n" horiz-adv-x="413" 
d="M68 0v482h37l2 -73l73 73h99l72 -72v-410h-41v397l-50 50h-67l-84 -84v-363h-41z" />
    <glyph glyph-name="o" unicode="o" horiz-adv-x="410" 
d="M129 0l-72 72v338l72 72h152l72 -72v-338l-72 -72h-152zM148 36h114l50 49v312l-50 50h-114l-49 -50v-312z" />
    <glyph glyph-name="p" unicode="p" horiz-adv-x="422" 
d="M68 -170v652h37l2 -72l72 72h114l72 -72v-338l-72 -72h-115l-69 69v-239h-41zM191 36h82l50 49v312l-50 50h-81l-83 -83v-247z" />
    <glyph glyph-name="q" unicode="q" horiz-adv-x="422" 
d="M312 -170v239l-69 -69h-114l-72 72v338l72 72h114l72 -72l2 72h37v-652h-42zM148 36h83l81 81v247l-82 83h-82l-49 -50v-312z" />
    <glyph glyph-name="r" unicode="r" horiz-adv-x="285" 
d="M68 0v482h37l2 -75l75 75h81v-38h-70l-84 -83v-361h-41z" />
    <glyph glyph-name="s" unicode="s" horiz-adv-x="382" 
d="M115 0l-68 68v70h42v-57l45 -45h112l47 47v108l-34 34h-152l-57 57v131l69 69h143l68 -68v-69h-42v56l-45 45h-104l-47 -46v-105l34 -34h153l56 -57v-134l-70 -70h-150z" />
    <glyph glyph-name="t" unicode="t" horiz-adv-x="313" 
d="M162 0l-72 72v375h-68v35h68v153h41v-153h147v-35h-147v-362l50 -49h97v-36h-116z" />
    <glyph glyph-name="u" unicode="u" horiz-adv-x="413" 
d="M134 0l-72 72v410h42v-397l49 -49h68l83 83v363h42v-482h-38l-2 73l-73 -73h-99z" />
    <glyph glyph-name="v" unicode="v" horiz-adv-x="345" 
d="M141 0l-127 482h42l117 -455l118 455h41l-128 -482h-63z" />
    <glyph glyph-name="w" unicode="w" horiz-adv-x="522" 
d="M103 0l-88 482h42l79 -453l99 453h58l97 -453l81 453h37l-88 -482h-61l-96 448l-98 -448h-62z" />
    <glyph glyph-name="x" unicode="x" horiz-adv-x="369" 
d="M299 0l-116 217l-114 -217h-44l132 245l-127 237h45l110 -211l111 211h42l-127 -236l133 -246h-45z" />
    <glyph glyph-name="y" unicode="y" horiz-adv-x="346" 
d="M141 0l-127 482h43l116 -454l118 454h41l-159 -600l-53 -52h-93v34h74l38 39l27 97h-25z" />
    <glyph glyph-name="z" unicode="z" horiz-adv-x="331" 
d="M30 0v28l222 419h-220v35h267v-28l-221 -419h223v-35h-271z" />
    <glyph glyph-name="braceleft" unicode="{" horiz-adv-x="261" 
d="M172 -55l-75 74v278l-37 38h-47v39h46l38 39v257l75 74h57v-38h-37l-51 -51v-253l-47 -47l47 -47v-274l51 -51h37v-38h-57z" />
    <glyph glyph-name="bar" unicode="|" horiz-adv-x="220" 
d="M88 -61v811h44v-811h-44z" />
    <glyph glyph-name="braceright" unicode="}" horiz-adv-x="261" 
d="M164 19l-75 -74h-57v38h37l51 51v274l47 47l-47 47v253l-51 51h-37v38h57l75 -74v-257l38 -39h46v-39h-47l-37 -38v-278z" />
    <glyph glyph-name="asciitilde" unicode="~" horiz-adv-x="372" 
d="M24 566v66l58 58h70l90 -90h30l36 36v54h41v-66l-58 -58h-71l-89 89h-30l-36 -36v-53h-41z" />
    <glyph glyph-name="Adieresis" unicode="&#xc4;" horiz-adv-x="415" 
d="M16 0l159 690h66l158 -690h-44l-49 217h-199l-48 -217h-43zM207 661l-91 -405h181zM247 747v78h39v-78h-39zM127 747v78h38v-78h-38z" />
    <glyph glyph-name="Aring" unicode="&#xc5;" horiz-adv-x="415" 
d="M16 0l159 690h66l158 -690h-44l-49 217h-199l-48 -217h-43zM207 661l-91 -405h181zM172 727l-31 32v59l31 31h69l31 -31v-59l-31 -32h-69zM185 751h43l16 16v43l-16 16h-43l-17 -16v-43z" />
    <glyph glyph-name="Ccedilla" unicode="&#xc7;" horiz-adv-x="427" 
d="M139 0l-77 77v536l77 77h166l73 -74v-109h-43v94l-51 51h-124l-54 -54v-506l54 -54h124l51 51v97h43v-112l-73 -74h-75v-43h39l29 -29v-50l-29 -29h-94v27h75l14 14v27l-14 14h-42l-11 11v58h-58z" />
    <glyph glyph-name="Eacute" unicode="&#xc9;" horiz-adv-x="401" 
d="M74 0v690h281v-38h-237v-286h222v-38h-222v-290h238v-38h-282zM178 737v21l80 80h30v-21l-80 -80h-30z" />
    <glyph glyph-name="Ntilde" unicode="&#xd1;" horiz-adv-x="484" 
d="M73 0v690h49l244 -606v606h41v-690h-49l-244 607v-607h-41zM139 749v41l35 36h53l49 -49h17l19 19v30h33v-42l-35 -35h-52l-50 49h-17l-18 -19v-30h-34z" />
    <glyph glyph-name="Odieresis" unicode="&#xd6;" horiz-adv-x="461" 
d="M271 747v78h39v-78h-39zM151 747v78h38v-78h-38zM139 0l-77 77v536l77 77h183l76 -77v-536l-76 -77h-183zM160 38h141l54 54v506l-54 54h-141l-54 -54v-506z" />
    <glyph glyph-name="Udieresis" unicode="&#xdc;" horiz-adv-x="456" 
d="M268 747v78h39v-78h-39zM148 747v78h38v-78h-38zM145 0l-77 77v613h44v-598l54 -54h124l54 54v598h43v-613l-77 -77h-165z" />
    <glyph glyph-name="aacute" unicode="&#xe1;" horiz-adv-x="407" 
d="M118 0l-68 69v142l68 69h185v117l-50 50h-105l-47 -47v-56h-43v68l70 70h145l72 -72v-410h-38l-2 71l-71 -71h-116zM138 36h87l78 77v131h-165l-47 -46v-116zM161 532v21l80 80h30v-21l-80 -80h-30z" />
    <glyph glyph-name="agrave" unicode="&#xe0;" horiz-adv-x="407" 
d="M118 0l-68 69v142l68 69h185v117l-50 50h-105l-47 -47v-56h-43v68l70 70h145l72 -72v-410h-38l-2 71l-71 -71h-116zM138 36h87l78 77v131h-165l-47 -46v-116zM200 532l-80 80v21h31l80 -80v-21h-31z" />
    <glyph glyph-name="acircumflex" unicode="&#xe2;" horiz-adv-x="407" 
d="M118 0l-68 69v142l68 69h185v117l-50 50h-105l-47 -47v-56h-43v68l70 70h145l72 -72v-410h-38l-2 71l-71 -71h-116zM138 36h87l78 77v131h-165l-47 -46v-116zM98 540v19l70 71h53l71 -71v-19h-27l-65 65h-11l-65 -65h-26z" />
    <glyph glyph-name="adieresis" unicode="&#xe4;" horiz-adv-x="407" 
d="M118 0l-68 69v142l68 69h185v117l-50 50h-105l-47 -47v-56h-43v68l70 70h145l72 -72v-410h-38l-2 71l-71 -71h-116zM138 36h87l78 77v131h-165l-47 -46v-116zM237 542v78h39v-78h-39zM117 542v78h38v-78h-38z" />
    <glyph glyph-name="atilde" unicode="&#xe3;" horiz-adv-x="407" 
d="M118 0l-68 69v142l68 69h185v117l-50 50h-105l-47 -47v-56h-43v68l70 70h145l72 -72v-410h-38l-2 71l-71 -71h-116zM138 36h87l78 77v131h-165l-47 -46v-116zM95 544v41l35 36h53l49 -49h17l19 19v30h33v-42l-35 -35h-52l-50 49h-17l-18 -19v-30h-34z" />
    <glyph glyph-name="aring" unicode="&#xe5;" horiz-adv-x="407" 
d="M118 0l-68 69v142l68 69h185v117l-50 50h-105l-47 -47v-56h-43v68l70 70h145l72 -72v-410h-38l-2 71l-71 -71h-116zM138 36h87l78 77v131h-165l-47 -46v-116zM163 522l-31 32v59l31 31h69l31 -31v-59l-31 -32h-69zM176 546h43l16 16v43l-16 16h-43l-17 -16v-43z" />
    <glyph glyph-name="ccedilla" unicode="&#xe7;" horiz-adv-x="389" 
d="M129 0l-72 72v338l72 72h141l69 -70v-81h-41v68l-48 47h-102l-49 -49v-312l49 -49h102l48 47v69h41v-82l-69 -70h-59v-43h39l29 -29v-50l-29 -29h-94v27h75l14 14v27l-14 14h-42l-11 11v58h-49z" />
    <glyph glyph-name="eacute" unicode="&#xe9;" horiz-adv-x="397" 
d="M129 0l-72 72v338l72 72h149l72 -72v-176h-251v-149l49 -49h114l46 46v57h42v-70l-69 -69h-152zM99 269h209v128l-50 50h-110l-49 -50v-128zM167 532v21l80 80h30v-21l-80 -80h-30z" />
    <glyph glyph-name="egrave" unicode="&#xe8;" horiz-adv-x="397" 
d="M129 0l-72 72v338l72 72h149l72 -72v-176h-251v-149l49 -49h114l46 46v57h42v-70l-69 -69h-152zM99 269h209v128l-50 50h-110l-49 -50v-128zM207 532l-80 80v21h31l80 -80v-21h-31z" />
    <glyph glyph-name="ecircumflex" unicode="&#xea;" horiz-adv-x="397" 
d="M105 540v19l70 71h53l71 -71v-19h-27l-65 65h-11l-65 -65h-26zM129 0l-72 72v338l72 72h149l72 -72v-176h-251v-149l49 -49h114l46 46v57h42v-70l-69 -69h-152zM99 269h209v128l-50 50h-110l-49 -50v-128z" />
    <glyph glyph-name="edieresis" unicode="&#xeb;" horiz-adv-x="397" 
d="M243 542v78h39v-78h-39zM123 542v78h38v-78h-38zM129 0l-72 72v338l72 72h149l72 -72v-176h-251v-149l49 -49h114l46 46v57h42v-70l-69 -69h-152zM99 269h209v128l-50 50h-110l-49 -50v-128z" />
    <glyph glyph-name="iacute" unicode="&#xed;" horiz-adv-x="193" 
d="M117 0h-41v482h41v-482zM61 532v21l80 80h30v-21l-80 -80h-30z" />
    <glyph glyph-name="igrave" unicode="&#xec;" horiz-adv-x="193" 
d="M117 0h-41v482h41v-482zM100 532l-80 80v21h31l80 -80v-21h-31z" />
    <glyph glyph-name="icircumflex" unicode="&#xee;" horiz-adv-x="193" 
d="M-2 540v19l70 71h53l71 -71v-19h-27l-65 65h-11l-65 -65h-26zM117 0h-41v482h41v-482z" />
    <glyph glyph-name="idieresis" unicode="&#xef;" horiz-adv-x="193" 
d="M137 542v78h39v-78h-39zM17 542v78h38v-78h-38zM117 0h-41v482h41v-482z" />
    <glyph glyph-name="ntilde" unicode="&#xf1;" horiz-adv-x="413" 
d="M68 0v482h37l2 -73l73 73h99l72 -72v-410h-41v397l-50 50h-67l-84 -84v-363h-41zM113 544v41l35 36h53l49 -49h17l19 19v30h33v-42l-35 -35h-52l-50 49h-17l-18 -19v-30h-34z" />
    <glyph glyph-name="oacute" unicode="&#xf3;" horiz-adv-x="410" 
d="M129 0l-72 72v338l72 72h152l72 -72v-338l-72 -72h-152zM148 36h114l50 49v312l-50 50h-114l-49 -50v-312zM169 532v21l80 80h30v-21l-80 -80h-30z" />
    <glyph glyph-name="ograve" unicode="&#xf2;" horiz-adv-x="410" 
d="M129 0l-72 72v338l72 72h152l72 -72v-338l-72 -72h-152zM148 36h114l50 49v312l-50 50h-114l-49 -50v-312zM208 532l-80 80v21h31l80 -80v-21h-31z" />
    <glyph glyph-name="ocircumflex" unicode="&#xf4;" horiz-adv-x="410" 
d="M106 540v19l70 71h53l71 -71v-19h-27l-65 65h-11l-65 -65h-26zM129 0l-72 72v338l72 72h152l72 -72v-338l-72 -72h-152zM148 36h114l50 49v312l-50 50h-114l-49 -50v-312z" />
    <glyph glyph-name="odieresis" unicode="&#xf6;" horiz-adv-x="410" 
d="M245 542v78h39v-78h-39zM125 542v78h38v-78h-38zM129 0l-72 72v338l72 72h152l72 -72v-338l-72 -72h-152zM148 36h114l50 49v312l-50 50h-114l-49 -50v-312z" />
    <glyph glyph-name="otilde" unicode="&#xf5;" horiz-adv-x="410" 
d="M129 0l-72 72v338l72 72h152l72 -72v-338l-72 -72h-152zM148 36h114l50 49v312l-50 50h-114l-49 -50v-312zM103 544v41l35 36h53l49 -49h17l19 19v30h33v-42l-35 -35h-52l-50 49h-17l-18 -19v-30h-34z" />
    <glyph glyph-name="uacute" unicode="&#xfa;" horiz-adv-x="413" 
d="M134 0l-72 72v410h42v-397l49 -49h68l83 83v363h42v-482h-38l-2 73l-73 -73h-99zM167 532v21l80 80h30v-21l-80 -80h-30z" />
    <glyph glyph-name="ugrave" unicode="&#xf9;" horiz-adv-x="413" 
d="M134 0l-72 72v410h42v-397l49 -49h68l83 83v363h42v-482h-38l-2 73l-73 -73h-99zM207 532l-80 80v21h31l80 -80v-21h-31z" />
    <glyph glyph-name="ucircumflex" unicode="&#xfb;" horiz-adv-x="413" 
d="M105 540v19l70 71h53l71 -71v-19h-27l-65 65h-11l-65 -65h-26zM134 0l-72 72v410h42v-397l49 -49h68l83 83v363h42v-482h-38l-2 73l-73 -73h-99z" />
    <glyph glyph-name="udieresis" unicode="&#xfc;" horiz-adv-x="413" 
d="M244 542v78h39v-78h-39zM124 542v78h38v-78h-38zM134 0l-72 72v410h42v-397l49 -49h68l83 83v363h42v-482h-38l-2 73l-73 -73h-99z" />
    <glyph glyph-name="dagger" unicode="&#x2020;" horiz-adv-x="237" 
d="M98 273v285h-72v34h72v98h41v-98h71v-34h-71v-285h-41z" />
    <glyph glyph-name="degree" unicode="&#xb0;" horiz-adv-x="235" 
d="M75 489l-46 46v109l46 46h85l46 -46v-109l-46 -46h-85zM90 519h54l26 26v89l-26 26h-54l-26 -26v-89z" />
    <glyph glyph-name="cent" unicode="&#xa2;" horiz-adv-x="410" 
d="M133 68l-77 77v401l77 77h60v92h43v-92h60l74 -74v-107h-44v92l-51 51h-121l-54 -53v-373l54 -53h121l51 51v95h44v-110l-74 -74h-60v-94h-43v94h-60z" />
    <glyph glyph-name="sterling" unicode="&#xa3;" horiz-adv-x="419" 
d="M36 0v35l48 48v239h-51v38h51v253l77 77h149l74 -73v-120h-44v105l-50 50h-108l-54 -54v-238h154v-38h-154v-246l-38 -38h294v-38h-348z" />
    <glyph glyph-name="section" unicode="&#xa7;" horiz-adv-x="419" 
d="M124 -97l-73 73v127h44v-112l50 -50h131l51 51v223h-255l-20 20v18h319v-276l-75 -74h-172zM52 346v269l74 75h169l74 -73v-127h-44v112l-50 50h-128l-51 -51v-217h252l20 -20v-18h-316z" />
    <glyph glyph-name="bullet" unicode="&#x2022;" horiz-adv-x="196" 
d="M69 278l-36 36v62l36 36h58l36 -36v-62l-36 -36h-58z" />
    <glyph glyph-name="paragraph" unicode="&#xb6;" horiz-adv-x="534" 
d="M132 206h148v446h-148l-52 -52v-342zM416 652h-92v-750h-44v266h-169l-75 75v372l75 75h349v-788h-44v750z" />
    <glyph glyph-name="germandbls" unicode="&#xdf;" horiz-adv-x="435" 
d="M68 0v618l72 72h171l72 -72v-197l-54 -54l54 -53v-242l-72 -72h-143v36h123l50 49v216l-48 49h-125v35h125l48 48v172l-50 49h-132l-50 -49v-605h-41z" />
    <glyph glyph-name="registered" unicode="&#xae;" horiz-adv-x="345" 
d="M114 371v248h88l35 -35v-77l-28 -28l32 -108h-30l-31 103h-36v-103h-30zM92 299l-60 60v271l60 60h162l59 -60v-271l-59 -60h-162zM105 324h136l42 43v255l-42 43h-136l-43 -43v-255zM144 500h46l17 16v60l-18 17h-45v-93z" />
    <glyph glyph-name="copyright" unicode="&#xa9;" horiz-adv-x="594" 
d="M233 120l-50 50v353l50 50h128l49 -50v-96h-44v82l-26 26h-86l-27 -27v-324l27 -27h86l26 27v82h44v-97l-49 -49h-128zM139 0l-77 77v536l77 77h316l77 -77v-536l-77 -77h-316zM159 37h276l55 54v508l-55 54h-276l-54 -54v-508z" />
    <glyph glyph-name="trademark" unicode="&#x2122;" horiz-adv-x="438" 
d="M72 402v263h-66v25h160v-25h-65v-263h-29zM192 402v288h43l61 -263l59 263h44v-288h-27v259l-58 -259h-38l-59 258v-258h-25z" />
    <glyph glyph-name="acute" unicode="&#xb4;" horiz-adv-x="236" 
d="M63 532v21l80 80h30v-21l-80 -80h-30z" />
    <glyph glyph-name="dieresis" unicode="&#xa8;" horiz-adv-x="284" 
d="M183 542v78h39v-78h-39zM63 542v78h38v-78h-38z" />
    <glyph glyph-name="AE" unicode="&#xc6;" horiz-adv-x="595" 
d="M16 0l159 690h377v-38h-303l66 -287h222v-37h-214l67 -290h163v-38h-198l-49 217h-199l-48 -217h-43zM207 661l-91 -405h181z" />
    <glyph glyph-name="Oslash" unicode="&#xd8;" horiz-adv-x="461" 
d="M139 0l-77 77v536l77 77h182l77 -77v-536l-77 -77h-182zM160 38h141l54 54v506l-12 12l-195 -560zM118 80l195 560l-12 12h-141l-54 -54v-506z" />
    <glyph glyph-name="yen" unicode="&#xa5;" horiz-adv-x="400" 
d="M41 231v35h126l-151 424h47l138 -395l140 395h43l-152 -424h126v-35h-137v-69h137v-35h-137v-127h-43v127h-137v35h137v69h-137z" />
    <glyph glyph-name="ordfeminine" unicode="&#xaa;" horiz-adv-x="300" 
d="M93 345l-56 55v92l56 56h131v73l-38 38h-72l-33 -33v-34h-38v46l52 52h110l57 -57v-288h-35l-1 57l-57 -57h-76zM113 376h45l66 65v76h-112l-36 -37v-68z" />
    <glyph glyph-name="ordmasculine" unicode="&#xba;" horiz-adv-x="300" 
d="M94 345l-57 57v231l57 57h111l57 -57v-231l-57 -57h-111zM114 376h72l38 38v207l-38 38h-72l-38 -38v-207z" />
    <glyph glyph-name="ae" unicode="&#xe6;" horiz-adv-x="643" 
d="M118 0l-68 69v137l68 68h185v123l-50 50h-105l-47 -47v-56h-43v68l70 70h143l52 -52l52 52h149l72 -72v-171h-251v-154l49 -49h113l47 46v57h42v-70l-69 -69h-152l-52 52l-52 -52h-153zM138 36h115l50 49v154h-165l-47 -47v-110zM345 274h209v123l-50 50h-110l-49 -50
v-123z" />
    <glyph glyph-name="oslash" unicode="&#xf8;" horiz-adv-x="409" 
d="M129 0l-72 72v338l72 72h152l72 -72v-338l-72 -72h-152zM148 36h114l50 49v311l-13 13l-163 -361zM110 74l164 360l-13 13h-113l-49 -50v-312z" />
    <glyph glyph-name="questiondown" unicode="&#xbf;" horiz-adv-x="388" 
d="M237 511v-141l-54 -55h-76l-28 -28v-198l51 -51h135l50 50v82h44v-97l-73 -73h-177l-74 75v227l56 55h75l28 28v126h43zM237 690v-108h-43v108h43z" />
    <glyph glyph-name="exclamdown" unicode="&#xa1;" horiz-adv-x="199" 
d="M121 510v-510h-43v510h43zM121 690v-108h-43v108h43z" />
    <glyph glyph-name="florin" unicode="&#x192;" horiz-adv-x="330" 
d="M22 0v38h53l46 46v302h-93v37h93v192l75 75h107v-38h-86l-53 -52v-177h132v-37h-132v-317l-69 -69h-73z" />
    <glyph glyph-name="guillemotleft" unicode="&#xab;" horiz-adv-x="306" 
d="M125 147l-102 201l102 202h44l-102 -202l102 -201h-44zM233 147l-102 201l102 202h44l-101 -202l101 -201h-44z" />
    <glyph glyph-name="guillemotright" unicode="&#xbb;" horiz-adv-x="306" 
d="M283 348l-102 -201h-44l102 201l-102 202h44zM175 348l-102 -201h-44l101 201l-101 202h44z" />
    <glyph glyph-name="ellipsis" unicode="&#x2026;" horiz-adv-x="471" 
d="M49 0v95h59v-95h-59zM206 0v95h59v-95h-59zM363 0v95h59v-95h-59z" />
    <glyph glyph-name="Agrave" unicode="&#xc0;" horiz-adv-x="415" 
d="M16 0l159 690h66l158 -690h-44l-49 217h-199l-48 -217h-43zM207 661l-91 -405h181zM211 737l-80 80v21h31l80 -80v-21h-31z" />
    <glyph glyph-name="Atilde" unicode="&#xc3;" horiz-adv-x="415" 
d="M16 0l159 690h66l158 -690h-44l-49 217h-199l-48 -217h-43zM207 661l-91 -405h181zM104 749v41l35 36h53l49 -49h17l19 19v30h33v-42l-35 -35h-52l-50 49h-17l-18 -19v-30h-34z" />
    <glyph glyph-name="Otilde" unicode="&#xd5;" horiz-adv-x="461" 
d="M139 0l-77 77v536l77 77h183l76 -77v-536l-76 -77h-183zM160 38h141l54 54v506l-54 54h-141l-54 -54v-506zM128 749v41l35 36h53l49 -49h17l19 19v30h33v-42l-35 -35h-52l-50 49h-17l-18 -19v-30h-34z" />
    <glyph glyph-name="OE" unicode="&#x152;" horiz-adv-x="672" 
d="M139 0l-77 77v536l77 77h487v-38h-237v-286h222v-38h-222v-290h239v-38h-489zM160 38h186v614h-186l-54 -54v-506z" />
    <glyph glyph-name="oe" unicode="&#x153;" horiz-adv-x="652" 
d="M129 0l-72 72v338l72 72h151l52 -52l52 52h148l72 -72v-176h-251v-149l50 -49h113l47 46v57h41v-70l-68 -69h-152l-52 52l-52 -52h-151zM148 36h114l50 49v312l-50 50h-114l-49 -50v-312zM353 269h210v128l-50 50h-110l-50 -50v-128z" />
    <glyph glyph-name="endash" unicode="&#x2013;" horiz-adv-x="309" 
d="M12 323v42h284v-42h-284z" />
    <glyph glyph-name="emdash" unicode="&#x2014;" horiz-adv-x="428" 
d="M12 323v42h404v-42h-404z" />
    <glyph glyph-name="quotedblleft" unicode="&#x201c;" horiz-adv-x="272" 
d="M50 508v152l30 30h29v-31h-15l-10 -10v-46h25v-95h-59zM163 508v152l30 30h29v-31h-15l-10 -10v-46h25v-95h-59z" />
    <glyph glyph-name="quotedblright" unicode="&#x201d;" horiz-adv-x="272" 
d="M222 690v-152l-30 -30h-29v31h15l10 10v46h-25v95h59zM109 690v-152l-30 -30h-29v31h15l10 10v46h-25v95h59z" />
    <glyph glyph-name="quoteleft" unicode="&#x2018;" horiz-adv-x="159" 
d="M50 508v152l30 30h29v-31h-15l-10 -10v-46h25v-95h-59z" />
    <glyph glyph-name="quoteright" unicode="&#x2019;" horiz-adv-x="159" 
d="M109 690v-152l-30 -30h-29v31h15l10 10v46h-25v95h59z" />
    <glyph glyph-name="divide" unicode="&#xf7;" horiz-adv-x="349" 
d="M150 175v75h48v-75h-48zM21 324v40h307v-40h-307zM150 436v75h48v-75h-48z" />
    <glyph glyph-name="ydieresis" unicode="&#xff;" horiz-adv-x="348" 
d="M141 0l-127 482h43l116 -454l118 454h41l-159 -600l-53 -52h-93v34h74l38 39l27 97h-25zM214 542v78h39v-78h-39zM94 542v78h38v-78h-38z" />
    <glyph glyph-name="Ydieresis" unicode="&#x178;" horiz-adv-x="400" 
d="M178 0v236l-162 454h47l138 -396l140 396h43l-163 -454v-236h-43zM240 747v78h39v-78h-39zM120 747v78h38v-78h-38z" />
    <glyph glyph-name="fraction" unicode="&#x2044;" horiz-adv-x="346" 
d="M0 0l309 690h37l-309 -690h-37z" />
    <glyph glyph-name="Euro" unicode="&#x20ac;" horiz-adv-x="430" 
d="M22 382v35h45v196l77 77h167l73 -73v-110h-44v95l-50 50h-126l-53 -54v-181h190v-35h-190v-61h190v-35h-190v-194l53 -54h126l51 50v98h43v-113l-73 -73h-167l-77 77v209h-45v35h45v61h-45z" />
    <glyph glyph-name="guilsinglleft" unicode="&#x2039;" horiz-adv-x="198" 
d="M125 147l-102 201l102 202h44l-101 -202l101 -201h-44z" />
    <glyph glyph-name="guilsinglright" unicode="&#x203a;" horiz-adv-x="198" 
d="M175 348l-102 -201h-44l101 201l-101 202h44z" />
    <glyph glyph-name="fi" unicode="&#xfb01;" horiz-adv-x="460" 
d="M85 0v447h-65v35h65v137l71 71h111v-35h-91l-49 -49v-124h129v-35h-129v-447h-42zM384 0h-41v482h41v-482zM343 574v98h41v-98h-41z" />
    <glyph glyph-name="fl" unicode="&#xfb02;" horiz-adv-x="460" 
d="M85 0v447h-65v35h65v137l71 71h111v-35h-91l-49 -49v-124h129v-35h-129v-447h-42zM385 0h-42v690h42v-690z" />
    <glyph glyph-name="daggerdbl" unicode="&#x2021;" horiz-adv-x="237" 
d="M98 273v98h-72v34h72v153h-72v35h72v97h41v-97h71v-35h-71v-153h71v-34h-71v-98h-41z" />
    <glyph glyph-name="periodcentered" unicode="&#xb7;" horiz-adv-x="186" 
d="M64 313v95h59v-95h-59z" />
    <glyph glyph-name="quotesinglbase" unicode="&#x201a;" horiz-adv-x="159" 
d="M50 -87v31h15l10 10v46h-25v95h59v-152l-30 -30h-29z" />
    <glyph glyph-name="quotedblbase" unicode="&#x201e;" horiz-adv-x="272" 
d="M50 -87v31h15l10 10v46h-25v95h59v-152l-30 -30h-29zM163 -87v31h15l10 10v46h-25v95h59v-152l-30 -30h-29z" />
    <glyph glyph-name="perthousand" unicode="&#x2030;" horiz-adv-x="848" 
d="M92 365l-54 55v215l54 55h110l55 -55v-215l-55 -55h-110zM111 397h73l35 35v191l-35 35h-73l-35 -35v-191zM370 0l-55 55v215l55 55h110l54 -55v-215l-54 -55h-110zM388 32h74l35 35v191l-35 35h-74l-35 -35v-191zM646 0l-54 55v215l54 55h110l55 -55v-215l-55 -55h-110z
M665 32h73l36 35v191l-36 35h-73l-35 -35v-191zM113 0l307 690h37l-307 -690h-37z" />
    <glyph glyph-name="Acircumflex" unicode="&#xc2;" horiz-adv-x="415" 
d="M16 0l159 690h66l158 -690h-44l-49 217h-199l-48 -217h-43zM207 661l-91 -405h181zM109 745v19l70 71h53l71 -71v-19h-27l-65 65h-11l-65 -65h-26z" />
    <glyph glyph-name="Ecircumflex" unicode="&#xca;" horiz-adv-x="401" 
d="M116 745v19l70 71h53l71 -71v-19h-27l-65 65h-11l-65 -65h-26zM74 0v690h281v-38h-237v-286h222v-38h-222v-290h238v-38h-282z" />
    <glyph glyph-name="Aacute" unicode="&#xc1;" horiz-adv-x="415" 
d="M16 0l159 690h66l158 -690h-44l-49 217h-199l-48 -217h-43zM207 661l-91 -405h181zM172 737v21l80 80h30v-21l-80 -80h-30z" />
    <glyph glyph-name="Edieresis" unicode="&#xcb;" horiz-adv-x="401" 
d="M255 747v78h39v-78h-39zM135 747v78h38v-78h-38zM74 0v690h281v-38h-237v-286h222v-38h-222v-290h238v-38h-282z" />
    <glyph glyph-name="Egrave" unicode="&#xc8;" horiz-adv-x="401" 
d="M74 0v690h281v-38h-237v-286h222v-38h-222v-290h238v-38h-282zM218 737l-80 80v21h31l80 -80v-21h-31z" />
    <glyph glyph-name="Iacute" unicode="&#xcd;" horiz-adv-x="316" 
d="M37 0v36h99v619h-99v35h242v-35h-99v-619h99v-36h-242zM121 737v21l80 80h30v-21l-80 -80h-30z" />
    <glyph glyph-name="Icircumflex" unicode="&#xce;" horiz-adv-x="316" 
d="M37 0v36h99v619h-99v35h242v-35h-99v-619h99v-36h-242zM60 745v19l70 71h53l71 -71v-19h-27l-65 65h-11l-65 -65h-26z" />
    <glyph glyph-name="Idieresis" unicode="&#xcf;" horiz-adv-x="316" 
d="M37 0v36h99v619h-99v35h242v-35h-99v-619h99v-36h-242zM198 747v78h39v-78h-39zM78 747v78h38v-78h-38z" />
    <glyph glyph-name="Igrave" unicode="&#xcc;" horiz-adv-x="316" 
d="M37 0v36h99v619h-99v35h242v-35h-99v-619h99v-36h-242zM161 737l-80 80v21h31l80 -80v-21h-31z" />
    <glyph glyph-name="Oacute" unicode="&#xd3;" horiz-adv-x="461" 
d="M194 737v21l80 80h30v-21l-80 -80h-30zM139 0l-77 77v536l77 77h183l76 -77v-536l-76 -77h-183zM160 38h141l54 54v506l-54 54h-141l-54 -54v-506z" />
    <glyph glyph-name="Ocircumflex" unicode="&#xd4;" horiz-adv-x="461" 
d="M132 745v19l70 71h53l71 -71v-19h-27l-65 65h-11l-65 -65h-26zM139 0l-77 77v536l77 77h183l76 -77v-536l-76 -77h-183zM160 38h141l54 54v506l-54 54h-141l-54 -54v-506z" />
    <glyph glyph-name="Ograve" unicode="&#xd2;" horiz-adv-x="461" 
d="M139 0l-77 77v536l77 77h183l76 -77v-536l-76 -77h-183zM160 38h141l54 54v506l-54 54h-141l-54 -54v-506zM234 737l-80 80v21h31l80 -80v-21h-31z" />
    <glyph glyph-name="Uacute" unicode="&#xda;" horiz-adv-x="456" 
d="M191 737v21l80 80h30v-21l-80 -80h-30zM145 0l-77 77v613h44v-598l54 -54h124l54 54v598h43v-613l-77 -77h-165z" />
    <glyph glyph-name="Ucircumflex" unicode="&#xdb;" horiz-adv-x="456" 
d="M129 745v19l70 71h53l71 -71v-19h-27l-65 65h-11l-65 -65h-26zM145 0l-77 77v613h44v-598l54 -54h124l54 54v598h43v-613l-77 -77h-165z" />
    <glyph glyph-name="Ugrave" unicode="&#xd9;" horiz-adv-x="456" 
d="M145 0l-77 77v613h44v-598l54 -54h124l54 54v598h43v-613l-77 -77h-165zM231 737l-80 80v21h31l80 -80v-21h-31z" />
    <glyph glyph-name="dotlessi" unicode="&#x131;" horiz-adv-x="193" 
d="M117 0h-41v482h41v-482z" />
    <glyph glyph-name="circumflex" unicode="&#x2c6;" horiz-adv-x="319" 
d="M63 540v19l70 71h53l71 -71v-19h-27l-65 65h-11l-65 -65h-26z" />
    <glyph glyph-name="tilde" unicode="&#x2dc;" horiz-adv-x="332" 
d="M63 544v41l35 36h53l49 -49h17l19 19v30h33v-42l-35 -35h-52l-50 49h-17l-18 -19v-30h-34z" />
    <glyph glyph-name="macron" unicode="&#xaf;" horiz-adv-x="306" 
d="M63 566v33h180v-33h-180z" />
    <glyph glyph-name="breve" unicode="&#x2d8;" horiz-adv-x="308" 
d="M100 545l-37 38v40h36v-30l19 -19h73l19 19v30h36v-40l-37 -38h-109z" />
    <glyph glyph-name="dotaccent" unicode="&#x2d9;" horiz-adv-x="196" 
d="M79 543l-16 16v47l16 16h38l16 -16v-47l-16 -16h-38z" />
    <glyph glyph-name="ring" unicode="&#x2da;" horiz-adv-x="257" 
d="M94 522l-31 32v59l31 31h69l31 -31v-59l-31 -32h-69zM107 546h43l16 16v43l-16 16h-43l-17 -16v-43z" />
    <glyph glyph-name="cedilla" unicode="&#xb8;" horiz-adv-x="249" 
d="M63 -151v27h75l14 14v27l-14 14h-42l-11 11v58h33v-43h39l29 -29v-50l-29 -29h-94z" />
    <glyph glyph-name="hungarumlaut" unicode="&#x2dd;" horiz-adv-x="329" 
d="M63 532v22l80 80h25v-22l-80 -80h-25zM162 532v22l79 80h25v-22l-79 -80h-25z" />
    <glyph glyph-name="ogonek" unicode="&#x2db;" horiz-adv-x="222" 
d="M91 -151l-28 29v68l54 54h42l-62 -62v-47l14 -14h48v-28h-68z" />
    <glyph glyph-name="caron" unicode="&#x2c7;" horiz-adv-x="319" 
d="M133 540l-70 70v20h26l65 -65h11l65 65h27v-20l-71 -70h-53z" />
    <glyph glyph-name="commaaccent" horiz-adv-x="161" 
d="M63 -151v114h35v-103l-11 -11h-24z" />
    <glyph glyph-name="uni0237" unicode="&#x237;" horiz-adv-x="193" 
d="M-38 -170v35h65l49 48v569h41v-582l-70 -70h-85z" />
    <glyph glyph-name="Dcroat" unicode="&#x110;" horiz-adv-x="470" 
d="M20 331v39h62v320h248l77 -77v-536l-77 -77h-248v331h-62zM125 38h185l54 54v506l-54 54h-185v-282h115v-39h-115v-293z" />
    <glyph glyph-name="dcroat" unicode="&#x111;" horiz-adv-x="422" 
d="M211 568v36h101v86h42v-86h47v-36h-47v-568h-37l-2 71l-71 -71h-115l-72 72v338l72 72h113l70 -70v156h-101zM148 36h83l81 81v247l-82 83h-82l-49 -50v-312z" />
    <glyph glyph-name="Abreve" unicode="&#x102;" horiz-adv-x="415" 
d="M16 0l159 690h66l158 -690h-44l-49 217h-199l-48 -217h-43zM207 661l-91 -405h181zM152 750l-37 38v40h36v-30l19 -19h73l19 19v30h36v-40l-37 -38h-109z" />
    <glyph glyph-name="Amacron" unicode="&#x100;" horiz-adv-x="415" 
d="M16 0l159 690h66l158 -690h-44l-49 217h-199l-48 -217h-43zM207 661l-91 -405h181zM117 771v33h180v-33h-180z" />
    <glyph glyph-name="Aogonek" unicode="&#x104;" horiz-adv-x="415" 
d="M16 0l159 690h66l158 -690h-7l-63 -63v-46l15 -15h48v-27h-68l-28 28v68l58 58l-48 214h-199l-48 -217h-43zM207 661l-91 -405h181z" />
    <glyph glyph-name="Cacute" unicode="&#x106;" horiz-adv-x="427" 
d="M184 737v21l80 80h30v-21l-80 -80h-30zM139 0l-77 77v536l77 77h166l73 -74v-109h-43v94l-51 51h-124l-54 -54v-506l54 -54h124l51 51v97h43v-112l-73 -74h-166z" />
    <glyph glyph-name="Ccaron" unicode="&#x10c;" horiz-adv-x="427" 
d="M192 745l-70 70v20h26l65 -65h11l65 65h27v-20l-71 -70h-53zM139 0l-77 77v536l77 77h166l73 -74v-109h-43v94l-51 51h-124l-54 -54v-506l54 -54h124l51 51v97h43v-112l-73 -74h-166z" />
    <glyph glyph-name="Ccircumflex" unicode="&#x108;" horiz-adv-x="427" 
d="M122 745v19l70 71h53l71 -71v-19h-27l-65 65h-11l-65 -65h-26zM139 0l-77 77v536l77 77h166l73 -74v-109h-43v94l-51 51h-124l-54 -54v-506l54 -54h124l51 51v97h43v-112l-73 -74h-166z" />
    <glyph glyph-name="Dcaron" unicode="&#x10e;" horiz-adv-x="462" 
d="M196 745l-70 70v20h26l65 -65h11l65 65h27v-20l-71 -70h-53zM74 0v690h249l77 -77v-536l-77 -77h-249zM118 38h184l54 54v506l-54 54h-184v-614z" />
    <glyph glyph-name="Ecaron" unicode="&#x11a;" horiz-adv-x="401" 
d="M186 745l-70 70v20h26l65 -65h11l65 65h27v-20l-71 -70h-53zM74 0v690h281v-38h-237v-286h222v-38h-222v-290h238v-38h-282z" />
    <glyph glyph-name="Edotaccent" unicode="&#x116;" horiz-adv-x="401" 
d="M74 0v690h281v-38h-237v-286h222v-38h-222v-290h238v-38h-282zM197 748l-16 16v47l16 16h38l16 -16v-47l-16 -16h-38z" />
    <glyph glyph-name="Emacron" unicode="&#x112;" horiz-adv-x="401" 
d="M74 0v690h281v-38h-237v-286h222v-38h-222v-290h238v-38h-282zM124 771v33h180v-33h-180z" />
    <glyph glyph-name="Eogonek" unicode="&#x118;" horiz-adv-x="401" 
d="M74 0v690h281v-38h-237v-286h222v-38h-222v-290h238v-38l-60 -60v-50l12 -11h48v-30h-68l-28 28v71l51 52h-237z" />
    <glyph glyph-name="Gbreve" unicode="&#x11e;" horiz-adv-x="437" 
d="M139 0l-77 77v536l77 77h174l72 -73v-96h-44v82l-49 49h-132l-54 -54v-506l54 -54h130l54 54v211h-126v38h170v-264l-77 -77h-172zM170 750l-37 38v40h36v-30l19 -19h73l19 19v30h36v-40l-37 -38h-109z" />
    <glyph glyph-name="Gcircumflex" unicode="&#x11c;" horiz-adv-x="437" 
d="M127 745v19l70 71h53l71 -71v-19h-27l-65 65h-11l-65 -65h-26zM139 0l-77 77v536l77 77h174l72 -73v-96h-44v82l-49 49h-132l-54 -54v-506l54 -54h130l54 54v211h-126v38h170v-264l-77 -77h-172z" />
    <glyph glyph-name="Gcommaaccent" unicode="&#x122;" horiz-adv-x="437" 
d="M207 -151v114h35v-103l-11 -11h-24zM139 0l-77 77v536l77 77h174l72 -73v-96h-44v82l-49 49h-132l-54 -54v-506l54 -54h130l54 54v211h-126v38h170v-264l-77 -77h-172z" />
    <glyph glyph-name="Hcircumflex" unicode="&#x124;" horiz-adv-x="470" 
d="M136 745v19l70 71h53l71 -71v-19h-27l-65 65h-11l-65 -65h-26zM74 0v690h44v-325h234v325h44v-690h-44v322h-234v-322h-44z" />
    <glyph glyph-name="Idotaccent" unicode="&#x130;" horiz-adv-x="316" 
d="M37 0v36h99v619h-99v35h242v-35h-99v-619h99v-36h-242zM140 748l-16 16v47l16 16h38l16 -16v-47l-16 -16h-38z" />
    <glyph glyph-name="Imacron" unicode="&#x12a;" horiz-adv-x="316" 
d="M37 0v36h99v619h-99v35h242v-35h-99v-619h99v-36h-242zM67 771v33h180v-33h-180z" />
    <glyph glyph-name="Iogonek" unicode="&#x12e;" horiz-adv-x="316" 
d="M37 0v36h99v619h-99v35h242v-35h-99v-619h99v-36h-103l-62 -62v-47l14 -14h48v-28h-68l-28 29v68l54 54h-97z" />
    <glyph glyph-name="Jcircumflex" unicode="&#x134;" horiz-adv-x="295" 
d="M107 745v19l70 71h53l71 -71v-19h-27l-65 65h-11l-65 -65h-26zM13 0v37h115l55 55v598h44v-613l-77 -77h-137z" />
    <glyph glyph-name="Kcommaaccent" unicode="&#x136;" horiz-adv-x="452" 
d="M232 -151v114h35v-103l-11 -11h-24zM379 0l-157 361l-105 -184v-177h-44v690h44v-442l249 442h47l-162 -289l175 -401h-47z" />
    <glyph glyph-name="Lacute" unicode="&#x139;" horiz-adv-x="362" 
d="M80 737v21l80 80h30v-21l-80 -80h-30zM74 0v690h44v-652h218v-38h-262z" />
    <glyph glyph-name="Lcaron" unicode="&#x13d;" horiz-adv-x="362" 
d="M193 606v114h35v-103l-11 -11h-24zM74 0v690h44v-652h218v-38h-262z" />
    <glyph glyph-name="Lcommaaccent" unicode="&#x13b;" horiz-adv-x="362" 
d="M186 -151v114h35v-103l-11 -11h-24zM74 0v690h44v-652h218v-38h-262z" />
    <glyph glyph-name="Nacute" unicode="&#x143;" horiz-adv-x="484" 
d="M205 737v21l80 80h30v-21l-80 -80h-30zM73 0v690h49l244 -606v606h41v-690h-49l-244 607v-607h-41z" />
    <glyph glyph-name="Ncaron" unicode="&#x147;" horiz-adv-x="484" 
d="M213 745l-70 70v20h26l65 -65h11l65 65h27v-20l-71 -70h-53zM73 0v690h49l244 -606v606h41v-690h-49l-244 607v-607h-41z" />
    <glyph glyph-name="Ncommaaccent" unicode="&#x145;" horiz-adv-x="484" 
d="M224 -151v114h35v-103l-11 -11h-24zM73 0v690h49l244 -606v606h41v-690h-49l-244 607v-607h-41z" />
    <glyph glyph-name="Ohungarumlaut" unicode="&#x150;" horiz-adv-x="461" 
d="M147 737v22l80 80h25v-22l-80 -80h-25zM246 737v22l79 80h25v-22l-79 -80h-25zM139 0l-77 77v536l77 77h183l76 -77v-536l-76 -77h-183zM160 38h141l54 54v506l-54 54h-141l-54 -54v-506z" />
    <glyph glyph-name="Omacron" unicode="&#x14c;" horiz-adv-x="461" 
d="M140 771v33h180v-33h-180zM139 0l-77 77v536l77 77h183l76 -77v-536l-76 -77h-183zM160 38h141l54 54v506l-54 54h-141l-54 -54v-506z" />
    <glyph glyph-name="Racute" unicode="&#x154;" horiz-adv-x="453" 
d="M190 737v21l80 80h30v-21l-80 -80h-30zM74 0v690h249l75 -74v-226l-71 -71l75 -319h-45l-73 315h-166v-315h-44zM118 351h183l53 54v196l-51 51h-185v-301z" />
    <glyph glyph-name="Rcaron" unicode="&#x158;" horiz-adv-x="453" 
d="M197 745l-70 70v20h26l65 -65h11l65 65h27v-20l-71 -70h-53zM74 0v690h249l75 -74v-226l-71 -71l75 -319h-45l-73 315h-166v-315h-44zM118 351h183l53 54v196l-51 51h-185v-301z" />
    <glyph glyph-name="Rcommaaccent" unicode="&#x156;" horiz-adv-x="453" 
d="M220 -151v114h35v-103l-11 -11h-24zM74 0v690h249l75 -74v-226l-71 -71l75 -319h-45l-73 315h-166v-315h-44zM118 351h183l53 54v196l-51 51h-185v-301z" />
    <glyph glyph-name="Sacute" unicode="&#x15a;" horiz-adv-x="423" 
d="M175 737v21l80 80h30v-21l-80 -80h-30zM125 0l-73 73v96h43v-81l51 -50h130l51 51v206l-37 38h-173l-65 65v217l75 75h168l73 -73v-95h-43v80l-50 50h-127l-52 -51v-188l38 -38h172l65 -65v-235l-75 -75h-171z" />
    <glyph glyph-name="Scedilla" unicode="&#x15e;" horiz-adv-x="423" 
d="M125 0l-73 73v96h43v-81l51 -50h130l51 51v206l-37 38h-173l-65 65v217l75 75h168l73 -73v-95h-43v80l-50 50h-127l-52 -51v-188l38 -38h172l65 -65v-235l-75 -75h-71v-43h39l29 -29v-50l-29 -29h-94v27h75l14 14v27l-14 14h-42l-11 11v58h-67z" />
    <glyph glyph-name="Scircumflex" unicode="&#x15c;" horiz-adv-x="423" 
d="M113 745v19l70 71h53l71 -71v-19h-27l-65 65h-11l-65 -65h-26zM125 0l-73 73v96h43v-81l51 -50h130l51 51v206l-37 38h-173l-65 65v217l75 75h168l73 -73v-95h-43v80l-50 50h-127l-52 -51v-188l38 -38h172l65 -65v-235l-75 -75h-171z" />
    <glyph glyph-name="Scommaaccent" unicode="&#x218;" horiz-adv-x="423" 
d="M193 -151v114h35v-103l-11 -11h-24zM125 0l-73 73v96h43v-81l51 -50h130l51 51v206l-37 38h-173l-65 65v217l75 75h168l73 -73v-95h-43v80l-50 50h-127l-52 -51v-188l38 -38h172l65 -65v-235l-75 -75h-171z" />
    <glyph glyph-name="Tcaron" unicode="&#x164;" horiz-adv-x="385" 
d="M164 745l-70 70v20h26l65 -65h11l65 65h27v-20l-71 -70h-53zM171 0v653h-152v37h347v-37h-151v-653h-44z" />
    <glyph glyph-name="Tcommaaccent" unicode="&#x162;" horiz-adv-x="385" 
d="M174 -151v114h35v-103l-11 -11h-24zM171 0v653h-152v37h347v-37h-151v-653h-44z" />
    <glyph glyph-name="Ubreve" unicode="&#x16c;" horiz-adv-x="456" 
d="M145 0l-77 77v613h44v-598l54 -54h124l54 54v598h43v-613l-77 -77h-165zM173 750l-37 38v40h36v-30l19 -19h73l19 19v30h36v-40l-37 -38h-109z" />
    <glyph glyph-name="Uhungarumlaut" unicode="&#x170;" horiz-adv-x="456" 
d="M145 0l-77 77v613h44v-598l54 -54h124l54 54v598h43v-613l-77 -77h-165zM144 737v22l80 80h25v-22l-80 -80h-25zM243 737v22l79 80h25v-22l-79 -80h-25z" />
    <glyph glyph-name="Umacron" unicode="&#x16a;" horiz-adv-x="456" 
d="M145 0l-77 77v613h44v-598l54 -54h124l54 54v598h43v-613l-77 -77h-165zM137 771v33h180v-33h-180z" />
    <glyph glyph-name="Uogonek" unicode="&#x172;" horiz-adv-x="456" 
d="M145 0l-77 77v613h44v-598l54 -54h124l54 54v598h43v-613l-77 -77h-47l-62 -62v-47l14 -14h48v-28h-68l-28 29v68l54 54h-76z" />
    <glyph glyph-name="Uring" unicode="&#x16e;" horiz-adv-x="456" 
d="M193 727l-31 32v59l31 31h69l31 -31v-59l-31 -32h-69zM206 751h43l16 16v43l-16 16h-43l-17 -16v-43zM145 0l-77 77v613h44v-598l54 -54h124l54 54v598h43v-613l-77 -77h-165z" />
    <glyph glyph-name="Zacute" unicode="&#x179;" horiz-adv-x="376" 
d="M151 737v21l80 80h30v-21l-80 -80h-30zM34 0v32l255 620h-248v38h296v-32l-256 -620h260v-38h-307z" />
    <glyph glyph-name="Zdotaccent" unicode="&#x17b;" horiz-adv-x="376" 
d="M34 0v32l255 620h-248v38h296v-32l-256 -620h260v-38h-307zM170 748l-16 16v47l16 16h38l16 -16v-47l-16 -16h-38z" />
    <glyph glyph-name="abreve" unicode="&#x103;" horiz-adv-x="407" 
d="M118 0l-68 69v142l68 69h185v117l-50 50h-105l-47 -47v-56h-43v68l70 70h145l72 -72v-410h-38l-2 71l-71 -71h-116zM138 36h87l78 77v131h-165l-47 -46v-116zM142 545l-37 38v40h36v-30l19 -19h73l19 19v30h36v-40l-37 -38h-109z" />
    <glyph glyph-name="amacron" unicode="&#x101;" horiz-adv-x="407" 
d="M118 0l-68 69v142l68 69h185v117l-50 50h-105l-47 -47v-56h-43v68l70 70h145l72 -72v-410h-38l-2 71l-71 -71h-116zM138 36h87l78 77v131h-165l-47 -46v-116zM106 566v33h180v-33h-180z" />
    <glyph glyph-name="aogonek" unicode="&#x105;" horiz-adv-x="407" 
d="M118 0l-68 69v142l68 69h185v117l-50 50h-105l-47 -47v-56h-43v68l70 70h145l72 -72v-410l-60 -60v-50l11 -11h49v-30h-69l-28 28v71l59 59l-2 64l-71 -71h-116zM138 36h87l78 77v131h-165l-47 -46v-116z" />
    <glyph glyph-name="cacute" unicode="&#x107;" horiz-adv-x="389" 
d="M161 532v21l80 80h30v-21l-80 -80h-30zM129 0l-72 72v338l72 72h141l69 -70v-81h-41v68l-48 47h-102l-49 -49v-312l49 -49h102l48 47v69h41v-82l-69 -70h-141z" />
    <glyph glyph-name="ccaron" unicode="&#x10d;" horiz-adv-x="389" 
d="M169 540l-70 70v20h26l65 -65h11l65 65h27v-20l-71 -70h-53zM129 0l-72 72v338l72 72h141l69 -70v-81h-41v68l-48 47h-102l-49 -49v-312l49 -49h102l48 47v69h41v-82l-69 -70h-141z" />
    <glyph glyph-name="ccircumflex" unicode="&#x109;" horiz-adv-x="389" 
d="M99 540v19l70 71h53l71 -71v-19h-27l-65 65h-11l-65 -65h-26zM129 0l-72 72v338l72 72h141l69 -70v-81h-41v68l-48 47h-102l-49 -49v-312l49 -49h102l48 47v69h41v-82l-69 -70h-141z" />
    <glyph glyph-name="dcaron" unicode="&#x10f;" horiz-adv-x="422" 
d="M403 575v114h35v-103l-11 -11h-24zM129 0l-72 72v338l72 72h113l70 -70v278h42v-690h-37l-2 71l-71 -71h-115zM148 36h83l81 81v247l-82 83h-82l-49 -50v-312z" />
    <glyph glyph-name="ecaron" unicode="&#x11b;" horiz-adv-x="397" 
d="M175 540l-70 70v20h26l65 -65h11l65 65h27v-20l-71 -70h-53zM129 0l-72 72v338l72 72h149l72 -72v-176h-251v-149l49 -49h114l46 46v57h42v-70l-69 -69h-152zM99 269h209v128l-50 50h-110l-49 -50v-128z" />
    <glyph glyph-name="edotaccent" unicode="&#x117;" horiz-adv-x="397" 
d="M129 0l-72 72v338l72 72h149l72 -72v-176h-251v-149l49 -49h114l46 46v57h42v-70l-69 -69h-152zM99 269h209v128l-50 50h-110l-49 -50v-128zM186 543l-16 16v47l16 16h38l16 -16v-47l-16 -16h-38z" />
    <glyph glyph-name="emacron" unicode="&#x113;" horiz-adv-x="397" 
d="M129 0l-72 72v338l72 72h149l72 -72v-176h-251v-149l49 -49h114l46 46v57h42v-70l-69 -69h-152zM99 269h209v128l-50 50h-110l-49 -50v-128zM112 566v33h180v-33h-180z" />
    <glyph glyph-name="eogonek" unicode="&#x119;" horiz-adv-x="397" 
d="M129 0l-72 72v338l72 72h149l72 -72v-176h-251v-149l49 -49h114l46 46v57h42v-70l-131 -131v-47l14 -14h48v-28h-68l-28 29v68l54 54h-110zM99 269h209v128l-50 50h-110l-49 -50v-128z" />
    <glyph glyph-name="gbreve" unicode="&#x11f;" horiz-adv-x="422" 
d="M130 -170l-68 68v55h41v-42l47 -46h113l49 49v182l-69 -69h-114l-72 72v311l72 72h115l71 -71l2 71h37v-581l-72 -71h-152zM148 62h86l78 78v225l-81 82h-83l-49 -50v-285zM144 545l-37 38v40h36v-30l19 -19h73l19 19v30h36v-40l-37 -38h-109z" />
    <glyph glyph-name="gcircumflex" unicode="&#x11d;" horiz-adv-x="422" 
d="M100 540v19l70 71h53l71 -71v-19h-27l-65 65h-11l-65 -65h-26zM130 -170l-68 68v55h41v-42l47 -46h113l49 49v182l-69 -69h-114l-72 72v311l72 72h115l71 -71l2 71h37v-581l-72 -71h-152zM148 62h86l78 78v225l-81 82h-83l-49 -50v-285z" />
    <glyph glyph-name="gcommaaccent" unicode="&#x123;" horiz-adv-x="422" 
d="M216 643v-114h-35v103l11 11h24zM130 -170l-68 68v55h41v-42l47 -46h113l49 49v182l-69 -69h-114l-72 72v311l72 72h115l71 -71l2 71h37v-581l-72 -71h-152zM148 62h86l78 78v225l-81 82h-83l-49 -50v-285z" />
    <glyph glyph-name="hcircumflex" unicode="&#x125;" horiz-adv-x="413" 
d="M-9 713v19l70 71h53l71 -71v-19h-27l-65 65h-11l-65 -65h-26zM68 0v690h41v-279l71 71h99l72 -72v-410h-41v397l-50 50h-68l-83 -84v-363h-41z" />
    <glyph glyph-name="imacron" unicode="&#x12b;" horiz-adv-x="193" 
d="M117 0h-41v482h41v-482zM6 566v33h180v-33h-180z" />
    <glyph glyph-name="iogonek" unicode="&#x12f;" horiz-adv-x="193" 
d="M117 0h-1l-60 -60v-50l11 -11h49v-30h-68l-29 28v71l57 57v477h41v-482zM76 574v98h41v-98h-41z" />
    <glyph glyph-name="jcircumflex" unicode="&#x135;" horiz-adv-x="193" 
d="M-2 540v19l70 71h53l71 -71v-19h-27l-65 65h-11l-65 -65h-26zM-38 -170v35h65l49 48v569h41v-582l-70 -70h-85z" />
    <glyph glyph-name="kcommaaccent" unicode="&#x137;" horiz-adv-x="398" 
d="M201 -151v114h35v-103l-11 -11h-24zM326 0l-120 268l-97 -136v-132h-42v690h42v-498l201 290h47l-124 -179l137 -303h-44z" />
    <glyph glyph-name="lacute" unicode="&#x13a;" horiz-adv-x="194" 
d="M79 723v21l80 80h30v-21l-80 -80h-30zM118 0h-42v690h42v-690z" />
    <glyph glyph-name="lcaron" unicode="&#x13e;" horiz-adv-x="194" 
d="M166 575v114h35v-103l-11 -11h-24zM118 0h-42v690h42v-690z" />
    <glyph glyph-name="lcommaaccent" unicode="&#x13c;" horiz-adv-x="194" 
d="M78 -151v114h35v-103l-11 -11h-24zM118 0h-42v690h42v-690z" />
    <glyph glyph-name="nacute" unicode="&#x144;" horiz-adv-x="413" 
d="M179 532v21l80 80h30v-21l-80 -80h-30zM68 0v482h37l2 -73l73 73h99l72 -72v-410h-41v397l-50 50h-67l-84 -84v-363h-41z" />
    <glyph glyph-name="ncaron" unicode="&#x148;" horiz-adv-x="413" 
d="M187 540l-70 70v20h26l65 -65h11l65 65h27v-20l-71 -70h-53zM68 0v482h37l2 -73l73 73h99l72 -72v-410h-41v397l-50 50h-67l-84 -84v-363h-41z" />
    <glyph glyph-name="ncommaaccent" unicode="&#x146;" horiz-adv-x="413" 
d="M191 -151v114h35v-103l-11 -11h-24zM68 0v482h37l2 -73l73 73h99l72 -72v-410h-41v397l-50 50h-67l-84 -84v-363h-41z" />
    <glyph glyph-name="ohungarumlaut" unicode="&#x151;" horiz-adv-x="410" 
d="M122 532v22l80 80h25v-22l-80 -80h-25zM221 532v22l79 80h25v-22l-79 -80h-25zM129 0l-72 72v338l72 72h152l72 -72v-338l-72 -72h-152zM148 36h114l50 49v312l-50 50h-114l-49 -50v-312z" />
    <glyph glyph-name="omacron" unicode="&#x14d;" horiz-adv-x="410" 
d="M114 566v33h180v-33h-180zM129 0l-72 72v338l72 72h152l72 -72v-338l-72 -72h-152zM148 36h114l50 49v312l-50 50h-114l-49 -50v-312z" />
    <glyph glyph-name="racute" unicode="&#x155;" horiz-adv-x="285" 
d="M129 532v21l80 80h30v-21l-80 -80h-30zM68 0v482h37l2 -75l75 75h81v-38h-70l-84 -83v-361h-41z" />
    <glyph glyph-name="rcaron" unicode="&#x159;" horiz-adv-x="285" 
d="M137 540l-70 70v20h26l65 -65h11l65 65h27v-20l-71 -70h-53zM68 0v482h37l2 -75l75 75h81v-38h-70l-84 -83v-361h-41z" />
    <glyph glyph-name="rcommaaccent" unicode="&#x157;" horiz-adv-x="285" 
d="M71 -151v114h35v-103l-11 -11h-24zM68 0v482h37l2 -75l75 75h81v-38h-70l-84 -83v-361h-41z" />
    <glyph glyph-name="sacute" unicode="&#x15b;" horiz-adv-x="382" 
d="M155 532v21l80 80h30v-21l-80 -80h-30zM115 0l-68 68v70h42v-57l45 -45h112l47 47v108l-34 34h-152l-57 57v131l69 69h143l68 -68v-69h-42v56l-45 45h-104l-47 -46v-105l34 -34h153l56 -57v-134l-70 -70h-150z" />
    <glyph glyph-name="scedilla" unicode="&#x15f;" horiz-adv-x="382" 
d="M115 0l-68 68v70h42v-57l45 -45h112l47 47v108l-34 34h-152l-57 57v131l69 69h143l68 -68v-69h-42v56l-45 45h-104l-47 -46v-105l34 -34h153l56 -57v-134l-70 -70h-61v-43h39l29 -29v-50l-29 -29h-94v27h75l14 14v27l-14 14h-42l-11 11v58h-56z" />
    <glyph glyph-name="scircumflex" unicode="&#x15d;" horiz-adv-x="382" 
d="M92 540v19l70 71h53l71 -71v-19h-27l-65 65h-11l-65 -65h-26zM115 0l-68 68v70h42v-57l45 -45h112l47 47v108l-34 34h-152l-57 57v131l69 69h143l68 -68v-69h-42v56l-45 45h-104l-47 -46v-105l34 -34h153l56 -57v-134l-70 -70h-150z" />
    <glyph glyph-name="scommaaccent" unicode="&#x219;" horiz-adv-x="382" 
d="M173 -151v114h35v-103l-11 -11h-24zM115 0l-68 68v70h42v-57l45 -45h112l47 47v108l-34 34h-152l-57 57v131l69 69h143l68 -68v-69h-42v56l-45 45h-104l-47 -46v-105l34 -34h153l56 -57v-134l-70 -70h-150z" />
    <glyph glyph-name="tcaron" unicode="&#x165;" horiz-adv-x="313" 
d="M197 560v114h35v-103l-11 -11h-24zM162 0l-72 72v375h-68v35h68v153h41v-153h147v-35h-147v-362l50 -49h97v-36h-116z" />
    <glyph glyph-name="tcommaaccent" unicode="&#x163;" horiz-adv-x="313" 
d="M167 -151v114h35v-103l-11 -11h-24zM162 0l-72 72v375h-68v35h68v153h41v-153h147v-35h-147v-362l50 -49h97v-36h-116z" />
    <glyph glyph-name="ubreve" unicode="&#x16d;" horiz-adv-x="413" 
d="M134 0l-72 72v410h42v-397l49 -49h68l83 83v363h42v-482h-38l-2 73l-73 -73h-99zM149 545l-37 38v40h36v-30l19 -19h73l19 19v30h36v-40l-37 -38h-109z" />
    <glyph glyph-name="uhungarumlaut" unicode="&#x171;" horiz-adv-x="413" 
d="M134 0l-72 72v410h42v-397l49 -49h68l83 83v363h42v-482h-38l-2 73l-73 -73h-99zM120 532v22l80 80h25v-22l-80 -80h-25zM219 532v22l79 80h25v-22l-79 -80h-25z" />
    <glyph glyph-name="umacron" unicode="&#x16b;" horiz-adv-x="413" 
d="M134 0l-72 72v410h42v-397l49 -49h68l83 83v363h42v-482h-38l-2 73l-73 -73h-99zM113 566v33h180v-33h-180z" />
    <glyph glyph-name="uogonek" unicode="&#x173;" horiz-adv-x="413" 
d="M134 0l-72 72v410h42v-397l49 -49h68l83 83v363h42v-482l-60 -60v-50l11 -11h49v-30h-68l-29 28v71l59 59l-2 66l-73 -73h-99z" />
    <glyph glyph-name="uring" unicode="&#x16f;" horiz-adv-x="413" 
d="M169 522l-31 32v59l31 31h69l31 -31v-59l-31 -32h-69zM182 546h43l16 16v43l-16 16h-43l-17 -16v-43zM134 0l-72 72v410h42v-397l49 -49h68l83 83v363h42v-482h-38l-2 73l-73 -73h-99z" />
    <glyph glyph-name="zacute" unicode="&#x17a;" horiz-adv-x="331" 
d="M129 532v21l80 80h30v-21l-80 -80h-30zM30 0v28l222 419h-220v35h267v-28l-221 -419h223v-35h-271z" />
    <glyph glyph-name="zdotaccent" unicode="&#x17c;" horiz-adv-x="331" 
d="M30 0v28l222 419h-220v35h267v-28l-221 -419h223v-35h-271zM148 543l-16 16v47l16 16h38l16 -16v-47l-16 -16h-38z" />
    <glyph glyph-name="published" horiz-adv-x="594" 
d="M139 0l-77 77v536l77 77h316l77 -77v-536l-77 -77h-316zM159 37h276l55 54v508l-55 54h-276l-54 -54v-508zM192 120v453h173l50 -50v-187l-50 -49h-130v-167h-43zM235 324h110l27 27v158l-27 26h-110v-211z" />
    <glyph glyph-name="servicemark" unicode="&#x2120;" horiz-adv-x="464" 
d="M59 402l-37 36v44h29v-35l20 -20h51l20 20v75l-12 11h-79l-29 29v91l37 37h75l37 -37v-43h-29v35l-20 20h-51l-20 -20v-73l12 -12h79l29 -29v-93l-37 -36h-75zM219 402v288h43l60 -263l60 263h44v-288h-27v259l-58 -259h-38l-59 258v-258h-25z" />
    <glyph glyph-name="G.alt" horiz-adv-x="441" 
d="M139 0l-77 77v536l77 77h174l72 -73v-96h-44v82l-49 49h-132l-54 -54v-506l54 -54h104l80 80v185h-126v38h170v-341h-38l-2 71l-72 -71h-137z" />
    <glyph glyph-name="Gbreve.alt" horiz-adv-x="441" 
d="M139 0l-77 77v536l77 77h174l72 -73v-96h-44v82l-49 49h-132l-54 -54v-506l54 -54h104l80 80v185h-126v38h170v-341h-38l-2 71l-72 -71h-137zM170 750l-37 38v40h36v-30l19 -19h73l19 19v30h36v-40l-37 -38h-109z" />
    <glyph glyph-name="Gcircumflex.alt" horiz-adv-x="441" 
d="M127 745v19l70 71h53l71 -71v-19h-27l-65 65h-11l-65 -65h-26zM139 0l-77 77v536l77 77h174l72 -73v-96h-44v82l-49 49h-132l-54 -54v-506l54 -54h104l80 80v185h-126v38h170v-341h-38l-2 71l-72 -71h-137z" />
    <glyph glyph-name="Gcommaaccent.alt" horiz-adv-x="441" 
d="M207 -151v114h35v-103l-11 -11h-24zM139 0l-77 77v536l77 77h174l72 -73v-96h-44v82l-49 49h-132l-54 -54v-506l54 -54h104l80 80v185h-126v38h170v-341h-38l-2 71l-72 -71h-137z" />
    <glyph glyph-name="I.alt" horiz-adv-x="237" 
d="M140 0h-43v690h43v-690z" />
    <glyph glyph-name="Iacute.alt" horiz-adv-x="237" 
d="M82 737v21l80 80h30v-21l-80 -80h-30zM140 0h-43v690h43v-690z" />
    <glyph glyph-name="Igrave.alt" horiz-adv-x="237" 
d="M140 0h-43v690h43v-690zM122 737l-80 80v21h31l80 -80v-21h-31z" />
    <glyph glyph-name="Icircumflex.alt" horiz-adv-x="237" 
d="M20 745v19l70 71h53l71 -71v-19h-27l-65 65h-11l-65 -65h-26zM140 0h-43v690h43v-690z" />
    <glyph glyph-name="Idieresis.alt" horiz-adv-x="237" 
d="M159 747v78h39v-78h-39zM39 747v78h38v-78h-38zM140 0h-43v690h43v-690z" />
    <glyph glyph-name="Idotaccent.alt" horiz-adv-x="237" 
d="M140 0h-43v690h43v-690zM100 748l-16 16v47l16 16h38l16 -16v-47l-16 -16h-38z" />
    <glyph glyph-name="Imacron.alt" horiz-adv-x="237" 
d="M140 0h-43v690h43v-690zM28 771v33h180v-33h-180z" />
    <glyph glyph-name="Iogonek.alt" horiz-adv-x="237" 
d="M140 0h-2l-60 -60v-50l12 -11h48v-30h-68l-28 28v71l55 55v687h43v-690z" />
    <glyph glyph-name="J.alt" horiz-adv-x="412" 
d="M117 0l-77 77v179h43v-164l54 -54h110l53 54v598h44v-613l-77 -77h-150z" />
    <glyph glyph-name="Jcircumflex.alt" horiz-adv-x="412" 
d="M223 745v19l70 71h53l71 -71v-19h-27l-65 65h-11l-65 -65h-26zM117 0l-77 77v179h43v-164l54 -54h110l53 54v598h44v-613l-77 -77h-150z" />
    <glyph glyph-name="Q.alt" horiz-adv-x="461" 
d="M411 -65l-77 77l-12 -12h-183l-77 77v536l77 77h183l76 -77v-536l-36 -37l77 -76zM160 38h141l3 3l-112 113l29 28l112 -112l22 22v506l-54 54h-141l-54 -54v-506z" />
    <glyph glyph-name="a.alt" horiz-adv-x="422" 
d="M129 0l-72 72v338l72 72h114l72 -72l2 72h37v-482h-37l-2 72l-72 -72h-114zM148 36h82l82 82v246l-82 83h-82l-49 -50v-312z" />
    <glyph glyph-name="aacute.alt" horiz-adv-x="422" 
d="M162 532v21l80 80h30v-21l-80 -80h-30zM129 0l-72 72v338l72 72h114l72 -72l2 72h37v-482h-37l-2 72l-72 -72h-114zM148 36h82l82 82v246l-82 83h-82l-49 -50v-312z" />
    <glyph glyph-name="agrave.alt" horiz-adv-x="422" 
d="M129 0l-72 72v338l72 72h114l72 -72l2 72h37v-482h-37l-2 72l-72 -72h-114zM148 36h82l82 82v246l-82 83h-82l-49 -50v-312zM202 532l-80 80v21h31l80 -80v-21h-31z" />
    <glyph glyph-name="acircumflex.alt" horiz-adv-x="422" 
d="M100 540v19l70 71h53l71 -71v-19h-27l-65 65h-11l-65 -65h-26zM129 0l-72 72v338l72 72h114l72 -72l2 72h37v-482h-37l-2 72l-72 -72h-114zM148 36h82l82 82v246l-82 83h-82l-49 -50v-312z" />
    <glyph glyph-name="adieresis.alt" horiz-adv-x="422" 
d="M239 542v78h39v-78h-39zM119 542v78h38v-78h-38zM129 0l-72 72v338l72 72h114l72 -72l2 72h37v-482h-37l-2 72l-72 -72h-114zM148 36h82l82 82v246l-82 83h-82l-49 -50v-312z" />
    <glyph glyph-name="atilde.alt" horiz-adv-x="422" 
d="M129 0l-72 72v338l72 72h114l72 -72l2 72h37v-482h-37l-2 72l-72 -72h-114zM148 36h82l82 82v246l-82 83h-82l-49 -50v-312zM96 544v41l35 36h53l49 -49h17l19 19v30h33v-42l-35 -35h-52l-50 49h-17l-18 -19v-30h-34z" />
    <glyph glyph-name="aring.alt" horiz-adv-x="422" 
d="M164 522l-31 32v59l31 31h69l31 -31v-59l-31 -32h-69zM177 546h43l16 16v43l-16 16h-43l-17 -16v-43zM129 0l-72 72v338l72 72h114l72 -72l2 72h37v-482h-37l-2 72l-72 -72h-114zM148 36h82l82 82v246l-82 83h-82l-49 -50v-312z" />
    <glyph glyph-name="abreve.alt" horiz-adv-x="422" 
d="M129 0l-72 72v338l72 72h114l72 -72l2 72h37v-482h-37l-2 72l-72 -72h-114zM148 36h82l82 82v246l-82 83h-82l-49 -50v-312zM144 545l-37 38v40h36v-30l19 -19h73l19 19v30h36v-40l-37 -38h-109z" />
    <glyph glyph-name="amacron.alt" horiz-adv-x="422" 
d="M129 0l-72 72v338l72 72h114l72 -72l2 72h37v-482h-37l-2 72l-72 -72h-114zM148 36h82l82 82v246l-82 83h-82l-49 -50v-312zM108 566v33h180v-33h-180z" />
    <glyph glyph-name="aogonek.alt" horiz-adv-x="422" 
d="M129 0l-72 72v338l72 72h114l72 -72l2 72h37v-482l-60 -60v-50l11 -11h49v-30h-68l-28 28v71l59 59l-2 65l-72 -72h-114zM148 36h82l82 82v246l-82 83h-82l-49 -50v-312z" />
    <glyph glyph-name="g.alt" horiz-adv-x="402" 
d="M115 -170l-69 69v126l55 55l-32 31v60l35 35l-52 52v155l69 69h256v-35h-73l44 -44v-143l-69 -69h-138l-31 -31v-37l30 -29h160l69 -69v-126l-69 -69h-185zM140 226h120l47 47v127l-47 47h-119l-47 -47v-128zM134 -135h146l47 47v100l-47 47h-146l-46 -47v-100z" />
    <glyph glyph-name="gbreve.alt" horiz-adv-x="402" 
d="M115 -170l-69 69v126l55 55l-32 31v60l35 35l-52 52v155l69 69h256v-35h-73l44 -44v-143l-69 -69h-138l-31 -31v-37l30 -29h160l69 -69v-126l-69 -69h-185zM140 226h120l47 47v127l-47 47h-119l-47 -47v-128zM134 -135h146l47 47v100l-47 47h-146l-46 -47v-100zM157 545
l-37 38v40h36v-30l19 -19h73l19 19v30h36v-40l-37 -38h-109z" />
    <glyph glyph-name="gcircumflex.alt" horiz-adv-x="402" 
d="M113 540v19l70 71h53l71 -71v-19h-27l-65 65h-11l-65 -65h-26zM115 -170l-69 69v126l55 55l-32 31v60l35 35l-52 52v155l69 69h256v-35h-73l44 -44v-143l-69 -69h-138l-31 -31v-37l30 -29h160l69 -69v-126l-69 -69h-185zM140 226h120l47 47v127l-47 47h-119l-47 -47v-128
zM134 -135h146l47 47v100l-47 47h-146l-46 -47v-100z" />
    <glyph glyph-name="gcommaaccent.alt" horiz-adv-x="402" 
d="M229 643v-114h-35v103l11 11h24zM115 -170l-69 69v126l55 55l-32 31v60l35 35l-52 52v155l69 69h256v-35h-73l44 -44v-143l-69 -69h-138l-31 -31v-37l30 -29h160l69 -69v-126l-69 -69h-185zM140 226h120l47 47v127l-47 47h-119l-47 -47v-128zM134 -135h146l47 47v100
l-47 47h-146l-46 -47v-100z" />
    <glyph glyph-name="at.alt1" horiz-adv-x="674" 
d="M68 0v586l105 104h335l104 -104v-522l-64 -64h-103l-2 70l-70 -70h-116l-70 70v184l69 69h184v169l-49 49h-105l-47 -47v-88h-43v101l70 70h144l72 -72v-471h48l41 41v496l-85 85h-292l-84 -85v-571h-42zM276 36h87l77 77v174h-164l-47 -47v-157z" />
    <glyph glyph-name="at.alt2" horiz-adv-x="649" 
d="M159 -114l-102 102v506l102 102h332l101 -102v-430l-64 -64h-101l-2 72l-72 -72h-112l-72 72v338l72 72h112l72 -72l2 72h37v-447h44l42 42v404l-79 79h-293l-79 -79v-480l79 -79h324v-36h-343zM260 36h81l82 82v247l-82 82h-81l-49 -50v-312z" />
    <glyph glyph-name="at.alt3" horiz-adv-x="675" 
d="M68 0v586l105 104h336l103 -104v-522l-63 -64h-104l-2 71l-71 -71h-106l-72 72v433l72 72h106l71 -71l2 71h38v-543h47l41 41v496l-84 85h-293l-84 -85v-571h-42zM286 36h73l82 81v343l-82 81h-73l-50 -50v-405z" />
    <glyph glyph-name="ampersand.alt" horiz-adv-x="440" 
d="M131 0l-74 74v237l60 60l-59 59v186l73 74h159l73 -72v-105h-44v90l-49 49h-118l-50 -50v-158l47 -47l201 -151v145h43v-318l-73 -73h-189zM152 38h147l51 50v109l-200 150l-49 -49v-209z" />
    <glyph glyph-name="ordfeminine.alt" horiz-adv-x="300" 
d="M94 345l-57 57v231l57 57h75l57 -57l1 57h35v-345h-35l-1 57l-57 -57h-75zM114 376h45l65 65v153l-65 65h-45l-38 -38v-207z" />
    <glyph glyph-name="zero.tabular" 
d="M151 0l-77 77v536l77 77h189l77 -77v-536l-77 -77h-189zM171 38h148l54 54v506l-54 54h-148l-53 -54v-506z" />
    <glyph glyph-name="one.tabular" 
d="M87 0v36h148v619h-148v35h192v-654h138v-36h-330z" />
    <glyph glyph-name="two.tabular" 
d="M89 0v290l65 64h174l37 38v209l-51 51h-131l-50 -50v-80h-44v95l74 73h172l74 -75v-238l-64 -64h-175l-37 -38v-237h273v-38h-317z" />
    <glyph glyph-name="three.tabular" 
d="M149 0l-73 73v111h43v-96l51 -50h147l51 51v196l-55 55h-166v38h166l54 55v169l-51 50h-146l-50 -50v-96h-44v111l73 73h188l74 -74v-197l-60 -60l60 -60v-225l-74 -74h-188z" />
    <glyph glyph-name="four.tabular" 
d="M340 0v202h-284v31l101 457h44l-97 -450h236v450h44v-450h56v-38h-56v-202h-44z" />
    <glyph glyph-name="five.tabular" 
d="M160 0l-73 73v113h44v-98l50 -50h134l51 51v266l-38 38h-142l-57 -57h-42v354h320v-38h-276v-265l48 47h166l65 -65v-294l-75 -75h-175z" />
    <glyph glyph-name="six.tabular" 
d="M157 0l-76 77v536l76 77h188l73 -73v-107h-44v92l-50 50h-146l-54 -54v-240l57 57h172l66 -66v-273l-76 -76h-186zM178 38h144l53 53v243l-39 39h-151l-61 -61v-220z" />
    <glyph glyph-name="seven.tabular" 
d="M203 0v242l166 410h-308v38h358v-30l-172 -420v-240h-44z" />
    <glyph glyph-name="eight.tabular" 
d="M147 0l-74 74v226l60 60l-59 59v197l73 74h196l74 -74v-197l-60 -59l60 -60v-226l-73 -74h-197zM167 38h156l51 51v197l-54 54h-148l-55 -54v-197zM172 379h147l54 54v169l-50 50h-155l-51 -50v-169z" />
    <glyph glyph-name="nine.tabular" 
d="M145 0l-73 73v108h43v-93l51 -50h146l54 54v251l-57 -57h-172l-66 66v262l76 76h185l77 -77v-536l-77 -77h-187zM154 328h151l61 61v209l-54 54h-145l-52 -53v-233z" />
    <glyph glyph-name="plus.tabular" 
d="M78 325v38h148v156h39v-156h147v-38h-147v-156h-39v156h-148z" />
    <glyph glyph-name="minus.tabular" 
d="M98 324v41h295v-41h-295z" />
    <glyph glyph-name="multiply.tabular" 
d="M115 186l-25 26l129 129l-129 129l26 27l129 -130l129 130l26 -27l-129 -129l129 -129l-26 -26l-130 129z" />
    <glyph glyph-name="divide.tabular" 
d="M221 170v78h48v-78h-48zM76 324v40h339v-40h-339zM221 438v78h48v-78h-48z" />
    <glyph glyph-name="equal.tabular" 
d="M89 404v39h311v-39h-311zM89 244v39h311v-39h-311z" />
    <glyph glyph-name="greater.tabular" 
d="M427 323l-349 -163v41l307 143l-307 143v42l349 -164v-42z" />
    <glyph glyph-name="less.tabular" 
d="M412 160l-349 163v42l349 164v-42l-307 -143l307 -143v-41z" />
    <glyph glyph-name="numbersign.tabular" 
d="M144 183v124h-75v36h75v187h-75v36h75v124h40v-124h122v124h40v-124h75v-36h-75v-187h75v-36h-75v-124h-40v124h-122v-124h-40zM184 343h122v187h-122v-187z" />
    <glyph glyph-name="dollar.tabular" 
d="M159 21l-73 73v95h44v-80l50 -50h130l51 51v186l-37 37h-173l-65 64v198l75 74h62v97h44v-97h62l73 -73v-95h-44v80l-50 50h-127l-51 -51v-167l37 -37h173l65 -64v-217l-75 -74h-63v-98h-44v98h-64z" />
    <glyph glyph-name="cent.tabular" 
d="M171 68l-77 77v401l77 77h63v92h43v-92h62l73 -74v-106h-43v91l-51 51h-127l-53 -53v-373l53 -53h127l51 51v95h43v-110l-73 -74h-62v-94h-43v94h-63z" />
    <glyph glyph-name="sterling.tabular" 
d="M71 0v35l48 48v239h-51v38h51v253l77 77h150l73 -73v-120h-43v105l-51 50h-108l-54 -54v-238h155v-38h-155v-246l-38 -38h294v-38h-348z" />
    <glyph glyph-name="yen.tabular" 
d="M86 231v35h126l-151 424h47l138 -395l140 395h44l-152 -424h126v-35h-137v-69h137v-35h-137v-127h-44v127h-137v35h137v69h-137z" />
    <glyph glyph-name="florin.tabular" 
d="M76 0v38h79l46 46v302h-119v37h119v192l75 75h134v-38h-113l-53 -52v-177h159v-37h-159v-317l-69 -69h-99z" />
    <glyph glyph-name="Euro.tabular" 
d="M52 382v35h45v196l77 77h167l73 -73v-110h-43v95l-51 50h-126l-53 -54v-181h190v-35h-190v-61h190v-35h-190v-194l53 -54h126l51 50v98h43v-113l-73 -73h-167l-77 77v209h-45v35h45v61h-45z" />
    <glyph glyph-name="section.tabular" 
d="M160 -97l-73 73v127h43v-112l50 -50h132l51 51v223h-256l-20 20v18h320v-276l-75 -74h-172zM87 346v269l75 75h169l74 -73v-127h-44v112l-50 50h-128l-52 -51v-217h254l19 -20v-18h-317z" />
    <glyph glyph-name="space.tabular" horiz-adv-x="244" 
 />
    <glyph glyph-name="colon.tabular" horiz-adv-x="244" 
d="M93 0v95h59v-95h-59zM93 313v95h59v-95h-59z" />
    <glyph glyph-name="semicolon.tabular" horiz-adv-x="244" 
d="M93 -87v31h15l10 10v46h-25v95h59v-152l-30 -30h-29zM93 313v95h59v-95h-59z" />
    <glyph glyph-name="comma.tabular" horiz-adv-x="244" 
d="M93 -87v31h15l10 10v46h-25v95h59v-152l-30 -30h-29z" />
    <glyph glyph-name="period.tabular" horiz-adv-x="244" 
d="M93 0v95h59v-95h-59z" />
    <glyph glyph-name="parenleft.tabular" horiz-adv-x="276" 
d="M165 -55l-74 74v651l74 74h59v-38h-38l-51 -51v-621l51 -51h38v-38h-59z" />
    <glyph glyph-name="parenright.tabular" horiz-adv-x="276" 
d="M185 19l-74 -74h-59v38h38l51 51v621l-51 51h-38v38h59l74 -74v-651z" />
    <glyph glyph-name="bracketleft.tabular" horiz-adv-x="276" 
d="M91 -55v799h132v-38h-88v-723h88v-38h-132z" />
    <glyph glyph-name="bracketright.tabular" horiz-adv-x="276" 
d="M185 744v-799h-132v38h88v723h-88v38h132z" />
    <glyph glyph-name="braceleft.tabular" horiz-adv-x="276" 
d="M180 -55l-75 74v278l-38 38h-46v39h46l38 39v257l75 74h58v-38h-38l-51 -51v-253l-47 -47l47 -47v-274l51 -51h38v-38h-58z" />
    <glyph glyph-name="braceright.tabular" horiz-adv-x="276" 
d="M171 19l-75 -74h-58v38h38l51 51v274l47 47l-47 47v253l-51 51h-38v38h58l75 -74v-257l38 -39h46v-39h-46l-38 -38v-278z" />
    <glyph glyph-name="zero.numerator" horiz-adv-x="301" 
d="M91 354l-53 53v230l53 53h118l53 -53v-230l-53 -53h-118zM111 386h79l35 35v202l-35 35h-79l-35 -35v-202z" />
    <glyph glyph-name="one.numerator" horiz-adv-x="249" 
d="M32 354v32h80v272h-79v32h116v-304h76v-32h-193z" />
    <glyph glyph-name="two.numerator" horiz-adv-x="283" 
d="M37 354v127l42 42h110l23 24v78l-33 33h-75l-29 -29v-43h-37v57l47 47h113l52 -52v-105l-42 -42h-109l-24 -23v-81h174v-33h-212z" />
    <glyph glyph-name="three.numerator" horiz-adv-x="291" 
d="M80 354l-47 47v56h38v-42l28 -29h84l32 33v60l-30 30h-96v32h96l30 31v53l-32 33h-84l-28 -29v-44h-38v58l47 47h122l51 -52v-77l-35 -36l35 -35v-84l-51 -52h-122z" />
    <glyph glyph-name="four.numerator" horiz-adv-x="288" 
d="M194 354v84h-174v27l69 225h38l-65 -219h132v219h38v-219h39v-33h-39v-84h-38z" />
    <glyph glyph-name="five.numerator" horiz-adv-x="291" 
d="M85 354l-46 47v56h38v-42l27 -29h83l32 33v93l-28 29h-82l-30 -31h-40v180h214v-33h-176v-110l26 26h108l46 -47v-120l-51 -52h-121z" />
    <glyph glyph-name="six.numerator" horiz-adv-x="302" 
d="M95 354l-53 53v230l53 53h123l46 -47v-49h-37v35l-28 29h-85l-34 -35v-99l31 31h106l48 -47v-102l-53 -52h-117zM114 386h79l34 34v74l-29 29h-84l-34 -34v-69z" />
    <glyph glyph-name="seven.numerator" horiz-adv-x="241" 
d="M93 354v148l90 155h-172v33h219v-23l-99 -169v-144h-38z" />
    <glyph glyph-name="eight.numerator" horiz-adv-x="302" 
d="M89 354l-51 52v83l36 36l-36 36v77l51 52h124l51 -52v-77l-36 -36l36 -36v-83l-51 -52h-124zM109 386h84l33 33v59l-30 31h-89l-31 -31v-59zM107 541h88l31 31v53l-32 33h-85l-33 -33v-53z" />
    <glyph glyph-name="nine.numerator" horiz-adv-x="302" 
d="M85 354l-47 47v51h38v-37l27 -29h85l34 35v100l-30 -31h-107l-47 48v100l52 52h118l52 -53v-230l-53 -53h-122zM104 522h85l33 34v68l-33 34h-80l-34 -34v-73z" />
    <glyph glyph-name="zero.denominator" horiz-adv-x="301" 
d="M91 0l-53 53v230l53 53h118l53 -53v-230l-53 -53h-118zM111 32h79l35 35v202l-35 35h-79l-35 -35v-202z" />
    <glyph glyph-name="one.denominator" horiz-adv-x="249" 
d="M32 0v32h80v272h-79v32h116v-304h76v-32h-193z" />
    <glyph glyph-name="two.denominator" horiz-adv-x="283" 
d="M37 0v127l42 42h110l23 24v78l-33 33h-75l-29 -29v-43h-37v57l47 47h113l52 -52v-105l-42 -42h-109l-24 -23v-81h174v-33h-212z" />
    <glyph glyph-name="three.denominator" horiz-adv-x="291" 
d="M80 0l-47 47v56h38v-42l28 -29h84l32 33v60l-30 30h-96v32h96l30 31v53l-32 33h-84l-28 -29v-44h-38v58l47 47h122l51 -52v-77l-35 -36l35 -35v-84l-51 -52h-122z" />
    <glyph glyph-name="four.denominator" horiz-adv-x="288" 
d="M194 0v84h-174v27l69 225h38l-65 -219h132v219h38v-219h39v-33h-39v-84h-38z" />
    <glyph glyph-name="five.denominator" horiz-adv-x="291" 
d="M85 0l-46 47v56h38v-42l27 -29h83l32 33v93l-28 29h-82l-30 -31h-40v180h214v-33h-176v-110l26 26h108l46 -47v-120l-51 -52h-121z" />
    <glyph glyph-name="six.denominator" horiz-adv-x="302" 
d="M95 0l-53 53v230l53 53h123l46 -47v-49h-37v35l-28 29h-85l-34 -35v-99l31 31h106l48 -47v-102l-53 -52h-117zM114 32h79l34 34v74l-29 29h-84l-34 -34v-69z" />
    <glyph glyph-name="seven.denominator" horiz-adv-x="241" 
d="M93 0v148l90 155h-172v33h219v-23l-99 -169v-144h-38z" />
    <glyph glyph-name="eight.denominator" horiz-adv-x="302" 
d="M89 0l-51 52v83l36 36l-36 36v77l51 52h124l51 -52v-77l-36 -36l36 -36v-83l-51 -52h-124zM109 32h84l33 33v59l-30 31h-89l-31 -31v-59zM107 187h88l31 31v53l-32 33h-85l-33 -33v-53z" />
    <glyph glyph-name="nine.denominator" horiz-adv-x="302" 
d="M85 0l-47 47v51h38v-37l27 -29h85l34 35v100l-30 -31h-107l-47 48v100l52 52h118l52 -53v-230l-53 -53h-122zM104 168h85l33 34v68l-33 34h-80l-34 -34v-73z" />
    <glyph glyph-name="Eth" unicode="&#xd0;" horiz-adv-x="470" 
d="M20 331v39h62v320h248l77 -77v-536l-77 -77h-248v331h-62zM125 38h185l54 54v506l-54 54h-185v-282h115v-39h-115v-293z" />
    </font>
</defs>
</svg>
